<?xml version="1.0" standalone="no"?>
<!DOCTYPE svg PUBLIC "-//W3C//DTD SVG 1.1//EN" "http://www.w3.org/Graphics/SVG/1.1/DTD/svg11.dtd" >
<svg xmlns="http://www.w3.org/2000/svg" xmlns:xlink="http://www.w3.org/1999/xlink" version="1.1">
<metadata>
Created by FontForge 20170910 at Thu Sep 22 12:07:24 2016
 By Jimmy Wärting
2016 published by Monotype GmbH
</metadata>
<defs>
<font id="MarkW04-NarrowMedium" horiz-adv-x="1" >
  <font-face 
    font-family="MarkW04-NarrowMedium"
    font-weight="500"
    font-stretch="semi-condensed"
    units-per-em="2000"
    panose-1="2 11 6 6 2 2 1 1 1 4"
    ascent="1600"
    descent="-400"
    x-height="962"
    cap-height="1400"
    bbox="-1503 -461.999 2775 2201"
    underline-thickness="100"
    underline-position="-250"
    unicode-range="U+0020-FEFF"
  />
<missing-glyph horiz-adv-x="1076" 
d="M135 1400h806v-1400h-806v1400zM760 181v1038h-444v-1038h444z" />
    <glyph glyph-name="f_i.liga" unicode="fi" horiz-adv-x="1243" 
d="M418 962l298.005 0.000976562v-185h-298v-777h-202v777h-176v185h176v155c0 51.333 6.5 98.166 19.5 140.499s32.167 78.5 57.5 108.5s57.166 53.333 95.499 70s83.166 25 134.499 25c50 0 94.667 -5.83301 134 -17.5s74.666 -27.167 105.999 -46.5l-68 -169
c-20.667 11.333 -43.834 21 -69.501 29s-51.834 12 -78.501 12c-44 0 -76.5 -13 -97.5 -39s-31.5 -64 -31.5 -114v-154zM1108 0.000976562h-202v962h202v-962zM1006 1424c18.667 0 36.167 -3.49805 52.5 -10.498s30.5 -16.5 42.5 -28.5s21.5 -26.333 28.5 -43
s10.5 -34.334 10.5 -53.001c0 -19.333 -3.5 -37 -10.5 -53s-16.5 -30 -28.5 -42s-26.167 -21.333 -42.5 -28s-33.833 -10 -52.5 -10c-19.333 0 -37 3.33301 -53 10s-30 16 -42 28s-21.333 26.167 -28 42.5s-10 34.166 -10 53.499c0 18.667 3.33301 36.167 10 52.5
s16 30.5 28 42.5s26 21.5 42 28.5s33.667 10.5 53 10.5z" />
    <glyph glyph-name="f_l.liga" unicode="fl" horiz-adv-x="1243" 
d="M418 962l298.005 0.000976562v-185h-298v-777h-202v777h-176v185h176v155c0 51.333 6.5 98.166 19.5 140.499s32.167 78.5 57.5 108.5s57.166 53.333 95.499 70s83.166 25 134.499 25c50 0 94.667 -5.83301 134 -17.5s74.666 -27.167 105.999 -46.5l-68 -169
c-20.667 11.333 -43.834 21 -69.501 29s-51.834 12 -78.501 12c-44 0 -76.5 -13 -97.5 -39s-31.5 -64 -31.5 -114v-154zM1108 0.000976562h-202v1440h202v-1440z" />
    <glyph glyph-name="f_t.liga" unicode="ft" horiz-adv-x="1396" 
d="M1374 63c-34 -24 -72.835 -44.002 -116.502 -60.002s-93.834 -24 -150.501 -24c-99.333 0 -176.666 28 -231.999 84s-83 142.333 -83 259v455h-374v-777h-201v777h-177v185h177v98c0 68.667 10.333 128.334 31 179.001s48.834 92.334 84.501 125.001s77 57 124 73
s96.5 24 148.5 24s101.5 -8 148.5 -24s88.333 -40.333 124 -73s63.834 -74.334 84.501 -125.001s31 -110.334 31 -179.001v-98h329v-185h-329v-443c0 -29.333 3.66699 -54.166 11 -74.499s17.333 -37.166 30 -50.499s27.667 -23 45 -29s36.333 -9 57 -9
c30 0 59.333 5.33301 88 16s54.667 24 78 40zM417.998 961.998l374.001 0.00195312v89c0 38 -4.66699 70.833 -14 98.5s-22.333 50.5 -39 68.5s-36.5 31.167 -59.5 39.5s-47.833 12.5 -74.5 12.5c-27.333 0 -52.333 -4.16699 -75 -12.5s-42.334 -21.333 -59.001 -39
s-29.667 -40.334 -39 -68.001s-14 -60.834 -14 -99.501v-89z" />
    <glyph glyph-name=".notdef" horiz-adv-x="1076" 
d="M135 1400h806v-1400h-806v1400zM760 181v1038h-444v-1038h444z" />
    <glyph glyph-name="glyph1" horiz-adv-x="0" 
 />
    <glyph glyph-name="glyph1" horiz-adv-x="0" 
 />
    <glyph glyph-name="space" unicode=" " horiz-adv-x="457" 
 />
    <glyph glyph-name="exclam" unicode="!" horiz-adv-x="498" 
d="M337 458h-177l-28 942h233zM249 282c20.667 0 40 -4 58 -12s33.833 -18.833 47.5 -32.5s24.5 -29.667 32.5 -48s12 -37.833 12 -58.5s-4 -40.167 -12 -58.5s-18.833 -34.333 -32.5 -48s-29.5 -24.5 -47.5 -32.5s-37.333 -12 -58 -12s-40.167 4 -58.5 12
s-34.333 19 -48 33s-24.5 30.167 -32.5 48.5s-12 37.833 -12 58.5s4 40 12 58s18.833 33.833 32.5 47.5s29.667 24.5 48 32.5s37.833 12 58.5 12z" />
    <glyph glyph-name="quotedbl" unicode="&#x22;" horiz-adv-x="976" 
d="M410 1440v-551h-193v551h193zM758 1440v-551h-193v551h193z" />
    <glyph glyph-name="numbersign" unicode="#" horiz-adv-x="1254" 
d="M968 874l-65 -341h189l-33 -178h-190l-68 -355h-181l68 355h-255l-68 -355h-181l68 355h-190l33 178h191l65 341h-191l34 178h191l67 348h181l-67 -348h255l67 348h181l-67 -348h190l-34 -178h-190zM787 874h-255l-65 -341h255z" />
    <glyph glyph-name="dollar" unicode="$" horiz-adv-x="1252" 
d="M742 785c56 -11.333 107.334 -27.1689 154.001 -47.502s87 -45.5 121 -75.5s60.333 -65.5 79 -106.5s28 -87.833 28 -140.5c0 -56.667 -10 -107.667 -30 -153s-47.833 -84.666 -83.5 -117.999s-77.5 -60.5 -125.5 -81.5s-100 -35.5 -156 -43.5v-196h-175v192
c-83.333 7.33301 -162.5 26.666 -237.5 57.999s-138.5 71.666 -190.5 120.999l128 154c16.667 -16 36 -31.167 58 -45.5s46 -27.166 72 -38.499s53.167 -21.166 81.5 -29.499s57.5 -14.5 87.5 -18.5v393l-18 4c-56.667 12 -107.667 28.667 -153 50s-84 47.833 -116 79.5
s-56.667 68.5 -74 110.5s-26 89.333 -26 142c0 53.333 9.66699 102 29 146s46.166 82.5 80.499 115.5s75.166 60 122.499 81s99 35.5 155 43.5v188h176v-185c76.667 -7.33301 146.5 -23.666 209.5 -48.999s121.167 -59 174.5 -101l-119 -159
c-37.333 27.333 -78.166 50.333 -122.499 69s-91.833 31.667 -142.5 39v-395zM378.001 998.997c0 -42 14.167 -76.833 42.5 -104.5s72.5 -50.5 132.5 -68.5v353c-52.667 -12 -95 -33.5 -127 -64.5s-48 -69.5 -48 -115.5zM909.001 402.997
c0 40.667 -15.332 74.501 -45.999 101.501s-75.334 49.167 -134.001 66.5v-349c26.667 6 51 14.333 73 25s41 23.667 57 39s28.333 32.666 37 51.999s13 41 13 65z" />
    <glyph glyph-name="percent" unicode="%" horiz-adv-x="1764" 
d="M428 1422c50.667 0 97.667 -8.66699 141 -26s80.833 -41.666 112.5 -72.999s56.5 -68.666 74.5 -111.999s27 -90.666 27 -141.999c0 -52 -9 -99.667 -27 -143s-42.833 -80.833 -74.5 -112.5s-69.167 -56.167 -112.5 -73.5s-90.333 -26 -141 -26
c-50 0 -96.5 8.66699 -139.5 26s-80.333 41.833 -112 73.5s-56.334 69.167 -74.001 112.5s-26.5 91 -26.5 143c0 51.333 8.83301 98.666 26.5 141.999s42.334 80.666 74.001 111.999s69 55.666 112 72.999s89.5 26 139.5 26zM581 0h-201l802 1400h201zM428 1256
c-24.667 0 -47.667 -4.5 -69 -13.5s-39.666 -21.833 -54.999 -38.5s-27.5 -36.334 -36.5 -59.001s-13.5 -48 -13.5 -76s4.5 -53.667 13.5 -77s21.167 -43.166 36.5 -59.499s33.666 -29 54.999 -38s44.333 -13.5 69 -13.5c25.333 0 48.833 4.5 70.5 13.5
s40.334 21.667 56.001 38s28 36.166 37 59.499s13.5 49 13.5 77s-4.5 53.333 -13.5 76s-21.333 42.334 -37 59.001s-34.334 29.5 -56.001 38.5s-45.167 13.5 -70.5 13.5zM1333 687c50.667 0 97.667 -8.66699 141 -26s80.833 -41.666 112.5 -72.999
s56.5 -68.666 74.5 -111.999s27 -91 27 -143s-9 -99.667 -27 -143s-42.833 -80.666 -74.5 -111.999s-69.167 -55.666 -112.5 -72.999s-90.333 -26 -141 -26c-50 0 -96.5 8.66699 -139.5 26s-80.333 41.666 -112 72.999s-56.334 68.666 -74.001 111.999s-26.5 91 -26.5 143
s8.83301 99.667 26.5 143s42.334 80.666 74.001 111.999s69 55.666 112 72.999s89.5 26 139.5 26zM1333 521c-24.667 0 -47.667 -4.66797 -69 -14.001s-39.666 -22.166 -54.999 -38.499s-27.5 -36 -36.5 -59s-13.5 -48.5 -13.5 -76.5s4.5 -53.5 13.5 -76.5
s21.167 -42.667 36.5 -59s33.666 -29 54.999 -38s44.333 -13.5 69 -13.5c25.333 0 48.833 4.5 70.5 13.5s40.334 21.667 56.001 38s28 36 37 59s13.5 48.5 13.5 76.5s-4.5 53.5 -13.5 76.5s-21.333 42.833 -37 59.5s-34.334 29.5 -56.001 38.5s-45.167 13.5 -70.5 13.5z" />
    <glyph glyph-name="ampersand" unicode="&#x26;" horiz-adv-x="1290" 
d="M1004 0l-155.002 165.005c-23.333 -26.667 -48.166 -51.334 -74.499 -74.001s-55 -42.334 -86 -59.001s-64.833 -29.667 -101.5 -39s-76.334 -14 -119.001 -14c-60 0 -113.667 8 -161 24s-87.666 39 -120.999 69s-58.833 66.667 -76.5 110s-26.5 92 -26.5 146
c0 42.667 6.5 82.667 19.5 120s30.5 72.333 52.5 105s47.167 63.5 75.5 92.5s58.166 56.833 89.499 83.5c-30 33.333 -56.167 64.333 -78.5 93s-40.666 57 -54.999 85s-25.166 56.5 -32.499 85.5s-11 60.5 -11 94.5c0 47.333 8.5 91.333 25.5 132s41 76 72 106
s68.5 53.5 112.5 70.5s93 25.5 147 25.5c52 0 99.5 -8 142.5 -24s79.667 -38.333 110 -67s54 -62.667 71 -102s25.5 -82.333 25.5 -129c0 -39.333 -6.66699 -76.333 -20 -111s-31.333 -67.334 -54 -98.001s-48.5 -59.834 -77.5 -87.501s-59.167 -54.5 -90.5 -80.5
c11.333 -13.333 23.5 -26.833 36.5 -40.5s26.5 -28.167 40.5 -43.5l149 -162l176 284l161 -94l-178 -295l-12 -20c-4 -6.66699 -8.33301 -13.334 -13 -20.001l306 -331h-269zM481.998 171.005c48.667 0 91.5 11.6699 128.5 35.0029s72.5 56.666 106.5 99.999l-268 285
c-21.333 -19.333 -41.333 -38.833 -60 -58.5s-34.667 -39.834 -48 -60.501s-23.833 -42 -31.5 -64s-11.5 -45 -11.5 -69c0 -25.333 4.5 -48.333 13.5 -69s21.5 -38.334 37.5 -53.001s35.333 -26 58 -34s47.667 -12 75 -12zM350.998 1083.01c0 -17.333 2 -33.5 6 -48.5
s11 -31 21 -48s23.333 -35.667 40 -56s37.334 -44.5 62.001 -72.5c22.667 19.333 44 38.333 64 57s37.5 37.5 52.5 56.5s26.667 38.333 35 58s12.5 40.167 12.5 61.5c0 42.667 -13 76.667 -39 102s-61.667 38 -107 38c-44.667 0 -80.334 -13.167 -107.001 -39.5
s-40 -62.5 -40 -108.5z" />
    <glyph glyph-name="quotesingle" unicode="'" horiz-adv-x="627" 
d="M410 1440v-551h-193v551h193z" />
    <glyph glyph-name="parenleft" unicode="(" horiz-adv-x="756" 
d="M694 1248c-60 -29.333 -112.667 -67.168 -158 -113.501s-83.333 -98.833 -114 -157.5s-53.834 -122.5 -69.501 -191.5s-23.5 -141.5 -23.5 -217.5s7.83301 -148.5 23.5 -217.5s38.834 -132.833 69.501 -191.5s68.667 -111.167 114 -157.5s98 -84.166 158 -113.499
l-76 -186c-77.333 33.333 -147 77.833 -209 133.5s-114.833 120.5 -158.5 194.5s-77.334 156.333 -101.001 247s-35.5 187.667 -35.5 291s11.833 200.333 35.5 291s57.334 173 101.001 247s96.5 138.833 158.5 194.5s131.667 100.167 209 133.5z" />
    <glyph glyph-name="parenright" unicode=")" horiz-adv-x="756" 
d="M62 -110c60 29.333 112.667 67.168 158 113.501s83.333 98.833 114 157.5s53.834 122.5 69.501 191.5s23.5 141.5 23.5 217.5s-7.83301 148.5 -23.5 217.5s-38.834 132.833 -69.501 191.5s-68.667 111.167 -114 157.5s-98 84.166 -158 113.499l76 186
c76.667 -33.333 146.167 -77.833 208.5 -133.5s115.333 -120.5 159 -194.5s77.334 -156.333 101.001 -247s35.5 -187.667 35.5 -291s-11.833 -200.333 -35.5 -291s-57.334 -173 -101.001 -247s-96.667 -138.833 -159 -194.5s-131.833 -100.167 -208.5 -133.5z" />
    <glyph glyph-name="asterisk" unicode="*" horiz-adv-x="852" 
d="M548 1059l142 -191l-126 -91l-137 195l-138 -195l-126 91l143 191l-228 71l48 148l226 -77l-3 239h155l-3 -239l226 77l48 -148z" />
    <glyph glyph-name="plus" unicode="+" horiz-adv-x="1104" 
d="M946 441h-304v-310h-182v310h-302v180h302v311h182v-311h304v-180z" />
    <glyph glyph-name="comma" unicode="," horiz-adv-x="475" 
d="M377 268l-113 -533h-170l57 533h226z" />
    <glyph glyph-name="hyphen" unicode="-" horiz-adv-x="735" 
d="M627 439h-518v184h518v-184z" />
    <glyph glyph-name="period" unicode="." horiz-adv-x="498" 
d="M249 284c20.667 0 40.167 -3.99902 58.5 -11.999s34.333 -19 48 -33s24.5 -30.333 32.5 -49s12 -38.334 12 -59.001s-4 -40.167 -12 -58.5s-18.833 -34.5 -32.5 -48.5s-29.667 -25 -48 -33s-37.833 -12 -58.5 -12s-40.167 4 -58.5 12s-34.5 19 -48.5 33
s-25 30.333 -33 49s-12 38.667 -12 60c0 20.667 4 40.167 12 58.5s19 34.333 33 48s30.167 24.5 48.5 32.5s37.833 12 58.5 12z" />
    <glyph glyph-name="slash" unicode="/" horiz-adv-x="930" 
d="M193 -200h-215l764 1740h215z" />
    <glyph glyph-name="zero" unicode="0" horiz-adv-x="1274" 
d="M637 1420c76 0 146.5 -15.833 211.5 -47.5s121.167 -78 168.5 -139s84.5 -136.167 111.5 -225.5s40.5 -192 40.5 -308s-13.5 -218.833 -40.5 -308.5s-64.167 -165 -111.5 -226s-103.5 -107.167 -168.5 -138.5s-135.5 -47 -211.5 -47s-146.5 15.667 -211.5 47
s-121.167 77.5 -168.5 138.5s-84.5 136.333 -111.5 226s-40.5 192.5 -40.5 308.5s13.5 218.667 40.5 308s64.167 164.5 111.5 225.5s103.5 107.333 168.5 139s135.5 47.5 211.5 47.5zM637 1217c-44.667 0 -86 -10.667 -124 -32s-71 -53.5 -99 -96.5s-50 -96.833 -66 -161.5
s-24 -140.334 -24 -227.001c0 -86 8 -161.333 24 -226s38 -118.5 66 -161.5s61 -75.333 99 -97s79.333 -32.5 124 -32.5s86.167 10.833 124.5 32.5s71.5 54 99.5 97s50 96.833 66 161.5s24 140 24 226c0 86.667 -8 162.334 -24 227.001s-38 118.5 -66 161.5
s-61.167 75.167 -99.5 96.5s-79.833 32 -124.5 32z" />
    <glyph glyph-name="one" unicode="1" horiz-adv-x="761" 
d="M593 0h-210v1112l-331 -144v218l541 234v-1420z" />
    <glyph glyph-name="two" unicode="2" horiz-adv-x="1017" 
d="M68 1194c18 26 39.332 52.4951 63.999 79.4951s54 51.333 88 73s72.833 39.5 116.5 53.5s93.167 21 148.5 21c67.333 0 127.666 -10.667 180.999 -32s98.5 -50.833 135.5 -88.5s65.333 -82.667 85 -135s29.5 -109.5 29.5 -171.5c0 -41.333 -4.33301 -80.166 -13 -116.499
s-20.5 -70.666 -35.5 -102.999s-32.667 -63 -53 -92s-41.833 -57.167 -64.5 -84.5l-335 -398h528v-200h-823v176l463 550c34 40.667 61.167 82.167 81.5 124.5s30.5 87.5 30.5 135.5c0 32.667 -5 62.834 -15 90.501s-24.5 51.834 -43.5 72.501s-42.167 36.834 -69.5 48.501
s-58.666 17.5 -93.999 17.5c-32 0 -61 -4.16699 -87 -12.5s-49.5 -19.666 -70.5 -33.999s-40.167 -30.833 -57.5 -49.5s-33.666 -38.334 -48.999 -59.001z" />
    <glyph glyph-name="three" unicode="3" horiz-adv-x="1031" 
d="M709 706c70.667 -28 127 -69.668 169 -125.001s63 -122 63 -200c0 -66.667 -12.667 -125.167 -38 -175.5s-59.166 -92.166 -101.499 -125.499s-91.333 -58.5 -147 -75.5s-113.834 -25.5 -174.501 -25.5c-93.333 0 -175.833 16 -247.5 48s-131.5 76.333 -179.5 133
l130 144c36.667 -40 80 -71.167 130 -93.5s103.333 -33.5 160 -33.5c34.667 0 67.167 4.5 97.5 13.5s56.833 22.667 79.5 41s40.5 41.166 53.5 68.499s19.5 59.333 19.5 96c0 34 -7 64.167 -21 90.5s-33.167 48.5 -57.5 66.5s-53 31.667 -86 41s-68.167 14 -105.5 14h-156
v197h157c34 0 65.667 4.5 95 13.5s55 22.167 77 39.5s39.167 38.833 51.5 64.5s18.5 55.5 18.5 89.5c0 32.667 -6 62 -18 88s-28.833 48 -50.5 66s-47.167 31.667 -76.5 41s-61 14 -95 14c-29.333 0 -56.666 -3.66699 -81.999 -11s-48.833 -17 -70.5 -29
s-41.334 -26 -59.001 -42s-33.167 -33 -46.5 -51l-134 141c20 27.333 43.5 52.833 70.5 76.5s57.167 44 90.5 61s70.5 30.333 111.5 40s85.5 14.5 133.5 14.5c66 0 126.167 -9.5 180.5 -28.5s101 -45.833 140 -80.5s69.333 -76 91 -124s32.5 -101.333 32.5 -160
c0 -76.667 -18.333 -142.167 -55 -196.5s-86.667 -96.166 -150 -125.499z" />
    <glyph glyph-name="four" unicode="4" horiz-adv-x="1054" 
d="M825 278v-278h-207v278h-576v164l459 957h230l-444 -924h331v358h207v-358h187v-197h-187z" />
    <glyph glyph-name="five" unicode="5" horiz-adv-x="1061" 
d="M900 1203l-520.997 -0.000976562l-9 -350h137c74.667 0 140.5 -10.833 197.5 -32.5s104.833 -51.334 143.5 -89.001s68 -82 88 -133s30 -105.833 30 -164.5c0 -72 -12 -136.167 -36 -192.5s-56.833 -104 -98.5 -143s-90.834 -68.667 -147.501 -89
s-117.334 -30.5 -182.001 -30.5c-92 0 -174.333 16.667 -247 50s-135 82 -187 146l124 149c18 -21.333 38.333 -40.833 61 -58.5s47.167 -33 73.5 -46s54 -23 83 -30s58.5 -10.5 88.5 -10.5c40.667 0 76.667 6.16699 108 18.5s57.5 29.333 78.5 51s37 47 48 76
s16.5 60.5 16.5 94.5c0 32.667 -5.33301 63.334 -16 92.001s-27.834 53.834 -51.501 75.501s-54.5 38.667 -92.5 51s-84.333 18.5 -139 18.5h-275l16 744h709v-197z" />
    <glyph glyph-name="six" unicode="6" horiz-adv-x="1071" 
d="M567 897c61.333 0 118.501 -11.5 171.501 -34.5s99.167 -54.833 138.5 -95.5s70.166 -88.834 92.499 -144.501s33.5 -116.167 33.5 -181.5c0 -66.667 -11.833 -128.167 -35.5 -184.5s-56.334 -105 -98.001 -146s-91.167 -73.167 -148.5 -96.5s-120 -35 -188 -35
c-67.333 0 -129.666 11.5 -186.999 34.5s-107 55 -149 96s-74.833 89.667 -98.5 146s-35.5 117.5 -35.5 183.5c0 59.333 9.33301 117.333 28 174s46.667 116.334 84 179.001l363 608h244l-320 -517c15.333 4.66699 31.5 8.16699 48.5 10.5s35.833 3.5 56.5 3.5zM533.001 176
c37.333 0 71.499 6.5 102.499 19.5s57.833 31 80.5 54s40.167 50.667 52.5 83s18.5 68.166 18.5 107.499c0 38.667 -6.33301 74.334 -19 107.001s-30.167 60.5 -52.5 83.5s-49.166 41 -80.499 54s-65.333 19.5 -102 19.5c-37.333 0 -71.5 -6.5 -102.5 -19.5
s-57.667 -31 -80 -54s-39.833 -50.833 -52.5 -83.5s-19 -68.334 -19 -107.001c0 -39.333 6.33301 -75.166 19 -107.499s30.167 -60 52.5 -83s49 -41 80 -54s65.167 -19.5 102.5 -19.5z" />
    <glyph glyph-name="seven" unicode="7" horiz-adv-x="989" 
d="M936 1228l-535 -1228h-239l531 1199h-630v201h873v-172z" />
    <glyph glyph-name="eight" unicode="8" horiz-adv-x="1153" 
d="M829 707c32.667 -13.333 63.168 -29.833 91.501 -49.5s53 -43 74 -70s37.667 -57.833 50 -92.5s18.5 -73.667 18.5 -117c0 -63.333 -12.833 -119.666 -38.5 -168.999s-60.5 -91 -104.5 -125s-95.667 -60 -155 -78s-122.333 -27 -189 -27c-67.333 0 -130.5 9 -189.5 27
s-110.5 44 -154.5 78s-78.833 75.667 -104.5 125s-38.5 105.666 -38.5 168.999c0 43.333 6.16699 82.333 18.5 117s29 65.5 50 92.5s45.667 50.333 74 70s58.5 36.167 90.5 49.5c-28.667 14 -55.334 30.833 -80.001 50.5s-46.167 42.5 -64.5 68.5s-32.666 55.667 -42.999 89
s-15.5 70.333 -15.5 111c0 62 12 117.5 36 166.5s56.667 90.333 98 124s89.666 59.334 144.999 77.001s114.666 26.5 177.999 26.5c62.667 0 121.834 -8.83301 177.501 -26.5s104 -43.334 145 -77.001s73.5 -75 97.5 -124s36 -104.5 36 -166.5
c0 -40.667 -5.16699 -77.667 -15.5 -111s-24.666 -63 -42.999 -89s-39.833 -48.833 -64.5 -68.5s-51.334 -36.5 -80.001 -50.5zM576.001 1223c-33.333 0 -64.501 -4.5 -93.501 -13.5s-54.333 -22.167 -76 -39.5s-38.667 -39.333 -51 -66s-18.5 -57.334 -18.5 -92.001
c0 -35.333 6.16699 -66.5 18.5 -93.5s29.333 -49.5 51 -67.5s47 -31.5 76 -40.5s60.167 -13.5 93.5 -13.5s64.5 4.5 93.5 13.5s54.333 22.5 76 40.5s38.667 40.5 51 67.5s18.5 58.167 18.5 93.5c0 34.667 -6.33301 65.334 -19 92.001s-29.667 48.667 -51 66
s-46.666 30.5 -75.999 39.5s-60.333 13.5 -93 13.5zM576 175c36.667 0 71 4.66699 103 14s60 23.166 84 41.499s43 41.333 57 69s21 59.5 21 95.5s-7 67.5 -21 94.5s-33 49.667 -57 68s-52 32.166 -84 41.499s-66.333 14 -103 14s-71.167 -4.66699 -103.5 -14
s-60.5 -23.166 -84.5 -41.499s-43 -41 -57 -68s-21 -58.5 -21 -94.5s7 -67.833 21 -95.5s33 -50.667 57 -69s52.167 -32.166 84.5 -41.499s66.833 -14 103.5 -14z" />
    <glyph glyph-name="nine" unicode="9" horiz-adv-x="1071" 
d="M538 1421c68 0 130.663 -11.667 187.996 -35s106.833 -55.5 148.5 -96.5s74.334 -89.5 98.001 -145.5s35.5 -117 35.5 -183c0 -59.333 -9.5 -117.333 -28.5 -174s-46.833 -116.334 -83.5 -179.001l-362 -608h-245l321 517c-31.333 -9.33301 -66.666 -14 -105.999 -14
c-61.333 0 -118.5 11.5 -171.5 34.5s-99.167 54.833 -138.5 95.5s-70.166 88.834 -92.499 144.501s-33.5 116.167 -33.5 181.5c0 66.667 11.833 128.167 35.5 184.5s56.334 105 98.001 146s91.167 73.167 148.5 96.5s120 35 188 35zM537.996 696
c37.333 0 71.5 6.5 102.5 19.5s57.833 31 80.5 54s40.167 50.667 52.5 83s18.5 68.166 18.5 107.499c0 38.667 -6.16699 74.334 -18.5 107.001s-29.833 60.5 -52.5 83.5s-49.5 41 -80.5 54s-65.167 19.5 -102.5 19.5s-71.5 -6.5 -102.5 -19.5s-57.667 -31 -80 -54
s-39.833 -50.833 -52.5 -83.5s-19 -68.334 -19 -107.001c0 -39.333 6.33301 -75.166 19 -107.499s30.167 -60 52.5 -83s49 -41 80 -54s65.167 -19.5 102.5 -19.5z" />
    <glyph glyph-name="colon" unicode=":" horiz-adv-x="497" 
d="M249 983c20.667 0 40.167 -4.00098 58.5 -12.001s34.333 -19 48 -33s24.5 -30.167 32.5 -48.5s12 -37.833 12 -58.5s-4 -40.167 -12 -58.5s-18.833 -34.5 -32.5 -48.5s-29.667 -25 -48 -33s-37.833 -12 -58.5 -12s-40.167 4 -58.5 12s-34.5 19 -48.5 33
s-25 30.333 -33 49s-12 38.334 -12 59.001s4 40.167 12 58.5s19 34.333 33 48s30.167 24.5 48.5 32.5s37.833 12 58.5 12zM249 283.999c20.667 0 40.167 -4.00098 58.5 -12.001s34.333 -19 48 -33s24.5 -30.167 32.5 -48.5s12 -37.833 12 -58.5s-4 -40.167 -12 -58.5
s-18.833 -34.5 -32.5 -48.5s-29.667 -25 -48 -33s-37.833 -12 -58.5 -12s-40.167 4 -58.5 12s-34.5 19 -48.5 33s-25 30.333 -33 49s-12 38.334 -12 59.001s4 40.167 12 58.5s19 34.333 33 48s30.167 24.5 48.5 32.5s37.833 12 58.5 12z" />
    <glyph glyph-name="semicolon" unicode=";" horiz-adv-x="497" 
d="M249 983c20.667 0 40.167 -4.00098 58.5 -12.001s34.333 -19 48 -33s24.5 -30.167 32.5 -48.5s12 -37.833 12 -58.5s-4 -40.167 -12 -58.5s-18.833 -34.5 -32.5 -48.5s-29.667 -25 -48 -33s-37.833 -12 -58.5 -12s-40.167 4 -58.5 12s-34.5 19 -48.5 33
s-25 30.333 -33 49s-12 38.334 -12 59.001s4 40.167 12 58.5s19 34.333 33 48s30.167 24.5 48.5 32.5s37.833 12 58.5 12zM375 267.999l-113 -533h-170l57 533h226z" />
    <glyph glyph-name="less" unicode="&#x3c;" horiz-adv-x="1104" 
d="M181 442v180l722 340v-201l-523 -229l523 -231v-202z" />
    <glyph glyph-name="equal" unicode="=" horiz-adv-x="1104" 
d="M946 630h-788v175h788v-175zM946 257h-788v176h788v-176z" />
    <glyph glyph-name="greater" unicode="&#x3e;" horiz-adv-x="1104" 
d="M923 621v-180l-722 -340v201l523 229l-523 231v202z" />
    <glyph glyph-name="question" unicode="?" horiz-adv-x="801" 
d="M270 1425c76 0 144.17 -9.49902 204.503 -28.499s111.666 -46 153.999 -81s74.666 -77.5 96.999 -127.5s33.5 -105.667 33.5 -167c0 -113.333 -34.5 -204.5 -103.5 -273.5s-167.833 -113.167 -296.5 -132.5l-8 -158h-178v343h72c91.333 0 162.5 18.167 213.5 54.5
s76.5 88.833 76.5 157.5c0 64 -25.333 113.5 -76 148.5s-120.334 52.5 -209.001 52.5c-23.333 0 -45 -0.333008 -65 -1s-34.667 -1 -44 -1l-40 202c23.333 3.33301 50.333 6.16602 81 8.49902s60 3.5 88 3.5zM262.003 282.001c20 0 39.167 -4.00098 57.5 -12.001
s34.333 -18.833 48 -32.5s24.5 -29.667 32.5 -48s12 -37.833 12 -58.5s-4 -40.167 -12 -58.5s-18.833 -34.5 -32.5 -48.5s-29.667 -25 -48 -33s-37.833 -12 -58.5 -12c-20 0 -39.167 4 -57.5 12s-34.333 19 -48 33s-24.5 30.333 -32.5 49s-12 38.334 -12 59.001s4 40 12 58
s18.833 33.833 32.5 47.5s29.667 24.5 48 32.5s37.833 12 58.5 12z" />
    <glyph glyph-name="at" unicode="@" horiz-adv-x="1776" 
d="M1232 885l0.00195312 -463.005c0 -60.667 7.5 -105 22.5 -133s38.167 -42 69.5 -42c44 0 80 23.667 108 71s42 121.333 42 222c0 92.667 -14.5 177.334 -43.5 254.001s-69.333 142.334 -121 197.001s-113.334 97.167 -185.001 127.5s-150.167 45.5 -235.5 45.5
c-86 0 -164.833 -16.167 -236.5 -48.5s-133.5 -77.666 -185.5 -135.999s-92.5 -128.333 -121.5 -210s-43.5 -171.5 -43.5 -269.5c0 -99.333 14.333 -189.833 43 -271.5s68.667 -152 120 -211s112.833 -104.667 184.5 -137s150.5 -48.5 236.5 -48.5c132.667 0 252 41 358 123
l92 -123c-66.667 -54 -137.834 -93.333 -213.501 -118s-154.5 -37 -236.5 -37c-111.333 0 -213.166 20.333 -305.499 61s-171.666 97.5 -237.999 170.5s-117.833 159.833 -154.5 260.5s-55 211 -55 331c0 118.667 18.333 228.167 55 328.5s88.334 186.833 155.001 259.5
s146.334 129.334 239.001 170.001s195 61 307 61s214.333 -19.333 307 -58s172 -92.5 238 -161.5s117.333 -151.167 154 -246.5s55 -199.666 55 -312.999c0 -66 -7.66699 -126.667 -23 -182s-37.333 -103 -66 -143s-63.167 -71 -103.5 -93s-85.833 -33 -136.5 -33
c-32.667 0 -61.667 4 -87 12s-47.333 19 -66 33s-34.334 30.667 -47.001 50s-22.667 40 -30 62c-12 -21.333 -25.667 -41 -41 -59s-32.833 -33.667 -52.5 -47s-41.334 -23.833 -65.001 -31.5s-49.834 -11.5 -78.501 -11.5c-50 0 -95.5 10.333 -136.5 31
s-76.167 49 -105.5 85s-52.166 78.5 -68.499 127.5s-24.5 102.167 -24.5 159.5c0 56.667 8.33301 109.5 25 158.5s39.667 91.667 69 128s64.166 64.833 104.499 85.5s84.166 31 131.499 31c54 0 99.333 -12.667 136 -38s66.667 -57.333 90 -96v116h164zM877.002 259.995
c28.667 0 54.834 5.83008 78.501 17.4971s43.834 28 60.501 49s29.667 46.167 39 75.5s14 62 14 98s-4.66699 68.667 -14 98s-22.333 54.5 -39 75.5s-36.834 37.167 -60.501 48.5s-49.834 17 -78.501 17s-54.834 -5.83301 -78.501 -17.5s-43.834 -28 -60.501 -49
s-29.5 -46.167 -38.5 -75.5s-13.5 -61.666 -13.5 -96.999s4.5 -67.666 13.5 -96.999s21.833 -54.666 38.5 -75.999s36.834 -37.833 60.501 -49.5s49.834 -17.5 78.501 -17.5z" />
    <glyph glyph-name="A" unicode="A" horiz-adv-x="1293" 
d="M922 349h-556l-118 -349h-225l493 1401h262l492 -1401h-230zM854 551l-210 623l-210 -623h420z" />
    <glyph glyph-name="B" unicode="B" horiz-adv-x="1245" 
d="M924 718c34 -11.333 65.3301 -27 93.9971 -47s53.5 -43.667 74.5 -71s37.333 -58.166 49 -92.499s17.5 -71.833 17.5 -112.5c0 -67.333 -11.333 -125.666 -34 -174.999s-55.167 -90.333 -97.5 -123s-93.666 -57 -153.999 -73s-128.166 -24 -203.499 -24h-515v1400h490
c71.333 0 136.833 -7.5 196.5 -22.5s111 -38 154 -69s76.333 -70.5 100 -118.5s35.5 -105.333 35.5 -172c0 -36.667 -5 -70.834 -15 -102.501s-24.167 -60.334 -42.5 -86.001s-40.166 -48 -65.499 -67s-53.333 -33.833 -84 -44.5zM371.997 1201v-395h269
c36.667 0 71 3 103 9s60 16.5 84 31.5s42.833 35.333 56.5 61s20.5 58.167 20.5 97.5c0 38.667 -7 70.5 -21 95.5s-33 45 -57 60s-52.167 25.5 -84.5 31.5s-66.833 9 -103.5 9h-267zM663.997 199c40 0 76.668 3.33301 110.001 10s61.666 18 84.999 34s41.5 37.167 54.5 63.5
s19.5 59.166 19.5 98.499c0 38.667 -6.5 71.167 -19.5 97.5s-31.333 47.333 -55 63s-52 26.834 -85 33.501s-69.833 10 -110.5 10h-291v-410h292z" />
    <glyph glyph-name="C" unicode="C" horiz-adv-x="1327" 
d="M736 1422c56.667 0 111.001 -6.83496 163.001 -20.502s100.167 -33.167 144.5 -58.5s84.166 -56.5 119.499 -93.5s65 -78.833 89 -125.5l-185 -105c-35.333 60.667 -81.333 107.834 -138 141.501s-121 50.5 -193 50.5c-60 0 -115.333 -11.667 -166 -35
s-94.5 -57 -131.5 -101s-65.833 -97.667 -86.5 -161s-31 -134.666 -31 -213.999c0 -80 10.333 -151.667 31 -215s49.5 -117 86.5 -161s81 -77.5 132 -100.5s106.5 -34.5 166.5 -34.5c70.667 0 134.334 16.5 191.001 49.5s103.334 80.167 140.001 141.5l179 -112
c-25.333 -45.333 -55.5 -85.833 -90.5 -121.5s-74.333 -66 -118 -91s-90.834 -44.167 -141.501 -57.5s-104.334 -20 -161.001 -20c-95.333 0 -182.166 17.167 -260.499 51.5s-145.833 83 -202.5 146s-100.5 139 -131.5 228s-46.5 187.833 -46.5 296.5s15.5 207.5 46.5 296.5
s74.833 165 131.5 228s124.167 111.667 202.5 146s165.166 51.5 260.499 51.5z" />
    <glyph glyph-name="D" unicode="D" horiz-adv-x="1399" 
d="M643 1400c102 0 193.833 -16.333 275.5 -49s151 -79.5 208 -140.5s100.833 -134.667 131.5 -221s46 -182.833 46 -289.5c0 -107.333 -15.333 -204 -46 -290s-74.5 -159.5 -131.5 -220.5s-126.333 -107.833 -208 -140.5s-173.5 -49 -275.5 -49h-488v1400h488zM641 204
c73.333 0 137.333 11.834 192 35.501s100 57.167 136 100.5s63 95.5 81 156.5s27 128.833 27 203.5c0 75.333 -9 143.666 -27 204.999s-45 113.5 -81 156.5s-81.333 76.167 -136 99.5s-118.667 35 -192 35h-269v-992h269z" />
    <glyph glyph-name="E" unicode="E" horiz-adv-x="1179" 
d="M1055 201v-201h-900v1400h894v-201h-677v-393h650v-201h-650v-404h683z" />
    <glyph glyph-name="F" unicode="F" horiz-adv-x="1131" 
d="M372 1198v-394h628v-202h-628v-602h-217v1400h883v-202h-666z" />
    <glyph glyph-name="G" unicode="G" horiz-adv-x="1415" 
d="M739 1422c105.333 0 199.498 -21.334 282.498 -64.001s151.5 -103 205.5 -181l-167 -130c-38 52 -84.167 92.5 -138.5 121.5s-115.833 43.5 -184.5 43.5c-60.667 0 -116.334 -11.5 -167.001 -34.5s-94.5 -56.5 -131.5 -100.5s-65.833 -97.667 -86.5 -161
s-31 -135.333 -31 -216c0 -81.333 10.5 -153.833 31.5 -217.5s50 -117.334 87 -161.001s80.5 -77 130.5 -100s104.333 -34.5 163 -34.5c111.333 0 199.333 32.333 264 97s103.334 159.334 116.001 284.001h-336v196h559c2 -23.333 3 -49.333 3 -78
c0 -105.333 -14.333 -201.5 -43 -288.5s-69.167 -161.5 -121.5 -223.5s-115.666 -110 -189.999 -144s-157.5 -51 -249.5 -51c-86 0 -167.833 15.667 -245.5 47s-145.667 77.5 -204 138.5s-104.666 136.333 -138.999 226s-51.5 192.834 -51.5 309.501
c0 109.333 15.667 208.5 47 297.5s75.5 165 132.5 228s124.833 111.5 203.5 145.5s165.667 51 261 51z" />
    <glyph glyph-name="H" unicode="H" horiz-adv-x="1391" 
d="M1236 1400v-1400h-217v604h-647v-604h-217v1400h217v-593h647v593h217z" />
    <glyph glyph-name="I" unicode="I" horiz-adv-x="527" 
d="M372 0h-217v1400h217v-1400z" />
    <glyph glyph-name="J" unicode="J" horiz-adv-x="1007" 
d="M859 461c0 -78 -11.168 -146.999 -33.501 -206.999s-53.5 -110.333 -93.5 -151s-87.333 -71.5 -142 -92.5s-114 -31.5 -178 -31.5c-48.667 0 -93 5 -133 15s-76 23.333 -108 40s-60 35.334 -84 56.001s-44.667 42 -62 64l128 155c26.667 -34 60.334 -62.5 101.001 -85.5
s89.667 -34.5 147 -34.5c36.667 0 69.667 6 99 18s54.5 30.167 75.5 54.5s37.167 54.666 48.5 90.999s17 79.166 17 128.499v919h218v-939z" />
    <glyph glyph-name="K" unicode="K" horiz-adv-x="1272" 
d="M494 603h-122v-603h-217v1400h217v-594h126l459 594h267l-549 -685l585 -715h-278z" />
    <glyph glyph-name="L" unicode="L" horiz-adv-x="1077" 
d="M1046 203v-203h-891v1400h217v-1197h674z" />
    <glyph glyph-name="M" unicode="M" horiz-adv-x="1675" 
d="M1520 0h-216v1121l-358 -891h-217l-358 884v-1114h-216v1401h315l367 -907l367 907h316v-1401z" />
    <glyph glyph-name="N" unicode="N" horiz-adv-x="1406" 
d="M1251 -1h-204l-676 996v-995h-216v1401h204l676 -999v998h216v-1401z" />
    <glyph glyph-name="O" unicode="O" horiz-adv-x="1477" 
d="M739 1422c96 0 183.333 -17.333 262 -52s146.334 -83.5 203.001 -146.5s100.5 -138.833 131.5 -227.5s46.5 -187.334 46.5 -296.001s-15.5 -207.334 -46.5 -296.001s-74.833 -164.5 -131.5 -227.5s-124.334 -111.833 -203.001 -146.5s-166 -52 -262 -52
s-183.5 17.333 -262.5 52s-146.833 83.5 -203.5 146.5s-100.5 138.833 -131.5 227.5s-46.5 187.334 -46.5 296.001s15.5 207.334 46.5 296.001s74.833 164.5 131.5 227.5s124.5 111.833 203.5 146.5s166.5 52 262.5 52zM739 1211c-61.333 0 -117.5 -11.667 -168.5 -35
s-95 -57 -132 -101s-65.833 -97.667 -86.5 -161s-31 -134.666 -31 -213.999s10.333 -150.666 31 -213.999s49.5 -117 86.5 -161s81 -77.667 132 -101s107.167 -35 168.5 -35c60.667 0 116.5 11.667 167.5 35s95 57 132 101s65.833 97.667 86.5 161s31 134.666 31 213.999
s-10.333 150.666 -31 213.999s-49.5 117 -86.5 161s-81 77.667 -132 101s-106.833 35 -167.5 35z" />
    <glyph glyph-name="P" unicode="P" horiz-adv-x="1190" 
d="M637 1400c75.333 0 142.667 -9.83398 202 -29.501s109.333 -48 150 -85s71.667 -82.167 93 -135.5s32 -113.666 32 -180.999c0 -66.667 -10.667 -126.5 -32 -179.5s-52.333 -98 -93 -135s-90.5 -65.333 -149.5 -85s-126.167 -29.5 -201.5 -29.5h-266v-540h-217v1400h482z
M634.001 740.999c82.667 0 146 18.6689 190 56.002s66 94.666 66 171.999s-22 134.666 -66 171.999s-107.667 56 -191 56h-261v-456h262z" />
    <glyph glyph-name="Q" unicode="Q" horiz-adv-x="1482" 
d="M1192 0l-70 101c-52 -40 -110.167 -70.667 -174.5 -92s-133.833 -32 -208.5 -32c-96 0 -183.5 17.333 -262.5 52s-146.833 83.5 -203.5 146.5s-100.5 139 -131.5 228s-46.5 187.833 -46.5 296.5s15.5 207.5 46.5 296.5s74.833 165 131.5 228s124.5 111.833 203.5 146.5
s166.5 52 262.5 52s183.333 -17.333 262 -52s146.334 -83.5 203.001 -146.5s100.5 -139 131.5 -228s46.5 -187.833 46.5 -296.5c0 -90 -10.333 -172.5 -31 -247.5s-50.334 -142.167 -89.001 -201.5l167 -251h-237zM321 700c0 -80 10.3311 -151.668 30.998 -215.001
s49.5 -117 86.5 -161s81 -77.667 132 -101s107.167 -35 168.5 -35c50.667 0 97.834 8 141.501 24s82.834 39.667 117.501 71l-261 380h250l131 -199c25.333 68.667 38 147.334 38 236.001c0 80 -10.333 151.667 -31 215s-49.5 117 -86.5 161s-81 77.667 -132 101
s-106.833 35 -167.5 35c-61.333 0 -117.5 -11.667 -168.5 -35s-95 -57 -132 -101s-65.833 -97.667 -86.5 -161s-31 -135 -31 -215z" />
    <glyph glyph-name="R" unicode="R" horiz-adv-x="1219" 
d="M477 581h-104.999v-581h-217v1400h501c75.333 0 142.5 -9.16699 201.5 -27.5s108.667 -45 149 -80s71 -78 92 -129s31.5 -109.5 31.5 -175.5c0 -58 -9.5 -110.667 -28.5 -158s-46.333 -88.5 -82 -123.5s-78.834 -63 -129.501 -84s-107.667 -34.167 -171 -39.5l416 -583
h-260zM372.001 774l282.001 0.000976562c82 0 144.5 17.667 187.5 53s64.5 89 64.5 161c0 71.333 -21.833 124.166 -65.5 158.499s-105.834 51.5 -186.501 51.5h-282v-424z" />
    <glyph glyph-name="S" unicode="S" horiz-adv-x="1209" 
d="M976 1096c-47.333 36 -99.498 64.4951 -156.498 85.4951s-118.833 31.5 -185.5 31.5c-40 0 -76.833 -4.66699 -110.5 -14s-62.667 -22.666 -87 -39.999s-43.166 -38.333 -56.499 -63s-20 -52.667 -20 -84c0 -53.333 21.667 -95 65 -125s107.666 -53.667 192.999 -71
l104 -22c56 -12 108.167 -28.167 156.5 -48.5s90 -46.166 125 -77.499s62.5 -68.666 82.5 -111.999s30 -93.666 30 -150.999c0 -68.667 -13.333 -129.5 -40 -182.5s-63.334 -97.5 -110.001 -133.5s-101.167 -63.333 -163.5 -82s-129.166 -28 -200.499 -28
c-48.667 0 -96.834 4.5 -144.501 13.5s-93.5 21.667 -137.5 38s-85.167 36.333 -123.5 60s-72.833 50.5 -103.5 80.5l133 160c20.667 -20 44.667 -38.833 72 -56.5s57.166 -33 89.499 -46s66.5 -23.333 102.5 -31s72.667 -11.5 110 -11.5c40.667 0 78.667 4.5 114 13.5
s66 22.167 92 39.5s46.333 38.5 61 63.5s22 53.5 22 85.5c0 54 -22 96.333 -66 127s-109.667 55 -197 73l-113 23c-56.667 12 -108.334 28.833 -155.001 50.5s-86.5 48.667 -119.5 81s-58.667 70 -77 113s-27.5 92.167 -27.5 147.5c0 64.667 12.833 122.834 38.5 174.501
s60.834 95.5 105.501 131.5s97.5 63.5 158.5 82.5s126.833 28.5 197.5 28.5c95.333 0 181 -14 257 -42s145.667 -67 209 -117z" />
    <glyph glyph-name="T" unicode="T" horiz-adv-x="1087" 
d="M1056 1197h-404v-1197h-217v1197h-404v203h1025v-203z" />
    <glyph glyph-name="U" unicode="U" horiz-adv-x="1347" 
d="M1207 506c0 -86 -13.1709 -161.667 -39.5039 -227s-63.166 -120.333 -110.499 -165s-103.5 -78.334 -168.5 -101.001s-136.5 -34 -214.5 -34s-149.667 11.333 -215 34s-121.666 56.334 -168.999 101.001s-84.166 99.667 -110.499 165s-39.5 141 -39.5 227v894h217v-880
c0 -57.333 7.83301 -106.833 23.5 -148.5s37.5 -76 65.5 -103s61.333 -47 100 -60s81.334 -19.5 128.001 -19.5c46 0 88.333 6.5 127 19.5s72 33 100 60s49.833 61.333 65.5 103s23.5 91.167 23.5 148.5v880h217v-894z" />
    <glyph glyph-name="V" unicode="V" horiz-adv-x="1277" 
d="M1254 1400l-483 -1401h-265l-483 1401h230l388 -1166l388 1166h225z" />
    <glyph glyph-name="W" unicode="W" horiz-adv-x="1968" 
d="M1931 1400l-387 -1401h-264l-296 1076l-297 -1076h-264l-386 1401h227l296 -1134l307 1135h237l307 -1136l297 1135h223z" />
    <glyph glyph-name="X" unicode="X" horiz-adv-x="1222" 
d="M931 0l-322 546l-323 -546h-246l435 713l-420 687h250l308 -522l308 522h247l-421 -687l435 -713h-251z" />
    <glyph glyph-name="Y" unicode="Y" horiz-adv-x="1200" 
d="M711 553v-553h-217v556l-487 844h252l345 -608l344 608h245z" />
    <glyph glyph-name="Z" unicode="Z" horiz-adv-x="1155" 
d="M1061 1231l-694 -1029h695v-202h-969v169l695 1029h-690v202h963v-169z" />
    <glyph glyph-name="bracketleft" unicode="[" horiz-adv-x="677" 
d="M359 1214v-1291h256v-186h-460v1663h460v-186h-256z" />
    <glyph glyph-name="backslash" unicode="\" horiz-adv-x="930" 
d="M-27 1540h215l764 -1740h-215z" />
    <glyph glyph-name="bracketright" unicode="]" horiz-adv-x="677" 
d="M522 -263h-460v186h256v1291h-256v186h460v-1663z" />
    <glyph glyph-name="asciicircum" unicode="^" horiz-adv-x="1092" 
d="M751 714l-207 485l-207 -485h-198l318 686h178l318 -686h-202z" />
    <glyph glyph-name="underscore" unicode="_" horiz-adv-x="841" 
d="M846 -298h-851v181h851v-181z" />
    <glyph glyph-name="grave" unicode="`" horiz-adv-x="829" 
d="M204 1406h239l186 -308h-190z" />
    <glyph glyph-name="a" unicode="a" horiz-adv-x="1107" 
d="M972 962v-962.004h-200v135c-30 -47.333 -67.5 -85.166 -112.5 -113.499s-99.833 -42.5 -164.5 -42.5c-60 0 -115.5 12.167 -166.5 36.5s-95 58.5 -132 102.5s-66 96.833 -87 158.5s-31.5 129.834 -31.5 204.501s10.5 142.834 31.5 204.501s50 114.5 87 158.5
s81 78.167 132 102.5s106.5 36.5 166.5 36.5c64.667 0 119.5 -14.167 164.5 -42.5s82.5 -66.166 112.5 -113.499v135h200zM533 171.996c36.667 0 70.334 7.33105 101.001 21.998s56.667 35.334 78 62.001s38 59 50 97s18 80.667 18 128c0 46.667 -6 89.167 -18 127.5
s-28.667 70.833 -50 97.5s-47.333 47.334 -78 62.001s-64.334 22 -101.001 22c-38 0 -72.167 -7.5 -102.5 -22.5s-56.333 -36 -78 -63s-38.167 -59.5 -49.5 -97.5s-17 -80 -17 -126s5.66699 -88 17 -126s27.833 -70.5 49.5 -97.5s47.667 -48 78 -63s64.5 -22.5 102.5 -22.5z
" />
    <glyph glyph-name="b" unicode="b" horiz-adv-x="1107" 
d="M611 983c60 0 115.5 -12.165 166.5 -36.498s95.167 -58.5 132.5 -102.5s66.5 -96.833 87.5 -158.5s31.5 -129.834 31.5 -204.501s-10.5 -142.834 -31.5 -204.501s-50.167 -114.5 -87.5 -158.5s-81.5 -78.167 -132.5 -102.5s-106.5 -36.5 -166.5 -36.5
c-64 0 -118.5 14.167 -163.5 42.5s-82.5 65.5 -112.5 111.5v-133h-200v1440h204v-605c30 44.667 67.167 80.5 111.5 107.5s97.833 40.5 160.5 40.5zM574 172.002c38 0 72.167 7.50195 102.5 22.502s56.333 36 78 63s38.167 59.5 49.5 97.5s17 80 17 126s-5.66699 88 -17 126
s-27.833 70.5 -49.5 97.5s-47.667 48 -78 63s-64.5 22.5 -102.5 22.5c-37.333 0 -71.166 -7.33301 -101.499 -22s-56.333 -35.334 -78 -62.001s-38.5 -59.167 -50.5 -97.5s-18 -80.833 -18 -127.5c0 -47.333 6 -90 18 -128s28.833 -70.333 50.5 -97
s47.667 -47.334 78 -62.001s64.166 -22 101.499 -22z" />
    <glyph glyph-name="c" unicode="c" horiz-adv-x="911" 
d="M531 983c67.333 0 129.501 -13.1689 186.501 -39.502s104.5 -64.5 142.5 -114.5l-133 -129c-28 28.667 -57.833 51 -89.5 67s-67.5 24 -107.5 24c-35.333 0 -68 -7 -98 -21s-56 -34.333 -78 -61s-39.167 -59.167 -51.5 -97.5s-18.5 -81.833 -18.5 -130.5
s6.16699 -92.167 18.5 -130.5s29.5 -70.833 51.5 -97.5s48 -47 78 -61s62.333 -21 97 -21c40 0 77 8.5 111 25.5s64 39.167 90 66.5l130 -130c-38.667 -50 -86.334 -88.167 -143.001 -114.5s-118.667 -39.5 -186 -39.5c-68 0 -130 12.167 -186 36.5
s-103.667 58.5 -143 102.5s-69.833 96.833 -91.5 158.5s-32.5 129.834 -32.5 204.501s10.833 142.834 32.5 204.501s52.167 114.5 91.5 158.5s87 78.167 143 102.5s118 36.5 186 36.5z" />
    <glyph glyph-name="d" unicode="d" horiz-adv-x="1107" 
d="M972 1440v-1440h-200v135c-30 -47.333 -67.5 -85.166 -112.5 -113.499s-99.833 -42.5 -164.5 -42.5c-60 0 -115.5 12.167 -166.5 36.5s-95 58.5 -132 102.5s-66 96.833 -87 158.5s-31.5 129.834 -31.5 204.501s10.5 142.834 31.5 204.501s50 114.5 87 158.5
s81 78.167 132 102.5s106.5 36.5 166.5 36.5c63.333 0 117.333 -13.667 162 -41s82 -64 112 -110v608h203zM533 171.997c36.667 0 70.334 7.33105 101.001 21.998s56.667 35.334 78 62.001s38 59 50 97s18 80.667 18 128c0 46.667 -6 89.167 -18 127.5
s-28.667 70.833 -50 97.5s-47.333 47.334 -78 62.001s-64.334 22 -101.001 22c-38 0 -72.167 -7.5 -102.5 -22.5s-56.333 -36 -78 -63s-38.167 -59.5 -49.5 -97.5s-17 -80 -17 -126s5.66699 -88 17 -126s27.833 -70.5 49.5 -97.5s47.667 -48 78 -63s64.5 -22.5 102.5 -22.5z
" />
    <glyph glyph-name="e" unicode="e" horiz-adv-x="1009" 
d="M931 483c0 -12.667 -0.329102 -25.165 -0.996094 -37.498s-1.66699 -24.166 -3 -35.499h-641c5.33301 -43.333 15.666 -80.833 30.999 -112.5s34.333 -57.834 57 -78.501s48.334 -35.834 77.001 -45.501s59.667 -14.5 93 -14.5c46 0 90.167 8.5 132.5 25.5
s80.5 40.5 114.5 70.5l103 -142c-52.667 -48.667 -109.5 -83.167 -170.5 -103.5s-125.5 -30.5 -193.5 -30.5c-67.333 0 -128.833 11.667 -184.5 35s-103.334 56.666 -143.001 99.999s-70.334 95.833 -92.001 157.5s-32.5 131.167 -32.5 208.5c0 76.667 10.5 146 31.5 208
s50.833 114.833 89.5 158.5s84.667 77.334 138 101.001s112.666 35.5 177.999 35.5c62 0 118.5 -11.667 169.5 -35s94.667 -56.833 131 -100.5s64.666 -96.334 84.999 -158.001s30.5 -130.5 30.5 -206.5zM728.004 561.002c-9.33301 76.667 -32.667 135.832 -70 177.499
s-86 62.5 -146 62.5c-64.667 0 -116 -21.167 -154 -63.5s-61.667 -101.166 -71 -176.499h441z" />
    <glyph glyph-name="f" unicode="f" horiz-adv-x="771" 
d="M418 962h298.001v-185h-298v-777h-202v777h-176v185h176v155c0 51.333 6.5 98.166 19.5 140.499s32.167 78.5 57.5 108.5s57.166 53.333 95.499 70s82.833 25 133.5 25c54 0 101.333 -6.66699 142 -20s76.667 -29.666 108 -48.999l-71 -167
c-22 12.667 -46.167 23.167 -72.5 31.5s-53.833 12.5 -82.5 12.5c-43.333 0 -75.5 -13 -96.5 -39s-31.5 -64 -31.5 -114v-154z" />
    <glyph glyph-name="g" unicode="g" horiz-adv-x="1096" 
d="M961 962l-0.000976562 -900.999c0 -73.333 -11 -138.333 -33 -195s-53.333 -104.5 -94 -143.5s-89.334 -68.667 -146.001 -89s-120 -30.5 -190 -30.5c-71.333 0 -139.5 9.83301 -204.5 29.5s-119.833 47.834 -164.5 84.501l81 165
c39.333 -28.667 82.5 -51.334 129.5 -68.001s97.5 -25 151.5 -25c40.667 0 77.5 5.66699 110.5 17s61.167 28.166 84.5 50.499s41.5 49.833 54.5 82.5s19.5 70.667 19.5 114v110c-30.667 -47.333 -69.5 -84.333 -116.5 -111s-102.833 -40 -167.5 -40
c-53.333 0 -104.166 11.167 -152.499 33.5s-90.666 54.5 -126.999 96.5s-65.166 93 -86.499 153s-32 127.667 -32 203c0 74.667 10.667 142 32 202s50.166 111 86.499 153s78.666 74.167 126.999 96.5s99.166 33.5 152.499 33.5c64.667 0 120.834 -13.667 168.501 -41
s86.834 -65.333 117.501 -114v134h199zM528.999 204.001c36.667 0 70 7 100 21s55.667 33.833 77 59.5s37.833 56.5 49.5 92.5s17.5 76 17.5 120s-5.83301 84.167 -17.5 120.5s-28.167 67.333 -49.5 93s-47 45.5 -77 59.5s-63.333 21 -100 21
c-37.333 0 -71 -7.16699 -101 -21.5s-55.5 -34.5 -76.5 -60.5s-37.167 -57 -48.5 -93s-17 -75.667 -17 -119s5.66699 -82.833 17 -118.5s27.5 -66.5 48.5 -92.5s46.5 -46.167 76.5 -60.5s63.667 -21.5 101 -21.5z" />
    <glyph glyph-name="h" unicode="h" horiz-adv-x="1077" 
d="M608 983c50.667 0 97 -8.33301 139 -25s78 -40.167 108 -70.5s53.333 -67 70 -110s25 -90.833 25 -143.5v-634h-204v573c0 70.667 -17.333 124.5 -52 161.5s-82.667 55.5 -144 55.5c-29.333 0 -56.833 -4.83301 -82.5 -14.5s-48 -24 -67 -43s-34 -42.167 -45 -69.5
s-16.5 -58.333 -16.5 -93v-570h-204v1440h204v-598c16 26 34.333 48 55 66s42.667 32.5 66 43.5s47.5 19 72.5 24s50.167 7.5 75.5 7.5z" />
    <glyph glyph-name="i" unicode="i" horiz-adv-x="472" 
d="M337 0h-202v962h202v-962zM235 1424c18.667 0 36.167 -3.49805 52.5 -10.498s30.5 -16.5 42.5 -28.5s21.5 -26.333 28.5 -43s10.5 -34.334 10.5 -53.001c0 -19.333 -3.5 -37 -10.5 -53s-16.5 -30 -28.5 -42s-26.167 -21.333 -42.5 -28s-33.833 -10 -52.5 -10
c-19.333 0 -37 3.33301 -53 10s-30 16 -42 28s-21.333 26.167 -28 42.5s-10 34.166 -10 53.499c0 18.667 3.33301 36.167 10 52.5s16 30.5 28 42.5s26 21.5 42 28.5s33.667 10.5 53 10.5z" />
    <glyph glyph-name="j" unicode="j" horiz-adv-x="475" 
d="M340 -119c0 -45.333 -6.00098 -85.3311 -18.001 -119.998s-29 -63.834 -51 -87.501s-48.167 -41.5 -78.5 -53.5s-63.833 -18 -100.5 -18c-26 0 -51.667 2.66699 -77 8s-47 12.333 -65 21l40 178c10 -4.66699 20.833 -8.33398 32.5 -11.001s23.834 -4 36.501 -4
c23.333 0 42.333 7.66699 57 23s22 41 22 77v1068h202v-1081zM236.999 1424c18.667 0 36.167 -3.49805 52.5 -10.498s30.5 -16.5 42.5 -28.5s21.5 -26.333 28.5 -43s10.5 -34.334 10.5 -53.001c0 -19.333 -3.5 -37 -10.5 -53s-16.5 -30 -28.5 -42s-26.167 -21.333 -42.5 -28
s-33.833 -10 -52.5 -10c-19.333 0 -37 3.33301 -53 10s-30 16 -42 28s-21.333 26.167 -28 42.5s-10 34.166 -10 53.499c0 18.667 3.33301 36.167 10 52.5s16 30.5 28 42.5s26 21.5 42 28.5s33.667 10.5 53 10.5z" />
    <glyph glyph-name="k" unicode="k" horiz-adv-x="982" 
d="M432 408h-95v-408h-202v1440h202v-843h97l276 365h245l-357 -455l362 -507h-246z" />
    <glyph glyph-name="l" unicode="l" horiz-adv-x="472" 
d="M337 0h-202v1440h202v-1440z" />
    <glyph glyph-name="m" unicode="m" horiz-adv-x="1686" 
d="M1215 983c51.333 0 98.168 -8.33301 140.501 -25s78.666 -40.167 108.999 -70.5s53.833 -67 70.5 -110s25 -90.833 25 -143.5v-634h-203v573c0 70.667 -17.5 124.5 -52.5 161.5s-83.167 55.5 -144.5 55.5c-29.333 0 -56.666 -4.83301 -81.999 -14.5s-47.5 -24 -66.5 -43
s-34 -42.167 -45 -69.5s-16.5 -58.333 -16.5 -93v-570h-204v573c0 70.667 -17.333 124.5 -52 161.5s-82.667 55.5 -144 55.5c-29.333 0 -56.833 -4.83301 -82.5 -14.5s-48 -24 -67 -43s-34 -42.167 -45 -69.5s-16.5 -58.333 -16.5 -93v-570h-204v962h199v-128
c16 28 34.5 51.5 55.5 70.5s43.333 34.333 67 46s48.334 20 74.001 25s51.5 7.5 77.5 7.5c68 0 127.667 -14.5 179 -43.5s91 -69.5 119 -121.5c17.333 30.667 37.666 56.5 60.999 77.5s48.5 38 75.5 51s55.167 22.333 84.5 28s58.666 8.5 87.999 8.5z" />
    <glyph glyph-name="n" unicode="n" horiz-adv-x="1076" 
d="M608 983c50.667 0 96.832 -8.33301 138.499 -25s77.5 -40.167 107.5 -70.5s53.333 -67 70 -110s25 -90.833 25 -143.5v-634h-203v573c0 70.667 -17.333 124.5 -52 161.5s-83 55.5 -145 55.5c-29.333 0 -56.666 -4.83301 -81.999 -14.5s-47.5 -24 -66.5 -43
s-34 -42.167 -45 -69.5s-16.5 -58.333 -16.5 -93v-570h-204v962h198v-130c16 28 34.5 51.667 55.5 71s43.5 34.833 67.5 46.5s48.833 20.167 74.5 25.5s51.5 8 77.5 8z" />
    <glyph glyph-name="o" unicode="o" horiz-adv-x="1078" 
d="M539 983c67.333 0 129.333 -12.167 186 -36.5s105.334 -58.5 146.001 -102.5s72.334 -96.833 95.001 -158.5s34 -129.834 34 -204.501s-11.333 -142.834 -34 -204.501s-54.334 -114.5 -95.001 -158.5s-89.334 -78.167 -146.001 -102.5s-118.667 -36.5 -186 -36.5
s-129.333 12.167 -186 36.5s-105.334 58.5 -146.001 102.5s-72.334 96.833 -95.001 158.5s-34 129.834 -34 204.501s11.333 142.834 34 204.501s54.334 114.5 95.001 158.5s89.334 78.167 146.001 102.5s118.667 36.5 186 36.5zM539 791
c-37.333 0 -71.5 -7.16699 -102.5 -21.5s-57.833 -35 -80.5 -62s-40.334 -59.5 -53.001 -97.5s-19 -81 -19 -129s6.33301 -91.167 19 -129.5s30.334 -70.833 53.001 -97.5s49.5 -47.167 80.5 -61.5s65.167 -21.5 102.5 -21.5c36.667 0 70.667 7.16699 102 21.5
s58.5 34.833 81.5 61.5s40.833 59.167 53.5 97.5s19 81.5 19 129.5s-6.33301 91 -19 129s-30.5 70.5 -53.5 97.5s-50.167 47.667 -81.5 62s-65.333 21.5 -102 21.5z" />
    <glyph glyph-name="p" unicode="p" horiz-adv-x="1107" 
d="M611 983c60 0 115.5 -12.165 166.5 -36.498s95.167 -58.5 132.5 -102.5s66.5 -96.833 87.5 -158.5s31.5 -129.834 31.5 -204.501s-10.5 -142.834 -31.5 -204.501s-50.167 -114.5 -87.5 -158.5s-81.5 -78.167 -132.5 -102.5s-106.5 -36.5 -166.5 -36.5
c-62.667 0 -116.167 13.5 -160.5 40.5s-81.5 62.833 -111.5 107.5v-511h-204v1346h200v-133c30 46 67.5 83.167 112.5 111.5s99.5 42.5 163.5 42.5zM574 172.002c38 0 72.167 7.50195 102.5 22.502s56.333 36 78 63s38.167 59.5 49.5 97.5s17 80 17 126s-5.66699 88 -17 126
s-27.833 70.5 -49.5 97.5s-47.667 48 -78 63s-64.5 22.5 -102.5 22.5c-37.333 0 -71.166 -7.33301 -101.499 -22s-56.333 -35.334 -78 -62.001s-38.5 -59.167 -50.5 -97.5s-18 -80.833 -18 -127.5c0 -47.333 6 -90 18 -128s28.833 -70.333 50.5 -97
s47.667 -47.334 78 -62.001s64.166 -22 101.499 -22z" />
    <glyph glyph-name="q" unicode="q" horiz-adv-x="1107" 
d="M972 962v-1346h-203v514c-30 -46 -67.333 -82.667 -112 -110s-98.667 -41 -162 -41c-60 0 -115.5 12.167 -166.5 36.5s-95 58.5 -132 102.5s-66 96.833 -87 158.5s-31.5 129.834 -31.5 204.501s10.5 142.834 31.5 204.501s50 114.5 87 158.5s81 78.167 132 102.5
s106.5 36.5 166.5 36.5c64.667 0 119.5 -14.167 164.5 -42.5s82.5 -66.166 112.5 -113.499v135h200zM533 171.997c36.667 0 70.334 7.33105 101.001 21.998s56.667 35.334 78 62.001s38 59 50 97s18 80.667 18 128c0 46.667 -6 89.167 -18 127.5s-28.667 70.833 -50 97.5
s-47.333 47.334 -78 62.001s-64.334 22 -101.001 22c-38 0 -72.167 -7.5 -102.5 -22.5s-56.333 -36 -78 -63s-38.167 -59.5 -49.5 -97.5s-17 -80 -17 -126s5.66699 -88 17 -126s27.833 -70.5 49.5 -97.5s47.667 -48 78 -63s64.5 -22.5 102.5 -22.5z" />
    <glyph glyph-name="r" unicode="r" horiz-adv-x="756" 
d="M583 983c25.333 0 49.0029 -1.83105 71.0029 -5.49805s42.667 -9.83398 62 -18.501l-35 -208c-20 9.33301 -42.5 16.666 -67.5 21.999s-49.167 8 -72.5 8c-30.667 0 -58.334 -5.33301 -83.001 -16s-45.834 -26.334 -63.501 -47.001s-31.334 -45.667 -41.001 -75
s-14.5 -62.333 -14.5 -99v-544h-204v962h198v-123c27.333 48.667 62 84.834 104 108.501s90.667 35.5 146 35.5z" />
    <glyph glyph-name="s" unicode="s" horiz-adv-x="903" 
d="M732 729c-14.667 9.33301 -31.668 18.5029 -51.001 27.5029s-40.333 17 -63 24s-46.5 12.667 -71.5 17s-50.167 6.5 -75.5 6.5c-52 0 -92.667 -10.167 -122 -30.5s-44 -47.833 -44 -82.5c0 -33.333 13.667 -58.166 41 -74.499s66.333 -29.166 117 -38.499l86 -15
c93.333 -16.667 164.5 -47.834 213.5 -93.501s73.5 -106.834 73.5 -183.501c0 -46 -9.16699 -87.833 -27.5 -125.5s-44.833 -69.834 -79.5 -96.501s-76.5 -47.334 -125.5 -62.001s-103.833 -22 -164.5 -22c-30 0 -61.167 2 -93.5 6s-64.5 10.5 -96.5 19.5
s-63.5 20.667 -94.5 35s-60.167 32.166 -87.5 53.499l91 154c16 -12.667 33.5 -24.5 52.5 -35.5s39.833 -20.667 62.5 -29s47.5 -14.833 74.5 -19.5s56.5 -7 88.5 -7c61.333 0 109 10.167 143 30.5s51 49.166 51 86.499c0 28.667 -12.333 52.667 -37 72
s-65.334 34 -122.001 44l-87 15c-98 16.667 -170 49.667 -216 99s-69 110 -69 182c0 46 8.66699 87.167 26 123.5s42 67.333 74 93s70.5 45.334 115.5 59.001s95.167 20.5 150.5 20.5c68.667 0 132.334 -8.5 191.001 -25.5s111.334 -40.5 158.001 -70.5z" />
    <glyph glyph-name="t" unicode="t" horiz-adv-x="819" 
d="M797 63c-34 -24 -73.001 -44.002 -117.001 -60.002s-94 -24 -150 -24c-49.333 0 -93.666 7 -132.999 21s-72.5 35.167 -99.5 63.5s-47.667 64 -62 107s-21.5 93.5 -21.5 151.5v455h-173v185h173v278h202v-278h329v-185h-329v-443c0 -29.333 3.66699 -54.166 11 -74.499
s17.333 -37.166 30 -50.499s27.667 -23 45 -29s36.333 -9 57 -9c30 0 59.333 5.33301 88 16s54.667 24 78 40z" />
    <glyph glyph-name="u" unicode="u" horiz-adv-x="1063" 
d="M936 382c0 -70 -10.832 -130.333 -32.499 -181s-51 -92.5 -88 -125.5s-80 -57.333 -129 -73s-100.833 -23.5 -155.5 -23.5s-106.334 7.83301 -155.001 23.5s-91.5 40 -128.5 73s-66.333 74.833 -88 125.5s-32.5 111 -32.5 181v580h202v-565c0 -40 5 -74.333 15 -103
s24 -52 42 -70s39.333 -31.333 64 -40s51.667 -13 81 -13s56.333 4.33301 81 13s46 22 64 40s32.167 41.333 42.5 70s15.5 63 15.5 103v565h202v-580z" />
    <glyph glyph-name="v" unicode="v" horiz-adv-x="964" 
d="M945 962l-345 -963h-233l-348 963h215l251 -744l251 744h209z" />
    <glyph glyph-name="w" unicode="w" horiz-adv-x="1543" 
d="M1515 962l-299 -962h-231l-215 712l-215 -712h-228l-299 962h212l209 -727l219 727h207l221 -729l210 729h209z" />
    <glyph glyph-name="x" unicode="x" horiz-adv-x="959" 
d="M693 0l-219 340l-215 -340h-232l320 491l-311 471h239l209 -331l208 331h233l-311 -473l318 -489h-239z" />
    <glyph glyph-name="y" unicode="y" horiz-adv-x="990" 
d="M980 962l-660 -1346h-218l291 571l-380 775h222l266 -563l261 563h218z" />
    <glyph glyph-name="z" unicode="z" horiz-adv-x="940" 
d="M838 808l-482 -623h490v-185h-752v152l490 626h-474v184h728v-154z" />
    <glyph glyph-name="braceleft" unicode="{" horiz-adv-x="784" 
d="M669 1221c-27.333 0 -52.1611 -4.16504 -74.4941 -12.498s-41.333 -20.833 -57 -37.5s-27.334 -37.5 -35.001 -62.5s-10.834 -53.833 -9.50098 -86.5l6 -141c3.33301 -78 -10.334 -143.333 -41.001 -196s-80.334 -91.334 -149.001 -116.001
c68.667 -24.667 118.167 -63.334 148.5 -116.001s43.833 -118 40.5 -196l-5 -141c-1.33301 -33.333 2 -62.333 10 -87s19.667 -45.5 35 -62.5s34.166 -29.667 56.499 -38s47.166 -12.5 74.499 -12.5h53v-178h-73c-60.667 0 -114 9 -160 27s-84.333 43.833 -115 77.5
s-53.334 74.667 -68.001 123s-20.667 103.166 -18 164.499l6 146c2.66699 66.667 -14.166 117.167 -50.499 151.5s-86.5 51.5 -150.5 51.5v180c64 0 114.167 17 150.5 51s53.166 84.667 50.499 152l-6 145c-2.66699 61.333 3.33301 116.333 18 165
s37.334 89.834 68.001 123.501s69 59.5 115 77.5s99.333 27 160 27h73v-179h-53z" />
    <glyph glyph-name="bar" unicode="|" horiz-adv-x="632" 
d="M415 -265h-198v1665h198v-1665z" />
    <glyph glyph-name="braceright" unicode="}" horiz-adv-x="784" 
d="M115 -83c27.333 0 52.1611 4.16797 74.4941 12.501s41.333 20.833 57 37.5s27.334 37.5 35.001 62.5s10.834 53.833 9.50098 86.5l-6 141c-3.33301 78 10.334 143.333 41.001 196s80.334 91.334 149.001 116.001c-68.667 24.667 -118.167 63.334 -148.5 116.001
s-43.833 118 -40.5 196l5 141c1.33301 32.667 -2 61.5 -10 86.5s-19.667 46 -35 63s-34.166 29.667 -56.499 38s-47.166 12.5 -74.499 12.5h-53v178h73c60.667 0 114 -9 160 -27s84.333 -43.833 115 -77.5s53.334 -74.834 68.001 -123.501s20.667 -103.334 18 -164.001
l-6 -146c-2.66699 -67.333 14.166 -118 50.499 -152s86.5 -51 150.5 -51v-180c-64 0 -114.167 -17.167 -150.5 -51.5s-53.166 -84.833 -50.499 -151.5l6 -145c2.66699 -61.333 -3.33301 -116.333 -18 -165s-37.334 -89.834 -68.001 -123.501s-69 -59.5 -115 -77.5
s-99.333 -27 -160 -27h-73v179h53z" />
    <glyph glyph-name="asciitilde" unicode="~" horiz-adv-x="1092" 
d="M961 538c-34.667 -46 -72.502 -79.833 -113.502 -101.5s-88.5 -32.5 -142.5 -32.5c-40 0 -74 4 -102 12s-53.667 17 -77 27s-46.166 19 -68.499 27s-48.166 12 -77.499 12c-24 0 -47 -6.16699 -69 -18.5s-45 -31.166 -69 -56.499l-112 117
c34.667 46 72.5 79.667 113.5 101s88.5 32 142.5 32c40.667 0 75 -4 103 -12s53.5 -16.833 76.5 -26.5s45.667 -18.5 68 -26.5s48.166 -12 77.499 -12c24.667 0 47.834 6.16699 69.501 18.5s44.5 31.166 68.5 56.499z" />
    <glyph glyph-name="uni00A0" unicode="&#xa0;" horiz-adv-x="457" 
 />
    <glyph glyph-name="exclamdown" unicode="&#xa1;" horiz-adv-x="498" 
d="M249 681c-20.667 0 -40 4 -58 12s-33.833 18.833 -47.5 32.5s-24.5 29.667 -32.5 48s-12 37.833 -12 58.5s4 40.167 12 58.5s18.833 34.333 32.5 48s29.5 24.5 47.5 32.5s37.333 12 58 12s40.167 -4 58.5 -12s34.333 -19 48 -33s24.5 -30.167 32.5 -48.5
s12 -37.833 12 -58.5s-4 -40 -12 -58s-18.833 -33.833 -32.5 -47.5s-29.667 -24.5 -48 -32.5s-37.833 -12 -58.5 -12zM161 505h177l28 -942h-233z" />
    <glyph glyph-name="cent" unicode="&#xa2;" horiz-adv-x="1253" 
d="M762 393c30 6.66699 57.834 17.1748 83.501 31.5078s49.167 31.833 70.5 52.5l118 -135c-34 -38.667 -73.667 -69.834 -119 -93.501s-96.333 -38.834 -153 -45.501v-203h-175v210c-55.333 11.333 -105.333 31.166 -150 59.499s-82.667 63.666 -114 105.999
s-55.333 91 -72 146s-25 114.5 -25 178.5s8.33301 123.5 25 178.5s40.667 103.667 72 146s69.333 77.666 114 105.999s94.667 48.166 150 59.499v210h175v-203c56.667 -6.66699 107.834 -21.834 153.501 -45.501s85.167 -54.834 118.5 -93.501l-121 -134
c-22.667 21.333 -46.334 39 -71.001 53s-51.334 24 -80.001 30v-614zM426.001 700.008c0 -73.333 14.667 -135 44 -185s68.333 -85.667 117 -107v584c-48.667 -21.333 -87.667 -57 -117 -107s-44 -111.667 -44 -185z" />
    <glyph glyph-name="sterling" unicode="&#xa3;" horiz-adv-x="1253" 
d="M521 199l572.001 -0.000976562v-199h-934v199h153v412h-152v179h152v146c0 80.667 11.667 151.334 35 212.001s55.166 111.167 95.499 151.5s87.5 70.5 141.5 90.5s112 30 174 30c66.667 0 129 -11.167 187 -33.5s107.667 -55.833 149 -100.5l-126 -153
c-52.667 56.667 -120 85 -202 85c-35.333 0 -68 -5.66699 -98 -17s-55.833 -29 -77.5 -53s-38.667 -54.667 -51 -92s-18.5 -82 -18.5 -134v-132h432v-179h-432v-412z" />
    <glyph glyph-name="currency" unicode="&#xa4;" horiz-adv-x="1253" 
d="M1045 700c0 -46 -6.16797 -89.501 -18.501 -130.501s-30.166 -78.833 -53.499 -113.5l136 -137l-114 -116l-134 137c-34 -22.667 -70.333 -40.334 -109 -53.001s-80 -19 -124 -19s-85.5 6.33301 -124.5 19s-75.167 30.334 -108.5 53.001l-135 -137l-114 116l136 137
c-23.333 34.667 -41.166 72.5 -53.499 113.5s-18.5 84.5 -18.5 130.5c0 45.333 6.16699 88.5 18.5 129.5s29.833 78.833 52.5 113.5l-136 138l114 115l136 -137c33.333 22.667 69.5 40.334 108.5 53.001s80.5 19 124.5 19c43.333 0 84.5 -6.16699 123.5 -18.5
s75.167 -29.833 108.5 -52.5l134 136l115 -115l-136 -137c23.333 -35.333 41.166 -73.333 53.499 -114s18.5 -84 18.5 -130zM371.999 699.999c0 -38 6.5 -73.5 19.5 -106.5s31 -61.667 54 -86s50 -43.5 81 -57.5s64.833 -21 101.5 -21c36 0 69.5 7 100.5 21
s58 33.167 81 57.5s41.167 53 54.5 86s20 68.5 20 106.5s-6.66699 73.333 -20 106s-31.5 61.167 -54.5 85.5s-50 43.5 -81 57.5s-64.5 21 -100.5 21c-36.667 0 -70.5 -7 -101.5 -21s-58 -33.167 -81 -57.5s-41 -52.833 -54 -85.5s-19.5 -68 -19.5 -106z" />
    <glyph glyph-name="yen" unicode="&#xa5;" horiz-adv-x="1253" 
d="M800 764h272v-157h-336v-161h336v-157h-336v-289h-207v289h-337v157h337v161h-337v157h269l-391 636h240l322 -536l317 536h235z" />
    <glyph glyph-name="brokenbar" unicode="&#xa6;" horiz-adv-x="632" 
d="M415 706h-198v694h198v-694zM415 -265h-198v694h198v-694z" />
    <glyph glyph-name="section" unicode="&#xa7;" horiz-adv-x="1167" 
d="M911 333c37.333 -26.667 66.5 -58.6631 87.5 -95.9961s31.5 -81.666 31.5 -132.999c0 -58.667 -12.167 -110.5 -36.5 -155.5s-57.333 -82.667 -99 -113s-90.334 -53.333 -146.001 -69s-114.834 -23.5 -177.501 -23.5c-44.667 0 -88.5 3.66699 -131.5 11
s-84.167 18.166 -123.5 32.499s-76.333 31.833 -111 52.5s-65.667 44 -93 70l117 148c19.333 -17.333 41.5 -33.666 66.5 -48.999s52 -28.833 81 -40.5s59.833 -20.834 92.5 -27.501s66.667 -10 102 -10c36 0 69.333 3.33301 100 10s57.334 16.5 80.001 29.5
s40.5 29.167 53.5 48.5s19.5 41.666 19.5 66.999c0 22 -6 41.167 -18 57.5s-29 30.666 -51 42.999s-48.667 23 -80 32s-66.666 17.5 -105.999 25.5l-95 19c-50.667 10 -96.834 23.833 -138.501 41.5s-77.334 39.667 -107.001 66s-52.667 57.333 -69 93
s-24.5 76.167 -24.5 121.5c0 53.333 12.833 101 38.5 143s60.5 77 104.5 105c-37.333 28 -66.166 61.333 -86.499 100s-30.5 84 -30.5 136c0 54 11.5 102.667 34.5 146s54.667 80.166 95 110.499s87.833 53.833 142.5 70.5s113.667 25 177 25
c85.333 0 162.333 -12.5 231 -37.5s131.334 -60.167 188.001 -105.5l-108 -152c-42 31.333 -88.667 57.166 -140 77.499s-107.666 30.5 -168.999 30.5c-35.333 0 -68 -3.5 -98 -10.5s-56 -17.333 -78 -31s-39.167 -30 -51.5 -49s-18.5 -40.5 -18.5 -64.5
c0 -22.667 5.5 -42.334 16.5 -59.001s27.167 -31.334 48.5 -44.001s47.666 -23.667 78.999 -33s67.333 -17.666 108 -24.999l86 -16c50 -9.33301 96.5 -22.333 139.5 -39s80.167 -37.667 111.5 -63s55.833 -55.666 73.5 -90.999s26.5 -76 26.5 -122
c0 -56 -13 -105.167 -39 -147.5s-61 -77.5 -105 -105.5zM338 596.004c0 -43.333 21.501 -76.832 64.501 -100.499s104.833 -42.834 185.5 -57.501l86 -16c9.33301 -1.33301 18.166 -3 26.499 -5s16.833 -4 25.5 -6c38.667 14 69.167 34.333 91.5 61s33.5 58.667 33.5 96
c0 22 -5.83301 41 -17.5 57s-28.334 30 -50.001 42s-48.167 22.5 -79.5 31.5s-66.333 17.167 -105 24.5l-94 18c-8 1.33301 -15.667 3 -23 5s-14.666 3.66699 -21.999 5c-38 -14 -67.833 -34.167 -89.5 -60.5s-32.5 -57.833 -32.5 -94.5z" />
    <glyph glyph-name="dieresis" unicode="&#xa8;" horiz-adv-x="884" 
d="M241 1382c18.667 0 36.167 -3.49805 52.5 -10.498s30.5 -16.5 42.5 -28.5s21.333 -26.333 28 -43s10 -34.334 10 -53.001s-3.33301 -36 -10 -52s-16 -29.833 -28 -41.5s-26.167 -20.834 -42.5 -27.501s-33.833 -10 -52.5 -10s-36 3.33301 -52 10s-30 16 -42 28
s-21.333 26 -28 42s-10 33.667 -10 53c0 18.667 3.33301 36 10 52s16 30 28 42s26 21.5 42 28.5s33.333 10.5 52 10.5zM636 1382c18.667 0 36.167 -3.49805 52.5 -10.498s30.5 -16.5 42.5 -28.5s21.333 -26.333 28 -43s10 -34.334 10 -53.001s-3.33301 -36 -10 -52
s-16 -29.833 -28 -41.5s-26.167 -20.834 -42.5 -27.501s-33.833 -10 -52.5 -10s-36 3.33301 -52 10s-30 16 -42 28s-21.333 26 -28 42s-10 33.667 -10 53c0 18.667 3.33301 36 10 52s16 30 28 42s26 21.5 42 28.5s33.333 10.5 52 10.5z" />
    <glyph glyph-name="copyright" unicode="&#xa9;" horiz-adv-x="1859" 
d="M930 1515c75.333 0 147.666 -9.66699 216.999 -29s134.166 -46.5 194.499 -81.5s115.333 -77 165 -126s92.167 -103.333 127.5 -163s62.666 -123.667 81.999 -192s29 -139.5 29 -213.5s-9.66699 -145.333 -29 -214s-46.666 -133 -81.999 -193
s-77.833 -114.5 -127.5 -163.5s-104.667 -91 -165 -126s-125.166 -62.167 -194.499 -81.5s-141.666 -29 -216.999 -29s-147.666 9.66699 -216.999 29s-134.333 46.5 -195 81.5s-115.834 77 -165.501 126s-92.167 103.5 -127.5 163.5s-62.666 124.333 -81.999 193
s-29 140 -29 214s9.66699 145.167 29 213.5s46.666 132.333 81.999 192s77.833 114 127.5 163s104.834 91 165.501 126s125.667 62.167 195 81.5s141.666 29 216.999 29zM930 1332c-58 0 -113.67 -7.33301 -167.003 -22s-103.166 -35.5 -149.499 -62.5
s-88.5 -59.5 -126.5 -97.5s-70.5 -80 -97.5 -126s-48 -95.5 -63 -148.5s-22.5 -108.167 -22.5 -165.5c0 -86.667 16.333 -168 49 -244s77.334 -142.167 134.001 -198.5s123 -100.833 199 -133.5s157.333 -49 244 -49s168 16.333 244 49s142.333 77.167 199 133.5
s101.334 122.5 134.001 198.5s49 157.333 49 244c0 57.333 -7.5 112.5 -22.5 165.5s-36 102.5 -63 148.5s-59.5 88 -97.5 126s-80.167 70.5 -126.5 97.5s-96.333 47.833 -150 62.5s-109.167 22 -166.5 22zM1145 849c-22 35.333 -49.835 62.501 -83.502 81.501
s-72.167 28.5 -115.5 28.5c-33.333 0 -64 -6.16699 -92 -18.5s-52.5 -29.5 -73.5 -51.5s-37.333 -48.333 -49 -79s-17.5 -64.334 -17.5 -101.001c0 -40.667 6.33301 -76.5 19 -107.5s29.667 -57 51 -78s46 -36.833 74 -47.5s57.333 -16 88 -16
c42.667 0 81.334 9.5 116.001 28.5s63.667 46.167 87 81.5l145 -107c-37.333 -54.667 -85.166 -97.834 -143.499 -129.501s-125.833 -47.5 -202.5 -47.5c-61.333 0 -117.833 10.5 -169.5 31.5s-96.334 50.167 -134.001 87.5s-67.167 81.833 -88.5 133.5s-32 108.5 -32 170.5
s10.667 119 32 171s50.833 96.833 88.5 134.5s82.334 66.834 134.001 87.501s108.167 31 169.5 31c37.333 0 73.5 -4.33301 108.5 -13s67.667 -21.167 98 -37.5s58 -36.333 83 -60s46.167 -50.5 63.5 -80.5z" />
    <glyph glyph-name="ordfeminine" unicode="&#xaa;" horiz-adv-x="719" 
d="M343 1291c42 0 80.8359 -5.50098 116.503 -16.501s66.167 -28 91.5 -51s45.166 -51.833 59.499 -86.5s21.5 -76 21.5 -124v-419h-160v81c-21.333 -27.333 -47.5 -50.166 -78.5 -68.499s-69.5 -27.5 -115.5 -27.5c-34 0 -64.5 5.16699 -91.5 15.5s-50 24.833 -69 43.5
s-33.667 41 -44 67s-15.5 55 -15.5 87c0 64.667 23 115.5 69 152.5s111.667 55.5 197 55.5h141v1c0 47.333 -12.167 82.5 -36.5 105.5s-59.5 34.5 -105.5 34.5c-34 0 -64.833 -6 -92.5 -18s-51.834 -25.667 -72.501 -41l-67 127c32 25.333 69.167 45.333 111.5 60
s89.166 22 140.499 22zM324.003 716.999c30 0 57.333 7.66602 82 22.999s45.667 35 63 59v85h-121c-42 0 -72.333 -8.16699 -91 -24.5s-28 -36.166 -28 -59.499s8 -43 24 -59s39.667 -24 71 -24z" />
    <glyph glyph-name="guillemotleft" unicode="&#xab;" horiz-adv-x="1003" 
d="M890 157h-210l-181 374l181 374h210l-182 -374zM492 157h-210l-181 374l181 374h210l-182 -374z" />
    <glyph glyph-name="logicalnot" unicode="&#xac;" horiz-adv-x="1104" 
d="M930 164h-181v277h-606v180h788z" />
    <glyph glyph-name="uni00AD" unicode="&#xad;" horiz-adv-x="735" 
d="M627 439h-518v184h518v-184z" />
    <glyph glyph-name="registered" unicode="&#xae;" horiz-adv-x="995" 
d="M498 1440c60 0 116.167 -11.167 168.5 -33.5s97.833 -52.833 136.5 -91.5s69.167 -84 91.5 -136s33.5 -107.333 33.5 -166s-11.167 -113.834 -33.5 -165.501s-53 -96.834 -92 -135.501s-84.5 -69.334 -136.5 -92.001s-108 -34 -168 -34
c-60.667 0 -117.334 11.333 -170.001 34s-98.334 53.334 -137.001 92.001s-69.167 83.834 -91.5 135.501s-33.5 106.834 -33.5 165.501s11.167 114 33.5 166s52.833 97.333 91.5 136s84.334 69.167 137.001 91.5s109.334 33.5 170.001 33.5zM498 701
c42 0 81.5 8.16699 118.5 24.5s69.167 38.666 96.5 66.999s49 61.333 65 99s24 78.167 24 121.5c0 42.667 -8 83 -24 121s-37.667 71.167 -65 99.5s-59.5 50.666 -96.5 66.999s-76.5 24.5 -118.5 24.5c-42.667 0 -82.667 -8.16699 -120 -24.5s-69.833 -38.666 -97.5 -66.999
s-49.5 -61.5 -65.5 -99.5s-24 -78.333 -24 -121c0 -43.333 8 -83.833 24 -121.5s37.833 -70.667 65.5 -99s60.167 -50.666 97.5 -66.999s77.333 -24.5 120 -24.5zM679 1078c0 -30.667 -9.66797 -56.501 -29.001 -77.501s-47.666 -34.5 -84.999 -40.5l118 -141h-119l-106 138
h-20v-138h-100v388h183c51.333 0 90.5 -11.667 117.5 -35s40.5 -54.666 40.5 -93.999zM437.999 1039l81 0.000976562c17.333 0 31.166 3.16699 41.499 9.5s15.5 16.166 15.5 29.499s-5.16699 23.5 -15.5 30.5s-24.166 10.5 -41.499 10.5h-81v-80z" />
    <glyph glyph-name="macron" unicode="&#xaf;" horiz-adv-x="748" 
d="M86 1332h576v-170h-576v170z" />
    <glyph glyph-name="degree" unicode="&#xb0;" horiz-adv-x="848" 
d="M424 753c-47.333 0 -91.666 8.5 -132.999 25.5s-77.166 40.5 -107.499 70.5s-54.333 65.333 -72 106s-26.5 85 -26.5 133c0 47.333 8.83301 91.5 26.5 132.5s41.667 76.5 72 106.5s66.166 53.5 107.499 70.5s85.666 25.5 132.999 25.5c46.667 0 90.667 -8.5 132 -25.5
s77.166 -40.5 107.499 -70.5s54.333 -65.5 72 -106.5s26.5 -85.167 26.5 -132.5c0 -48 -8.83301 -92.333 -26.5 -133s-41.667 -76 -72 -106s-66.166 -53.5 -107.499 -70.5s-85.333 -25.5 -132 -25.5zM424 905c24 0 46.5 4.66699 67.5 14s39.5 22.166 55.5 38.499
s28.667 35.666 38 57.999s14 46.5 14 72.5c0 25.333 -4.66699 49 -14 71s-22 41.167 -38 57.5s-34.5 29.166 -55.5 38.499s-43.5 14 -67.5 14s-46.667 -4.66699 -68 -14s-40 -22.166 -56 -38.499s-28.667 -35.5 -38 -57.5s-14 -45.667 -14 -71
c0 -26 4.66699 -50.167 14 -72.5s22 -41.666 38 -57.999s34.667 -29.166 56 -38.499s44 -14 68 -14z" />
    <glyph glyph-name="plusminus" unicode="&#xb1;" horiz-adv-x="1104" 
d="M946 728v-180h-304v-253h-182v253h-302v180h302v294h182v-294h304zM157 197h789v-175h-789v175z" />
    <glyph glyph-name="uni00B2" unicode="&#xb2;" horiz-adv-x="634" 
d="M50 1283c10.667 14 23.833 28.499 39.5 43.499s34 28.833 55 41.5s44.833 23 71.5 31s57 12 91 12c40 0 75.833 -6 107.5 -18s58.5 -28.833 80.5 -50.5s39 -47.834 51 -78.501s18 -64.667 18 -102c0 -24 -2.5 -46.5 -7.5 -67.5s-12.333 -41.167 -22 -60.5
s-21.834 -38.666 -36.501 -57.999s-31.667 -39 -51 -59l-151 -159h284v-148h-495v125l260 280c18.667 20.667 33.334 42 44.001 64s16 44.667 16 68c0 32.667 -10.167 59.5 -30.5 80.5s-47.833 31.5 -82.5 31.5c-34 0 -62.667 -8.16699 -86 -24.5
s-44.333 -35.166 -63 -56.499z" />
    <glyph glyph-name="uni00B3" unicode="&#xb3;" horiz-adv-x="640" 
d="M446 1008c40 -16 71.502 -39.501 94.502 -70.501s34.5 -67.5 34.5 -109.5c0 -39.333 -7.83301 -73.333 -23.5 -102s-36.667 -52.5 -63 -71.5s-56.5 -33.167 -90.5 -42.5s-69 -14 -105 -14c-54 0 -102.667 9 -146 27s-79.333 43.667 -108 77l88 107
c20.667 -21.333 44.5 -37.833 71.5 -49.5s55.833 -17.5 86.5 -17.5c17.333 0 33.666 2 48.999 6s28.833 10.167 40.5 18.5s21 18.833 28 31.5s10.5 27.667 10.5 45c0 15.333 -3.66699 28.833 -11 40.5s-17.333 21.5 -30 29.5s-27.334 14 -44.001 18s-34.334 6 -53.001 6h-87
v142h88c35.333 0 64.666 8 87.999 24s35 39.333 35 70c0 29.333 -10.833 52.166 -32.5 68.499s-50.5 24.5 -86.5 24.5c-34.667 0 -64.667 -7.16699 -90 -21.5s-46 -31.166 -62 -50.499l-84 111c26.667 31.333 59.834 56.833 99.501 76.5s88.834 29.5 147.501 29.5
c39.333 0 75.5 -5.33301 108.5 -16s61.333 -25.834 85 -45.501s42.167 -43.167 55.5 -70.5s20 -57.666 20 -90.999c0 -42 -10 -78.167 -30 -108.5s-48 -54.166 -84 -71.499z" />
    <glyph glyph-name="acute" unicode="&#xb4;" horiz-adv-x="876" 
d="M224 1098l186 308h239l-235 -308h-190z" />
    <glyph glyph-name="mu" unicode="&#xb5;" horiz-adv-x="1075" 
d="M940 962v-961.998h-196v131c-16 -28 -34.5 -51.667 -55.5 -71s-43.333 -35 -67 -47s-48.5 -20.667 -74.5 -26s-52 -8 -78 -8c-54.667 0 -104.334 9.66699 -149.001 29v-392h-193v1346h202v-573c0 -70.667 17.333 -124.834 52 -162.501s83.334 -56.5 146.001 -56.5
c29.333 0 56.833 5 82.5 15s48 24.5 67 43.5s34 42.167 45 69.5s16.5 58.666 16.5 93.999v570h202z" />
    <glyph glyph-name="paragraph" unicode="&#xb6;" horiz-adv-x="1113" 
d="M648 0h-153.999v663c-62.667 0.666992 -118.167 10 -166.5 28s-88.833 43 -121.5 75s-57.334 70.667 -74.001 116s-25 96 -25 152c0 55.333 8.5 105.5 25.5 150.5s41.833 83.5 74.5 115.5s73 56.667 121 74s103.333 26 166 26h154v-1400zM896.001 1400v-1400h-154v1400
h154z" />
    <glyph glyph-name="periodcentered" unicode="&#xb7;" horiz-adv-x="635" 
d="M317 682c20.667 0 40.167 -4.00098 58.5 -12.001s34.333 -19 48 -33s24.5 -30.167 32.5 -48.5s12 -37.833 12 -58.5s-4 -40.167 -12 -58.5s-18.833 -34.5 -32.5 -48.5s-29.667 -25 -48 -33s-37.833 -12 -58.5 -12s-40.167 4 -58.5 12s-34.5 19 -48.5 33
s-25 30.333 -33 49s-12 38.334 -12 59.001s4 40.167 12 58.5s19 34.333 33 48s30.167 24.5 48.5 32.5s37.833 12 58.5 12z" />
    <glyph glyph-name="cedilla" unicode="&#xb8;" horiz-adv-x="728" 
d="M334 -322h-193l101 339l185 -11z" />
    <glyph glyph-name="uni00B9" unicode="&#xb9;" horiz-adv-x="496" 
d="M373 610h-155v583l-179 -72v155l334 135v-801z" />
    <glyph glyph-name="ordmasculine" unicode="&#xba;" horiz-adv-x="779" 
d="M390 1292c48 0 92.333 -8.66699 133 -26s75.5 -41.666 104.5 -72.999s51.667 -68.833 68 -112.5s24.5 -91.834 24.5 -144.501s-8.16699 -100.834 -24.5 -144.501s-39 -81.334 -68 -113.001s-63.833 -56.167 -104.5 -73.5s-85 -26 -133 -26
c-48.667 0 -93.167 8.66699 -133.5 26s-75.166 41.833 -104.499 73.5s-52.166 69.334 -68.499 113.001s-24.5 91.834 -24.5 144.501s8.16699 100.834 24.5 144.501s39.166 81.167 68.499 112.5s64.166 55.666 104.499 72.999s84.833 26 133.5 26zM390 1133
c-47.333 0 -85.833 -17.167 -115.5 -51.5s-44.5 -82.833 -44.5 -145.5s14.833 -111.334 44.5 -146.001s68.167 -52 115.5 -52c22.667 0 43.834 4.5 63.501 13.5s36.667 22 51 39s25.5 37.667 33.5 62s12 52.166 12 83.499c0 30.667 -4 58.334 -12 83.001
s-19.167 45.334 -33.5 62.001s-31.333 29.5 -51 38.5s-40.834 13.5 -63.501 13.5z" />
    <glyph glyph-name="guillemotright" unicode="&#xbb;" horiz-adv-x="1003" 
d="M113 905h210l181 -374l-181 -374h-210l182 374zM511 905h210l181 -374l-181 -374h-210l182 374z" />
    <glyph glyph-name="onequarter" unicode="&#xbc;" horiz-adv-x="1592" 
d="M403 0h-182l804 1400h182zM1469 143h-95v-143h-153v143h-336v114l243 532h168l-232 -505h157v209h153v-209h95v-141zM373 610h-155v583l-179 -72v155l334 135v-801z" />
    <glyph glyph-name="onehalf" unicode="&#xbd;" horiz-adv-x="1615" 
d="M403 0h-182l804 1400h182zM962 673c10.667 14 23.833 28.499 39.5 43.499s34 28.833 55 41.5s44.833 23 71.5 31s57 12 91 12c40 0 75.833 -6 107.5 -18s58.5 -28.833 80.5 -50.5s39 -47.834 51 -78.501s18 -64.667 18 -102c0 -24 -2.5 -46.5 -7.5 -67.5
s-12.333 -41.167 -22 -60.5s-21.834 -38.666 -36.501 -57.999s-31.667 -39 -51 -59l-151 -159h284v-148h-495v125l260 280c18.667 20.667 33.334 42 44.001 64s16 44.667 16 68c0 32.667 -10.167 59.5 -30.5 80.5s-47.833 31.5 -82.5 31.5c-34 0 -62.667 -8.16699 -86 -24.5
s-44.333 -35.166 -63 -56.499zM372.999 609.999h-155v583l-179 -72v155l334 135v-801z" />
    <glyph glyph-name="threequarters" unicode="&#xbe;" horiz-adv-x="1660" 
d="M528 0h-182l804 1400h182zM1595 143h-95v-143h-153v143h-336v114l243 532h168l-232 -505h157v209h153v-209h95v-141zM446 1008c40 -16 71.502 -39.501 94.502 -70.501s34.5 -67.5 34.5 -109.5c0 -39.333 -7.83301 -73.333 -23.5 -102s-36.667 -52.5 -63 -71.5
s-56.5 -33.167 -90.5 -42.5s-69 -14 -105 -14c-54 0 -102.667 9 -146 27s-79.333 43.667 -108 77l88 107c20.667 -21.333 44.5 -37.833 71.5 -49.5s55.833 -17.5 86.5 -17.5c17.333 0 33.666 2 48.999 6s28.833 10.167 40.5 18.5s21 18.833 28 31.5s10.5 27.667 10.5 45
c0 15.333 -3.66699 28.833 -11 40.5s-17.333 21.5 -30 29.5s-27.334 14 -44.001 18s-34.334 6 -53.001 6h-87v142h88c35.333 0 64.666 8 87.999 24s35 39.333 35 70c0 29.333 -10.833 52.166 -32.5 68.499s-50.5 24.5 -86.5 24.5c-34.667 0 -64.667 -7.16699 -90 -21.5
s-46 -31.166 -62 -50.499l-84 111c26.667 31.333 59.834 56.833 99.501 76.5s88.834 29.5 147.501 29.5c39.333 0 75.5 -5.33301 108.5 -16s61.333 -25.834 85 -45.501s42.167 -43.167 55.5 -70.5s20 -57.666 20 -90.999c0 -42 -10 -78.167 -30 -108.5
s-48 -54.166 -84 -71.499z" />
    <glyph glyph-name="questiondown" unicode="&#xbf;" horiz-adv-x="801" 
d="M539 681c-20 0 -39.167 4.00098 -57.5 12.001s-34.333 18.833 -48 32.5s-24.5 29.667 -32.5 48s-12 37.833 -12 58.5s4 40.167 12 58.5s18.833 34.5 32.5 48.5s29.667 25 48 33s37.833 12 58.5 12c20 0 39.167 -4 57.5 -12s34.333 -19 48 -33s24.5 -30.333 32.5 -49
s12 -38.334 12 -59.001s-4 -40 -12 -58s-18.833 -33.833 -32.5 -47.5s-29.667 -24.5 -48 -32.5s-37.833 -12 -58.5 -12zM531 -461.999c-76 0 -144.17 9.49902 -204.503 28.499s-111.666 46 -153.999 81s-74.666 77.5 -96.999 127.5s-33.5 105.667 -33.5 167
c0 113.333 34.5 204.5 103.5 273.5s167.833 113.167 296.5 132.5l8 158h178v-343h-72c-91.333 0 -162.5 -18.167 -213.5 -54.5s-76.5 -88.833 -76.5 -157.5c0 -64 25.333 -113.5 76 -148.5s120.334 -52.5 209.001 -52.5c23.333 0 45 0.333008 65 1s34.667 1 44 1l40 -202
c-23.333 -3.33301 -50.333 -6.16602 -81 -8.49902s-60 -3.5 -88 -3.5z" />
    <glyph glyph-name="Agrave" unicode="&#xc0;" horiz-adv-x="1293" 
d="M922 349h-556l-118 -349h-225l493 1401h262l492 -1401h-230zM854 551l-210 623l-210 -623h420zM365 1817h239l186 -308h-190z" />
    <glyph glyph-name="Aacute" unicode="&#xc1;" horiz-adv-x="1293" 
d="M922 349h-556l-118 -349h-225l493 1401h262l492 -1401h-230zM854 551l-210 623l-210 -623h420zM497 1509l186 308h239l-235 -308h-190z" />
    <glyph glyph-name="Acircumflex" unicode="&#xc2;" horiz-adv-x="1293" 
d="M922 349h-556l-118 -349h-225l493 1401h262l492 -1401h-230zM854 551l-210 623l-210 -623h420zM778 1508l-131 169l-130 -169h-194l204 303h241l204 -303h-194z" />
    <glyph glyph-name="Atilde" unicode="&#xc3;" horiz-adv-x="1293" 
d="M922 349h-556l-118 -349h-225l493 1401h262l492 -1401h-230zM854 551l-210 623l-210 -623h420zM302 1665c30.667 41.333 63.832 71.5 99.499 90.5s76.5 28.5 122.5 28.5c30.667 0 57.167 -3.66699 79.5 -11s42.5 -15.166 60.5 -23.499s34.5 -16.166 49.5 -23.499
s30.833 -11 47.5 -11c20 0 39.167 5.5 57.5 16.5s37.833 27.5 58.5 49.5l107 -120c-31.333 -41.333 -64.666 -71.5 -99.999 -90.5s-76.333 -28.5 -123 -28.5c-30 0 -56.167 3.66699 -78.5 11s-42.333 15.166 -60 23.499s-34.167 16.166 -49.5 23.499s-31.333 11 -48 11
c-20 0 -39.167 -5.5 -57.5 -16.5s-37.833 -27.5 -58.5 -49.5z" />
    <glyph glyph-name="Adieresis" unicode="&#xc4;" horiz-adv-x="1293" 
d="M922 349h-556l-118 -349h-225l493 1401h262l492 -1401h-230zM854 551l-210 623l-210 -623h420zM446 1793c18.667 0 36.167 -3.49805 52.5 -10.498s30.5 -16.5 42.5 -28.5s21.333 -26.333 28 -43s10 -34.334 10 -53.001s-3.33301 -36 -10 -52s-16 -29.833 -28 -41.5
s-26.167 -20.834 -42.5 -27.501s-33.833 -10 -52.5 -10s-36 3.33301 -52 10s-30 16 -42 28s-21.333 26 -28 42s-10 33.667 -10 53c0 18.667 3.33301 36 10 52s16 30 28 42s26 21.5 42 28.5s33.333 10.5 52 10.5zM841 1793c18.667 0 36.167 -3.49805 52.5 -10.498
s30.5 -16.5 42.5 -28.5s21.333 -26.333 28 -43s10 -34.334 10 -53.001s-3.33301 -36 -10 -52s-16 -29.833 -28 -41.5s-26.167 -20.834 -42.5 -27.501s-33.833 -10 -52.5 -10s-36 3.33301 -52 10s-30 16 -42 28s-21.333 26 -28 42s-10 33.667 -10 53
c0 18.667 3.33301 36 10 52s16 30 28 42s26 21.5 42 28.5s33.333 10.5 52 10.5z" />
    <glyph glyph-name="Aring" unicode="&#xc5;" horiz-adv-x="1293" 
d="M922 349h-556l-118 -349h-225l493 1401h262l492 -1401h-230zM854 551l-210 623l-210 -623h420zM645 1492c-32 0 -62 6 -90 18s-52.5 28.167 -73.5 48.5s-37.5 44.5 -49.5 72.5s-18 58 -18 90c0 31.333 6 60.833 18 88.5s28.5 51.667 49.5 72s45.5 36.5 73.5 48.5
s58 18 90 18s62 -6 90 -18s52.5 -28.167 73.5 -48.5s37.667 -44.333 50 -72s18.5 -57.167 18.5 -88.5c0 -32 -6.16699 -62 -18.5 -90s-29 -52.167 -50 -72.5s-45.5 -36.5 -73.5 -48.5s-58 -18 -90 -18zM645 1612c14.667 0 28.5 2.83301 41.5 8.5s24.333 13.334 34 23.001
s17.334 21.167 23.001 34.5s8.5 27.666 8.5 42.999c0 14.667 -2.83301 28.667 -8.5 42s-13.334 24.666 -23.001 33.999s-21 16.833 -34 22.5s-26.833 8.5 -41.5 8.5c-14 0 -27.5 -2.83301 -40.5 -8.5s-24.167 -13.167 -33.5 -22.5s-16.833 -20.666 -22.5 -33.999
s-8.5 -27.333 -8.5 -42c0 -15.333 2.83301 -29.666 8.5 -42.999s13.167 -24.833 22.5 -34.5s20.5 -17.334 33.5 -23.001s26.5 -8.5 40.5 -8.5z" />
    <glyph glyph-name="AE" unicode="&#xc6;" horiz-adv-x="2000" 
d="M1876 201v-201h-900v309h-516l-190 -309h-252l875 1400h977v-201h-676v-393h649v-201h-649v-404h682zM976 512v639l-392 -639h392z" />
    <glyph glyph-name="Ccedilla" unicode="&#xc7;" horiz-adv-x="1327" 
d="M736 1422c56.667 0 111.001 -6.83496 163.001 -20.502s100.167 -33.167 144.5 -58.5s84.166 -56.5 119.499 -93.5s65 -78.833 89 -125.5l-185 -105c-35.333 60.667 -81.333 107.834 -138 141.501s-121 50.5 -193 50.5c-60 0 -115.333 -11.667 -166 -35
s-94.5 -57 -131.5 -101s-65.833 -97.667 -86.5 -161s-31 -134.666 -31 -213.999c0 -80 10.333 -151.667 31 -215s49.5 -117 86.5 -161s81 -77.5 132 -100.5s106.5 -34.5 166.5 -34.5c70.667 0 134.334 16.5 191.001 49.5s103.334 80.167 140.001 141.5l179 -112
c-25.333 -45.333 -55.5 -85.833 -90.5 -121.5s-74.333 -66 -118 -91s-90.834 -44.167 -141.501 -57.5s-104.334 -20 -161.001 -20c-95.333 0 -182.166 17.167 -260.499 51.5s-145.833 83 -202.5 146s-100.5 139 -131.5 228s-46.5 187.833 -46.5 296.5s15.5 207.5 46.5 296.5
s74.833 165 131.5 228s124.167 111.667 202.5 146s165.166 51.5 260.499 51.5zM748.001 -322.002h-208l100 328h200z" />
    <glyph glyph-name="Egrave" unicode="&#xc8;" horiz-adv-x="1179" 
d="M1055 201v-201h-900v1400h894v-201h-677v-393h650v-201h-650v-404h683zM319 1817h239l186 -308h-190z" />
    <glyph glyph-name="Eacute" unicode="&#xc9;" horiz-adv-x="1179" 
d="M1055 201v-201h-900v1400h894v-201h-677v-393h650v-201h-650v-404h683zM451 1509l186 308h239l-235 -308h-190z" />
    <glyph glyph-name="Ecircumflex" unicode="&#xca;" horiz-adv-x="1179" 
d="M1055 201v-201h-900v1400h894v-201h-677v-393h650v-201h-650v-404h683zM732 1508l-131 169l-130 -169h-194l204 303h241l204 -303h-194z" />
    <glyph glyph-name="Edieresis" unicode="&#xcb;" horiz-adv-x="1179" 
d="M1055 201v-201h-900v1400h894v-201h-677v-393h650v-201h-650v-404h683zM400 1793c18.667 0 36.167 -3.49805 52.5 -10.498s30.5 -16.5 42.5 -28.5s21.333 -26.333 28 -43s10 -34.334 10 -53.001s-3.33301 -36 -10 -52s-16 -29.833 -28 -41.5
s-26.167 -20.834 -42.5 -27.501s-33.833 -10 -52.5 -10s-36 3.33301 -52 10s-30 16 -42 28s-21.333 26 -28 42s-10 33.667 -10 53c0 18.667 3.33301 36 10 52s16 30 28 42s26 21.5 42 28.5s33.333 10.5 52 10.5zM795 1793c18.667 0 36.167 -3.49805 52.5 -10.498
s30.5 -16.5 42.5 -28.5s21.333 -26.333 28 -43s10 -34.334 10 -53.001s-3.33301 -36 -10 -52s-16 -29.833 -28 -41.5s-26.167 -20.834 -42.5 -27.501s-33.833 -10 -52.5 -10s-36 3.33301 -52 10s-30 16 -42 28s-21.333 26 -28 42s-10 33.667 -10 53
c0 18.667 3.33301 36 10 52s16 30 28 42s26 21.5 42 28.5s33.333 10.5 52 10.5z" />
    <glyph glyph-name="Igrave" unicode="&#xcc;" horiz-adv-x="527" 
d="M372 0h-217v1400h217v-1400zM-18 1817h239l186 -308h-190z" />
    <glyph glyph-name="Iacute" unicode="&#xcd;" horiz-adv-x="527" 
d="M372 0h-217v1400h217v-1400zM121 1509l186 308h239l-235 -308h-190z" />
    <glyph glyph-name="Icircumflex" unicode="&#xce;" horiz-adv-x="527" 
d="M372 0h-217v1400h217v-1400zM395 1508l-131 169l-130 -169h-194l204 303h241l204 -303h-194z" />
    <glyph glyph-name="Idieresis" unicode="&#xcf;" horiz-adv-x="527" 
d="M372 0h-217v1400h217v-1400zM63 1793c18.667 0 36.167 -3.49805 52.5 -10.498s30.5 -16.5 42.5 -28.5s21.333 -26.333 28 -43s10 -34.334 10 -53.001s-3.33301 -36 -10 -52s-16 -29.833 -28 -41.5s-26.167 -20.834 -42.5 -27.501s-33.833 -10 -52.5 -10
s-36 3.33301 -52 10s-30 16 -42 28s-21.333 26 -28 42s-10 33.667 -10 53c0 18.667 3.33301 36 10 52s16 30 28 42s26 21.5 42 28.5s33.333 10.5 52 10.5zM458 1793c18.667 0 36.167 -3.49805 52.5 -10.498s30.5 -16.5 42.5 -28.5s21.333 -26.333 28 -43
s10 -34.334 10 -53.001s-3.33301 -36 -10 -52s-16 -29.833 -28 -41.5s-26.167 -20.834 -42.5 -27.501s-33.833 -10 -52.5 -10s-36 3.33301 -52 10s-30 16 -42 28s-21.333 26 -28 42s-10 33.667 -10 53c0 18.667 3.33301 36 10 52s16 30 28 42s26 21.5 42 28.5
s33.333 10.5 52 10.5z" />
    <glyph glyph-name="Eth" unicode="&#xd0;" horiz-adv-x="1517" 
d="M761 1400c102 0 193.833 -16.333 275.5 -49s151 -79.5 208 -140.5s100.833 -134.667 131.5 -221s46 -182.833 46 -289.5c0 -107.333 -15.333 -204 -46 -290s-74.5 -159.5 -131.5 -220.5s-126.333 -107.833 -208 -140.5s-173.5 -49 -275.5 -49h-488v610h-180v191h180v599
h488zM759 204c73.333 0 137.333 11.834 192 35.501s100 57.167 136 100.5s63 95.5 81 156.5s27 128.833 27 203.5c0 75.333 -9 143.666 -27 204.999s-45 113.5 -81 156.5s-81.333 76.167 -136 99.5s-118.667 35 -192 35h-269v-395h326v-191h-326v-406h269z" />
    <glyph glyph-name="Ntilde" unicode="&#xd1;" horiz-adv-x="1406" 
d="M1251 -1h-204l-676 996v-995h-216v1401h204l676 -999v998h216v-1401zM359 1665c30.667 41.333 63.832 71.5 99.499 90.5s76.5 28.5 122.5 28.5c30.667 0 57.167 -3.66699 79.5 -11s42.5 -15.166 60.5 -23.499s34.5 -16.166 49.5 -23.499s30.833 -11 47.5 -11
c20 0 39.167 5.5 57.5 16.5s37.833 27.5 58.5 49.5l107 -120c-31.333 -41.333 -64.666 -71.5 -99.999 -90.5s-76.333 -28.5 -123 -28.5c-30 0 -56.167 3.66699 -78.5 11s-42.333 15.166 -60 23.499s-34.167 16.166 -49.5 23.499s-31.333 11 -48 11
c-20 0 -39.167 -5.5 -57.5 -16.5s-37.833 -27.5 -58.5 -49.5z" />
    <glyph glyph-name="Ograve" unicode="&#xd2;" horiz-adv-x="1477" 
d="M739 1422c96 0 183.333 -17.333 262 -52s146.334 -83.5 203.001 -146.5s100.5 -138.833 131.5 -227.5s46.5 -187.334 46.5 -296.001s-15.5 -207.334 -46.5 -296.001s-74.833 -164.5 -131.5 -227.5s-124.334 -111.833 -203.001 -146.5s-166 -52 -262 -52
s-183.5 17.333 -262.5 52s-146.833 83.5 -203.5 146.5s-100.5 138.833 -131.5 227.5s-46.5 187.334 -46.5 296.001s15.5 207.334 46.5 296.001s74.833 164.5 131.5 227.5s124.5 111.833 203.5 146.5s166.5 52 262.5 52zM739 1211c-61.333 0 -117.5 -11.667 -168.5 -35
s-95 -57 -132 -101s-65.833 -97.667 -86.5 -161s-31 -134.666 -31 -213.999s10.333 -150.666 31 -213.999s49.5 -117 86.5 -161s81 -77.667 132 -101s107.167 -35 168.5 -35c60.667 0 116.5 11.667 167.5 35s95 57 132 101s65.833 97.667 86.5 161s31 134.666 31 213.999
s-10.333 150.666 -31 213.999s-49.5 117 -86.5 161s-81 77.667 -132 101s-106.833 35 -167.5 35zM457 1817h239l186 -308h-190z" />
    <glyph glyph-name="Oacute" unicode="&#xd3;" horiz-adv-x="1477" 
d="M739 1422c96 0 183.333 -17.333 262 -52s146.334 -83.5 203.001 -146.5s100.5 -138.833 131.5 -227.5s46.5 -187.334 46.5 -296.001s-15.5 -207.334 -46.5 -296.001s-74.833 -164.5 -131.5 -227.5s-124.334 -111.833 -203.001 -146.5s-166 -52 -262 -52
s-183.5 17.333 -262.5 52s-146.833 83.5 -203.5 146.5s-100.5 138.833 -131.5 227.5s-46.5 187.334 -46.5 296.001s15.5 207.334 46.5 296.001s74.833 164.5 131.5 227.5s124.5 111.833 203.5 146.5s166.5 52 262.5 52zM739 1211c-61.333 0 -117.5 -11.667 -168.5 -35
s-95 -57 -132 -101s-65.833 -97.667 -86.5 -161s-31 -134.666 -31 -213.999s10.333 -150.666 31 -213.999s49.5 -117 86.5 -161s81 -77.667 132 -101s107.167 -35 168.5 -35c60.667 0 116.5 11.667 167.5 35s95 57 132 101s65.833 97.667 86.5 161s31 134.666 31 213.999
s-10.333 150.666 -31 213.999s-49.5 117 -86.5 161s-81 77.667 -132 101s-106.833 35 -167.5 35zM589 1509l186 308h239l-235 -308h-190z" />
    <glyph glyph-name="Ocircumflex" unicode="&#xd4;" horiz-adv-x="1477" 
d="M739 1422c96 0 183.333 -17.333 262 -52s146.334 -83.5 203.001 -146.5s100.5 -138.833 131.5 -227.5s46.5 -187.334 46.5 -296.001s-15.5 -207.334 -46.5 -296.001s-74.833 -164.5 -131.5 -227.5s-124.334 -111.833 -203.001 -146.5s-166 -52 -262 -52
s-183.5 17.333 -262.5 52s-146.833 83.5 -203.5 146.5s-100.5 138.833 -131.5 227.5s-46.5 187.334 -46.5 296.001s15.5 207.334 46.5 296.001s74.833 164.5 131.5 227.5s124.5 111.833 203.5 146.5s166.5 52 262.5 52zM739 1211c-61.333 0 -117.5 -11.667 -168.5 -35
s-95 -57 -132 -101s-65.833 -97.667 -86.5 -161s-31 -134.666 -31 -213.999s10.333 -150.666 31 -213.999s49.5 -117 86.5 -161s81 -77.667 132 -101s107.167 -35 168.5 -35c60.667 0 116.5 11.667 167.5 35s95 57 132 101s65.833 97.667 86.5 161s31 134.666 31 213.999
s-10.333 150.666 -31 213.999s-49.5 117 -86.5 161s-81 77.667 -132 101s-106.833 35 -167.5 35zM870 1508l-131 169l-130 -169h-194l204 303h241l204 -303h-194z" />
    <glyph glyph-name="Otilde" unicode="&#xd5;" horiz-adv-x="1477" 
d="M739 1422c96 0 183.333 -17.333 262 -52s146.334 -83.5 203.001 -146.5s100.5 -138.833 131.5 -227.5s46.5 -187.334 46.5 -296.001s-15.5 -207.334 -46.5 -296.001s-74.833 -164.5 -131.5 -227.5s-124.334 -111.833 -203.001 -146.5s-166 -52 -262 -52
s-183.5 17.333 -262.5 52s-146.833 83.5 -203.5 146.5s-100.5 138.833 -131.5 227.5s-46.5 187.334 -46.5 296.001s15.5 207.334 46.5 296.001s74.833 164.5 131.5 227.5s124.5 111.833 203.5 146.5s166.5 52 262.5 52zM739 1211c-61.333 0 -117.5 -11.667 -168.5 -35
s-95 -57 -132 -101s-65.833 -97.667 -86.5 -161s-31 -134.666 -31 -213.999s10.333 -150.666 31 -213.999s49.5 -117 86.5 -161s81 -77.667 132 -101s107.167 -35 168.5 -35c60.667 0 116.5 11.667 167.5 35s95 57 132 101s65.833 97.667 86.5 161s31 134.666 31 213.999
s-10.333 150.666 -31 213.999s-49.5 117 -86.5 161s-81 77.667 -132 101s-106.833 35 -167.5 35zM394 1665c30.667 41.333 63.832 71.5 99.499 90.5s76.5 28.5 122.5 28.5c30.667 0 57.167 -3.66699 79.5 -11s42.5 -15.166 60.5 -23.499s34.5 -16.166 49.5 -23.499
s30.833 -11 47.5 -11c20 0 39.167 5.5 57.5 16.5s37.833 27.5 58.5 49.5l107 -120c-31.333 -41.333 -64.666 -71.5 -99.999 -90.5s-76.333 -28.5 -123 -28.5c-30 0 -56.167 3.66699 -78.5 11s-42.333 15.166 -60 23.499s-34.167 16.166 -49.5 23.499s-31.333 11 -48 11
c-20 0 -39.167 -5.5 -57.5 -16.5s-37.833 -27.5 -58.5 -49.5z" />
    <glyph glyph-name="Odieresis" unicode="&#xd6;" horiz-adv-x="1477" 
d="M739 1422c96 0 183.333 -17.333 262 -52s146.334 -83.5 203.001 -146.5s100.5 -138.833 131.5 -227.5s46.5 -187.334 46.5 -296.001s-15.5 -207.334 -46.5 -296.001s-74.833 -164.5 -131.5 -227.5s-124.334 -111.833 -203.001 -146.5s-166 -52 -262 -52
s-183.5 17.333 -262.5 52s-146.833 83.5 -203.5 146.5s-100.5 138.833 -131.5 227.5s-46.5 187.334 -46.5 296.001s15.5 207.334 46.5 296.001s74.833 164.5 131.5 227.5s124.5 111.833 203.5 146.5s166.5 52 262.5 52zM739 1211c-61.333 0 -117.5 -11.667 -168.5 -35
s-95 -57 -132 -101s-65.833 -97.667 -86.5 -161s-31 -134.666 -31 -213.999s10.333 -150.666 31 -213.999s49.5 -117 86.5 -161s81 -77.667 132 -101s107.167 -35 168.5 -35c60.667 0 116.5 11.667 167.5 35s95 57 132 101s65.833 97.667 86.5 161s31 134.666 31 213.999
s-10.333 150.666 -31 213.999s-49.5 117 -86.5 161s-81 77.667 -132 101s-106.833 35 -167.5 35zM538 1793c18.667 0 36.167 -3.49805 52.5 -10.498s30.5 -16.5 42.5 -28.5s21.333 -26.333 28 -43s10 -34.334 10 -53.001s-3.33301 -36 -10 -52s-16 -29.833 -28 -41.5
s-26.167 -20.834 -42.5 -27.501s-33.833 -10 -52.5 -10s-36 3.33301 -52 10s-30 16 -42 28s-21.333 26 -28 42s-10 33.667 -10 53c0 18.667 3.33301 36 10 52s16 30 28 42s26 21.5 42 28.5s33.333 10.5 52 10.5zM933 1793c18.667 0 36.167 -3.49805 52.5 -10.498
s30.5 -16.5 42.5 -28.5s21.333 -26.333 28 -43s10 -34.334 10 -53.001s-3.33301 -36 -10 -52s-16 -29.833 -28 -41.5s-26.167 -20.834 -42.5 -27.501s-33.833 -10 -52.5 -10s-36 3.33301 -52 10s-30 16 -42 28s-21.333 26 -28 42s-10 33.667 -10 53
c0 18.667 3.33301 36 10 52s16 30 28 42s26 21.5 42 28.5s33.333 10.5 52 10.5z" />
    <glyph glyph-name="multiply" unicode="&#xd7;" horiz-adv-x="1104" 
d="M798 150l-249 256l-247 -253l-122 124l247 253l-248 255l125 127l248 -254l248 253l121 -124l-247 -253l249 -256z" />
    <glyph glyph-name="Oslash" unicode="&#xd8;" horiz-adv-x="1477" 
d="M1242 1177c44.667 -62 79.168 -133 103.501 -213s36.5 -168 36.5 -264c0 -108.667 -15.5 -207.334 -46.5 -296.001s-74.833 -164.5 -131.5 -227.5s-124.334 -111.833 -203.001 -146.5s-166 -52 -262 -52c-73.333 0 -141.5 10 -204.5 30s-120.5 49 -172.5 87l-104 -127
l-137 111l116 142c-46 62 -81.167 133.167 -105.5 213.5s-36.5 168.833 -36.5 265.5c0 108.667 15.5 207.334 46.5 296.001s74.833 164.5 131.5 227.5s124.5 111.833 203.5 146.5s166.5 52 262.5 52c74 0 142.5 -10.167 205.5 -30.5s120.5 -49.833 172.5 -88.5l103 127
l137 -112zM321.001 700c0 -58.667 5.5 -112.668 16.5 -162.001s27.167 -94 48.5 -134l592 729c-67.333 52 -147 78 -239 78c-61.333 0 -117.5 -11.667 -168.5 -35s-95 -57 -132 -101s-65.833 -97.667 -86.5 -161s-31 -134.666 -31 -213.999zM739.001 188.999
c60.667 0 116.5 11.668 167.5 35.001s95 57 132 101s65.833 97.667 86.5 161s31 134.666 31 213.999c0 58 -5.5 111.333 -16.5 160s-26.5 93 -46.5 133l-592 -727c33.333 -25.333 69.833 -44.5 109.5 -57.5s82.5 -19.5 128.5 -19.5z" />
    <glyph glyph-name="Ugrave" unicode="&#xd9;" horiz-adv-x="1347" 
d="M1207 506c0 -86 -13.1709 -161.667 -39.5039 -227s-63.166 -120.333 -110.499 -165s-103.5 -78.334 -168.5 -101.001s-136.5 -34 -214.5 -34s-149.667 11.333 -215 34s-121.666 56.334 -168.999 101.001s-84.166 99.667 -110.499 165s-39.5 141 -39.5 227v894h217v-880
c0 -57.333 7.83301 -106.833 23.5 -148.5s37.5 -76 65.5 -103s61.333 -47 100 -60s81.334 -19.5 128.001 -19.5c46 0 88.333 6.5 127 19.5s72 33 100 60s49.833 61.333 65.5 103s23.5 91.167 23.5 148.5v880h217v-894zM391.996 1817h239l186 -308h-190z" />
    <glyph glyph-name="Uacute" unicode="&#xda;" horiz-adv-x="1347" 
d="M1207 506c0 -86 -13.1709 -161.667 -39.5039 -227s-63.166 -120.333 -110.499 -165s-103.5 -78.334 -168.5 -101.001s-136.5 -34 -214.5 -34s-149.667 11.333 -215 34s-121.666 56.334 -168.999 101.001s-84.166 99.667 -110.499 165s-39.5 141 -39.5 227v894h217v-880
c0 -57.333 7.83301 -106.833 23.5 -148.5s37.5 -76 65.5 -103s61.333 -47 100 -60s81.334 -19.5 128.001 -19.5c46 0 88.333 6.5 127 19.5s72 33 100 60s49.833 61.333 65.5 103s23.5 91.167 23.5 148.5v880h217v-894zM523.996 1509l186 308h239l-235 -308h-190z" />
    <glyph glyph-name="Ucircumflex" unicode="&#xdb;" horiz-adv-x="1347" 
d="M1207 506c0 -86 -13.1709 -161.667 -39.5039 -227s-63.166 -120.333 -110.499 -165s-103.5 -78.334 -168.5 -101.001s-136.5 -34 -214.5 -34s-149.667 11.333 -215 34s-121.666 56.334 -168.999 101.001s-84.166 99.667 -110.499 165s-39.5 141 -39.5 227v894h217v-880
c0 -57.333 7.83301 -106.833 23.5 -148.5s37.5 -76 65.5 -103s61.333 -47 100 -60s81.334 -19.5 128.001 -19.5c46 0 88.333 6.5 127 19.5s72 33 100 60s49.833 61.333 65.5 103s23.5 91.167 23.5 148.5v880h217v-894zM804.996 1508l-131 169l-130 -169h-194l204 303h241
l204 -303h-194z" />
    <glyph glyph-name="Udieresis" unicode="&#xdc;" horiz-adv-x="1347" 
d="M1207 506c0 -86 -13.1709 -161.667 -39.5039 -227s-63.166 -120.333 -110.499 -165s-103.5 -78.334 -168.5 -101.001s-136.5 -34 -214.5 -34s-149.667 11.333 -215 34s-121.666 56.334 -168.999 101.001s-84.166 99.667 -110.499 165s-39.5 141 -39.5 227v894h217v-880
c0 -57.333 7.83301 -106.833 23.5 -148.5s37.5 -76 65.5 -103s61.333 -47 100 -60s81.334 -19.5 128.001 -19.5c46 0 88.333 6.5 127 19.5s72 33 100 60s49.833 61.333 65.5 103s23.5 91.167 23.5 148.5v880h217v-894zM472.996 1793c18.667 0 36.167 -3.49805 52.5 -10.498
s30.5 -16.5 42.5 -28.5s21.333 -26.333 28 -43s10 -34.334 10 -53.001s-3.33301 -36 -10 -52s-16 -29.833 -28 -41.5s-26.167 -20.834 -42.5 -27.501s-33.833 -10 -52.5 -10s-36 3.33301 -52 10s-30 16 -42 28s-21.333 26 -28 42s-10 33.667 -10 53
c0 18.667 3.33301 36 10 52s16 30 28 42s26 21.5 42 28.5s33.333 10.5 52 10.5zM867.996 1793c18.667 0 36.167 -3.49805 52.5 -10.498s30.5 -16.5 42.5 -28.5s21.333 -26.333 28 -43s10 -34.334 10 -53.001s-3.33301 -36 -10 -52s-16 -29.833 -28 -41.5
s-26.167 -20.834 -42.5 -27.501s-33.833 -10 -52.5 -10s-36 3.33301 -52 10s-30 16 -42 28s-21.333 26 -28 42s-10 33.667 -10 53c0 18.667 3.33301 36 10 52s16 30 28 42s26 21.5 42 28.5s33.333 10.5 52 10.5z" />
    <glyph glyph-name="Yacute" unicode="&#xdd;" horiz-adv-x="1200" 
d="M711 553v-553h-217v556l-487 844h252l345 -608l344 608h245zM453 1509l186 308h239l-235 -308h-190z" />
    <glyph glyph-name="Thorn" unicode="&#xde;" horiz-adv-x="1187" 
d="M635 1144c75.333 0 142.5 -9.83398 201.5 -29.501s108.833 -48 149.5 -85s71.667 -82.167 93 -135.5s32 -113.666 32 -180.999c0 -66.667 -10.667 -126.5 -32 -179.5s-52.333 -98 -93 -135s-90.5 -65.333 -149.5 -85s-126.167 -29.5 -201.5 -29.5h-265v-284h-215v1400
h215v-256h265zM631 484.999c83.333 0 147 18.6689 191 56.002s66 94.666 66 171.999s-22 134.666 -66 171.999s-107.667 56 -191 56h-261v-456h261z" />
    <glyph glyph-name="germandbls" unicode="&#xdf;" horiz-adv-x="1102" 
d="M128 1032c0 56 8.16992 109.831 24.5029 161.498s42 97.334 77 137.001s80 71.334 135 95.001s121.5 35.5 199.5 35.5c64 0 122.333 -10 175 -30s98 -47.833 136 -83.5s67.333 -77.5 88 -125.5s31 -100 31 -156c0 -42.667 -5 -82.167 -15 -118.5s-24 -68.833 -42 -97.5
s-39.333 -53.167 -64 -73.5s-51.667 -35.5 -81 -45.5c34 -8.66699 65.5 -23.5 94.5 -44.5s54.333 -46.5 76 -76.5s38.667 -63.5 51 -100.5s18.5 -75.833 18.5 -116.5c0 -64 -10 -121.5 -30 -172.5s-47.667 -94.5 -83 -130.5s-77.333 -63.5 -126 -82.5s-102 -28.5 -160 -28.5
c-41.333 0 -77.333 2.83301 -108 8.5s-59 13.167 -85 22.5l31 183c40 -17.333 84 -26 132 -26c68.667 0 123 19.667 163 59s60 97.333 60 174c0 40 -6.33301 74.5 -19 103.5s-30.5 52.833 -53.5 71.5s-50.833 32.5 -83.5 41.5s-69 13.5 -109 13.5h-42v183h20
c33.333 0 65.166 3.83301 95.499 11.5s56.833 20.334 79.5 38.001s40.667 41 54 70s20 65.167 20 108.5c0 38 -5.83301 71.333 -17.5 100s-27.834 52.5 -48.501 71.5s-44.834 33.333 -72.501 43s-57.5 14.5 -89.5 14.5c-36.667 0 -69.334 -6 -98.001 -18
s-52.667 -28.833 -72 -50.5s-34.166 -47.834 -44.499 -78.501s-15.5 -64.667 -15.5 -102v-1021h-202v1032z" />
    <glyph glyph-name="agrave" unicode="&#xe0;" horiz-adv-x="1107" 
d="M972 962v-962.004h-200v135c-30 -47.333 -67.5 -85.166 -112.5 -113.499s-99.833 -42.5 -164.5 -42.5c-60 0 -115.5 12.167 -166.5 36.5s-95 58.5 -132 102.5s-66 96.833 -87 158.5s-31.5 129.834 -31.5 204.501s10.5 142.834 31.5 204.501s50 114.5 87 158.5
s81 78.167 132 102.5s106.5 36.5 166.5 36.5c64.667 0 119.5 -14.167 164.5 -42.5s82.5 -66.166 112.5 -113.499v135h200zM533 171.996c36.667 0 70.334 7.33105 101.001 21.998s56.667 35.334 78 62.001s38 59 50 97s18 80.667 18 128c0 46.667 -6 89.167 -18 127.5
s-28.667 70.833 -50 97.5s-47.333 47.334 -78 62.001s-64.334 22 -101.001 22c-38 0 -72.167 -7.5 -102.5 -22.5s-56.333 -36 -78 -63s-38.167 -59.5 -49.5 -97.5s-17 -80 -17 -126s5.66699 -88 17 -126s27.833 -70.5 49.5 -97.5s47.667 -48 78 -63s64.5 -22.5 102.5 -22.5z
M264 1405.99h239l186 -308h-190z" />
    <glyph glyph-name="aacute" unicode="&#xe1;" horiz-adv-x="1107" 
d="M972 962v-962.004h-200v135c-30 -47.333 -67.5 -85.166 -112.5 -113.499s-99.833 -42.5 -164.5 -42.5c-60 0 -115.5 12.167 -166.5 36.5s-95 58.5 -132 102.5s-66 96.833 -87 158.5s-31.5 129.834 -31.5 204.501s10.5 142.834 31.5 204.501s50 114.5 87 158.5
s81 78.167 132 102.5s106.5 36.5 166.5 36.5c64.667 0 119.5 -14.167 164.5 -42.5s82.5 -66.166 112.5 -113.499v135h200zM533 171.996c36.667 0 70.334 7.33105 101.001 21.998s56.667 35.334 78 62.001s38 59 50 97s18 80.667 18 128c0 46.667 -6 89.167 -18 127.5
s-28.667 70.833 -50 97.5s-47.333 47.334 -78 62.001s-64.334 22 -101.001 22c-38 0 -72.167 -7.5 -102.5 -22.5s-56.333 -36 -78 -63s-38.167 -59.5 -49.5 -97.5s-17 -80 -17 -126s5.66699 -88 17 -126s27.833 -70.5 49.5 -97.5s47.667 -48 78 -63s64.5 -22.5 102.5 -22.5z
M413 1097.99l186 308h239l-235 -308h-190z" />
    <glyph glyph-name="acircumflex" unicode="&#xe2;" horiz-adv-x="1107" 
d="M972 962v-962.004h-200v135c-30 -47.333 -67.5 -85.166 -112.5 -113.499s-99.833 -42.5 -164.5 -42.5c-60 0 -115.5 12.167 -166.5 36.5s-95 58.5 -132 102.5s-66 96.833 -87 158.5s-31.5 129.834 -31.5 204.501s10.5 142.834 31.5 204.501s50 114.5 87 158.5
s81 78.167 132 102.5s106.5 36.5 166.5 36.5c64.667 0 119.5 -14.167 164.5 -42.5s82.5 -66.166 112.5 -113.499v135h200zM533 171.996c36.667 0 70.334 7.33105 101.001 21.998s56.667 35.334 78 62.001s38 59 50 97s18 80.667 18 128c0 46.667 -6 89.167 -18 127.5
s-28.667 70.833 -50 97.5s-47.333 47.334 -78 62.001s-64.334 22 -101.001 22c-38 0 -72.167 -7.5 -102.5 -22.5s-56.333 -36 -78 -63s-38.167 -59.5 -49.5 -97.5s-17 -80 -17 -126s5.66699 -88 17 -126s27.833 -70.5 49.5 -97.5s47.667 -48 78 -63s64.5 -22.5 102.5 -22.5z
M685 1096.99l-131 169l-130 -169h-194l204 303h241l204 -303h-194z" />
    <glyph glyph-name="atilde" unicode="&#xe3;" horiz-adv-x="1107" 
d="M972 962v-962.004h-200v135c-30 -47.333 -67.5 -85.166 -112.5 -113.499s-99.833 -42.5 -164.5 -42.5c-60 0 -115.5 12.167 -166.5 36.5s-95 58.5 -132 102.5s-66 96.833 -87 158.5s-31.5 129.834 -31.5 204.501s10.5 142.834 31.5 204.501s50 114.5 87 158.5
s81 78.167 132 102.5s106.5 36.5 166.5 36.5c64.667 0 119.5 -14.167 164.5 -42.5s82.5 -66.166 112.5 -113.499v135h200zM533 171.996c36.667 0 70.334 7.33105 101.001 21.998s56.667 35.334 78 62.001s38 59 50 97s18 80.667 18 128c0 46.667 -6 89.167 -18 127.5
s-28.667 70.833 -50 97.5s-47.333 47.334 -78 62.001s-64.334 22 -101.001 22c-38 0 -72.167 -7.5 -102.5 -22.5s-56.333 -36 -78 -63s-38.167 -59.5 -49.5 -97.5s-17 -80 -17 -126s5.66699 -88 17 -126s27.833 -70.5 49.5 -97.5s47.667 -48 78 -63s64.5 -22.5 102.5 -22.5z
M214 1253.99c30.667 41.333 63.832 71.5 99.499 90.5s76.5 28.5 122.5 28.5c30.667 0 57.167 -3.66699 79.5 -11s42.5 -15.166 60.5 -23.499s34.5 -16.166 49.5 -23.499s30.833 -11 47.5 -11c20 0 39.167 5.5 57.5 16.5s37.833 27.5 58.5 49.5l107 -120
c-31.333 -41.333 -64.666 -71.5 -99.999 -90.5s-76.333 -28.5 -123 -28.5c-30 0 -56.167 3.66699 -78.5 11s-42.333 15.166 -60 23.499s-34.167 16.166 -49.5 23.499s-31.333 11 -48 11c-20 0 -39.167 -5.5 -57.5 -16.5s-37.833 -27.5 -58.5 -49.5z" />
    <glyph glyph-name="adieresis" unicode="&#xe4;" horiz-adv-x="1107" 
d="M972 962v-962.004h-200v135c-30 -47.333 -67.5 -85.166 -112.5 -113.499s-99.833 -42.5 -164.5 -42.5c-60 0 -115.5 12.167 -166.5 36.5s-95 58.5 -132 102.5s-66 96.833 -87 158.5s-31.5 129.834 -31.5 204.501s10.5 142.834 31.5 204.501s50 114.5 87 158.5
s81 78.167 132 102.5s106.5 36.5 166.5 36.5c64.667 0 119.5 -14.167 164.5 -42.5s82.5 -66.166 112.5 -113.499v135h200zM533 171.996c36.667 0 70.334 7.33105 101.001 21.998s56.667 35.334 78 62.001s38 59 50 97s18 80.667 18 128c0 46.667 -6 89.167 -18 127.5
s-28.667 70.833 -50 97.5s-47.333 47.334 -78 62.001s-64.334 22 -101.001 22c-38 0 -72.167 -7.5 -102.5 -22.5s-56.333 -36 -78 -63s-38.167 -59.5 -49.5 -97.5s-17 -80 -17 -126s5.66699 -88 17 -126s27.833 -70.5 49.5 -97.5s47.667 -48 78 -63s64.5 -22.5 102.5 -22.5z
M355 1382.99c18.667 0 36.167 -3.49805 52.5 -10.498s30.5 -16.5 42.5 -28.5s21.333 -26.333 28 -43s10 -34.334 10 -53.001s-3.33301 -36 -10 -52s-16 -29.833 -28 -41.5s-26.167 -20.834 -42.5 -27.501s-33.833 -10 -52.5 -10s-36 3.33301 -52 10s-30 16 -42 28
s-21.333 26 -28 42s-10 33.667 -10 53c0 18.667 3.33301 36 10 52s16 30 28 42s26 21.5 42 28.5s33.333 10.5 52 10.5zM750 1383c18.667 0 36.167 -3.49805 52.5 -10.498s30.5 -16.5 42.5 -28.5s21.333 -26.333 28 -43s10 -34.334 10 -53.001s-3.33301 -36 -10 -52
s-16 -29.833 -28 -41.5s-26.167 -20.834 -42.5 -27.501s-33.833 -10 -52.5 -10s-36 3.33301 -52 10s-30 16 -42 28s-21.333 26 -28 42s-10 33.667 -10 53c0 18.667 3.33301 36 10 52s16 30 28 42s26 21.5 42 28.5s33.333 10.5 52 10.5z" />
    <glyph glyph-name="aring" unicode="&#xe5;" horiz-adv-x="1107" 
d="M972 962v-962.004h-200v135c-30 -47.333 -67.5 -85.166 -112.5 -113.499s-99.833 -42.5 -164.5 -42.5c-60 0 -115.5 12.167 -166.5 36.5s-95 58.5 -132 102.5s-66 96.833 -87 158.5s-31.5 129.834 -31.5 204.501s10.5 142.834 31.5 204.501s50 114.5 87 158.5
s81 78.167 132 102.5s106.5 36.5 166.5 36.5c64.667 0 119.5 -14.167 164.5 -42.5s82.5 -66.166 112.5 -113.499v135h200zM533 171.996c36.667 0 70.334 7.33105 101.001 21.998s56.667 35.334 78 62.001s38 59 50 97s18 80.667 18 128c0 46.667 -6 89.167 -18 127.5
s-28.667 70.833 -50 97.5s-47.333 47.334 -78 62.001s-64.334 22 -101.001 22c-38 0 -72.167 -7.5 -102.5 -22.5s-56.333 -36 -78 -63s-38.167 -59.5 -49.5 -97.5s-17 -80 -17 -126s5.66699 -88 17 -126s27.833 -70.5 49.5 -97.5s47.667 -48 78 -63s64.5 -22.5 102.5 -22.5z
M553 1081.99c-32 0 -62 6 -90 18s-52.5 28.167 -73.5 48.5s-37.5 44.5 -49.5 72.5s-18 58 -18 90c0 31.333 6 60.833 18 88.5s28.5 51.667 49.5 72s45.5 36.5 73.5 48.5s58 18 90 18s62 -6 90 -18s52.5 -28.167 73.5 -48.5s37.667 -44.333 50 -72s18.5 -57.167 18.5 -88.5
c0 -32 -6.16699 -62 -18.5 -90s-29 -52.167 -50 -72.5s-45.5 -36.5 -73.5 -48.5s-58 -18 -90 -18zM553 1201.99c14.667 0 28.5 2.83301 41.5 8.5s24.333 13.334 34 23.001s17.334 21.167 23.001 34.5s8.5 27.666 8.5 42.999c0 14.667 -2.83301 28.667 -8.5 42
s-13.334 24.666 -23.001 33.999s-21 16.833 -34 22.5s-26.833 8.5 -41.5 8.5c-14 0 -27.5 -2.83301 -40.5 -8.5s-24.167 -13.167 -33.5 -22.5s-16.833 -20.666 -22.5 -33.999s-8.5 -27.333 -8.5 -42c0 -15.333 2.83301 -29.666 8.5 -42.999s13.167 -24.833 22.5 -34.5
s20.5 -17.334 33.5 -23.001s26.5 -8.5 40.5 -8.5z" />
    <glyph glyph-name="ae" unicode="&#xe6;" horiz-adv-x="1589" 
d="M1511 483c0 -12.667 -0.332031 -25.1641 -0.999023 -37.4971s-1.66699 -24.166 -3 -35.499h-641c5.33301 -43.333 15.666 -80.833 30.999 -112.5s34.333 -57.834 57 -78.501s48.334 -35.834 77.001 -45.501s59.667 -14.5 93 -14.5c46.667 0 91 8.5 133 25.5
s80 40.5 114 70.5l103 -142c-52.667 -48.667 -109.5 -83.167 -170.5 -103.5s-125.833 -30.5 -194.5 -30.5c-75.333 0 -143 14.167 -203 42.5s-110 69.5 -150 123.5c-18 -22.667 -38 -44.167 -60 -64.5s-46.833 -38 -74.5 -53s-58.334 -26.833 -92.001 -35.5
s-71.167 -13 -112.5 -13c-54 0 -102 7.33301 -144 22s-77.5 35.167 -106.5 61.5s-51 57.833 -66 94.5s-22.5 77 -22.5 121c0 44.667 8.16699 84.5 24.5 119.5s40 64.833 71 89.5s69 43.5 114 56.5s95.833 19.5 152.5 19.5h221v18c0 72.667 -18.5 127 -55.5 163
s-90.833 54 -161.5 54c-46.667 0 -89.834 -8.33301 -129.501 -25s-74.5 -36.334 -104.5 -59.001l-81 157c48 38 101.167 66 159.5 84s119.166 27 182.499 27c72 0 134.167 -12.667 186.5 -38s93.5 -63 123.5 -113c36.667 49.333 82.334 87 137.001 113
s114.334 39 179.001 39c62 0 118.333 -11.667 169 -35s94.167 -56.833 130.5 -100.5s64.5 -96.334 84.5 -158.001s30 -130.5 30 -206.5zM1308 560.003c-8.66699 77.333 -31.833 136.833 -69.5 178.5s-86.5 62.5 -146.5 62.5c-64.667 0 -116 -21 -154 -63
s-61.667 -101.333 -71 -178h441zM450.002 152.003c43.333 0 85.998 11 127.998 33s78 55.667 108 101c-12.667 38.667 -21 81.667 -25 129h-191c-33.333 0 -61.666 -3.5 -84.999 -10.5s-42.166 -16.5 -56.499 -28.5s-24.833 -26 -31.5 -42s-10 -33 -10 -51
s3.33301 -35 10 -51s16.667 -30 30 -42s30.333 -21.333 51 -28s44.667 -10 72 -10z" />
    <glyph glyph-name="ccedilla" unicode="&#xe7;" horiz-adv-x="911" 
d="M531 983c67.333 0 129.501 -13.1689 186.501 -39.502s104.5 -64.5 142.5 -114.5l-133 -129c-28 28.667 -57.833 51 -89.5 67s-67.5 24 -107.5 24c-35.333 0 -68 -7 -98 -21s-56 -34.333 -78 -61s-39.167 -59.167 -51.5 -97.5s-18.5 -81.833 -18.5 -130.5
s6.16699 -92.167 18.5 -130.5s29.5 -70.833 51.5 -97.5s48 -47 78 -61s62.333 -21 97 -21c40 0 77 8.5 111 25.5s64 39.167 90 66.5l130 -130c-38.667 -50 -86.334 -88.167 -143.001 -114.5s-118.667 -39.5 -186 -39.5c-68 0 -130 12.167 -186 36.5
s-103.667 58.5 -143 102.5s-69.833 96.833 -91.5 158.5s-32.5 129.834 -32.5 204.501s10.833 142.834 32.5 204.501s52.167 114.5 91.5 158.5s87 78.167 143 102.5s118 36.5 186 36.5zM520.001 -322.002h-193l101 339l185 -11z" />
    <glyph glyph-name="egrave" unicode="&#xe8;" horiz-adv-x="1009" 
d="M931 483c0 -12.667 -0.329102 -25.165 -0.996094 -37.498s-1.66699 -24.166 -3 -35.499h-641c5.33301 -43.333 15.666 -80.833 30.999 -112.5s34.333 -57.834 57 -78.501s48.334 -35.834 77.001 -45.501s59.667 -14.5 93 -14.5c46 0 90.167 8.5 132.5 25.5
s80.5 40.5 114.5 70.5l103 -142c-52.667 -48.667 -109.5 -83.167 -170.5 -103.5s-125.5 -30.5 -193.5 -30.5c-67.333 0 -128.833 11.667 -184.5 35s-103.334 56.666 -143.001 99.999s-70.334 95.833 -92.001 157.5s-32.5 131.167 -32.5 208.5c0 76.667 10.5 146 31.5 208
s50.833 114.833 89.5 158.5s84.667 77.334 138 101.001s112.666 35.5 177.999 35.5c62 0 118.5 -11.667 169.5 -35s94.667 -56.833 131 -100.5s64.666 -96.334 84.999 -158.001s30.5 -130.5 30.5 -206.5zM728.004 561.002c-9.33301 76.667 -32.667 135.832 -70 177.499
s-86 62.5 -146 62.5c-64.667 0 -116 -21.167 -154 -63.5s-61.667 -101.166 -71 -176.499h441zM225.003 1406h239l186 -308h-190z" />
    <glyph glyph-name="eacute" unicode="&#xe9;" horiz-adv-x="1009" 
d="M931 483c0 -12.667 -0.329102 -25.165 -0.996094 -37.498s-1.66699 -24.166 -3 -35.499h-641c5.33301 -43.333 15.666 -80.833 30.999 -112.5s34.333 -57.834 57 -78.501s48.334 -35.834 77.001 -45.501s59.667 -14.5 93 -14.5c46 0 90.167 8.5 132.5 25.5
s80.5 40.5 114.5 70.5l103 -142c-52.667 -48.667 -109.5 -83.167 -170.5 -103.5s-125.5 -30.5 -193.5 -30.5c-67.333 0 -128.833 11.667 -184.5 35s-103.334 56.666 -143.001 99.999s-70.334 95.833 -92.001 157.5s-32.5 131.167 -32.5 208.5c0 76.667 10.5 146 31.5 208
s50.833 114.833 89.5 158.5s84.667 77.334 138 101.001s112.666 35.5 177.999 35.5c62 0 118.5 -11.667 169.5 -35s94.667 -56.833 131 -100.5s64.666 -96.334 84.999 -158.001s30.5 -130.5 30.5 -206.5zM728.004 561.002c-9.33301 76.667 -32.667 135.832 -70 177.499
s-86 62.5 -146 62.5c-64.667 0 -116 -21.167 -154 -63.5s-61.667 -101.166 -71 -176.499h441zM374.003 1098l186 308h239l-235 -308h-190z" />
    <glyph glyph-name="ecircumflex" unicode="&#xea;" horiz-adv-x="1009" 
d="M931 483c0 -12.667 -0.329102 -25.165 -0.996094 -37.498s-1.66699 -24.166 -3 -35.499h-641c5.33301 -43.333 15.666 -80.833 30.999 -112.5s34.333 -57.834 57 -78.501s48.334 -35.834 77.001 -45.501s59.667 -14.5 93 -14.5c46 0 90.167 8.5 132.5 25.5
s80.5 40.5 114.5 70.5l103 -142c-52.667 -48.667 -109.5 -83.167 -170.5 -103.5s-125.5 -30.5 -193.5 -30.5c-67.333 0 -128.833 11.667 -184.5 35s-103.334 56.666 -143.001 99.999s-70.334 95.833 -92.001 157.5s-32.5 131.167 -32.5 208.5c0 76.667 10.5 146 31.5 208
s50.833 114.833 89.5 158.5s84.667 77.334 138 101.001s112.666 35.5 177.999 35.5c62 0 118.5 -11.667 169.5 -35s94.667 -56.833 131 -100.5s64.666 -96.334 84.999 -158.001s30.5 -130.5 30.5 -206.5zM728.004 561.002c-9.33301 76.667 -32.667 135.832 -70 177.499
s-86 62.5 -146 62.5c-64.667 0 -116 -21.167 -154 -63.5s-61.667 -101.166 -71 -176.499h441zM646.003 1097l-131 169l-130 -169h-194l204 303h241l204 -303h-194z" />
    <glyph glyph-name="edieresis" unicode="&#xeb;" horiz-adv-x="1009" 
d="M931 483c0 -12.667 -0.329102 -25.165 -0.996094 -37.498s-1.66699 -24.166 -3 -35.499h-641c5.33301 -43.333 15.666 -80.833 30.999 -112.5s34.333 -57.834 57 -78.501s48.334 -35.834 77.001 -45.501s59.667 -14.5 93 -14.5c46 0 90.167 8.5 132.5 25.5
s80.5 40.5 114.5 70.5l103 -142c-52.667 -48.667 -109.5 -83.167 -170.5 -103.5s-125.5 -30.5 -193.5 -30.5c-67.333 0 -128.833 11.667 -184.5 35s-103.334 56.666 -143.001 99.999s-70.334 95.833 -92.001 157.5s-32.5 131.167 -32.5 208.5c0 76.667 10.5 146 31.5 208
s50.833 114.833 89.5 158.5s84.667 77.334 138 101.001s112.666 35.5 177.999 35.5c62 0 118.5 -11.667 169.5 -35s94.667 -56.833 131 -100.5s64.666 -96.334 84.999 -158.001s30.5 -130.5 30.5 -206.5zM728.004 561.002c-9.33301 76.667 -32.667 135.832 -70 177.499
s-86 62.5 -146 62.5c-64.667 0 -116 -21.167 -154 -63.5s-61.667 -101.166 -71 -176.499h441zM316.003 1383c18.667 0 36.167 -3.49805 52.5 -10.498s30.5 -16.5 42.5 -28.5s21.333 -26.333 28 -43s10 -34.334 10 -53.001s-3.33301 -36 -10 -52s-16 -29.833 -28 -41.5
s-26.167 -20.834 -42.5 -27.501s-33.833 -10 -52.5 -10s-36 3.33301 -52 10s-30 16 -42 28s-21.333 26 -28 42s-10 33.667 -10 53c0 18.667 3.33301 36 10 52s16 30 28 42s26 21.5 42 28.5s33.333 10.5 52 10.5zM711.003 1383c18.667 0 36.167 -3.49805 52.5 -10.498
s30.5 -16.5 42.5 -28.5s21.333 -26.333 28 -43s10 -34.334 10 -53.001s-3.33301 -36 -10 -52s-16 -29.833 -28 -41.5s-26.167 -20.834 -42.5 -27.501s-33.833 -10 -52.5 -10s-36 3.33301 -52 10s-30 16 -42 28s-21.333 26 -28 42s-10 33.667 -10 53
c0 18.667 3.33301 36 10 52s16 30 28 42s26 21.5 42 28.5s33.333 10.5 52 10.5z" />
    <glyph glyph-name="igrave" unicode="&#xec;" horiz-adv-x="472" 
d="M337 0h-202v962h202v-962zM-54 1406h239l186 -308h-190z" />
    <glyph glyph-name="iacute" unicode="&#xed;" horiz-adv-x="472" 
d="M337 0h-202v962h202v-962zM99 1098l186 308h239l-235 -308h-190z" />
    <glyph glyph-name="icircumflex" unicode="&#xee;" horiz-adv-x="472" 
d="M337 0h-202v962h202v-962zM367 1097l-131 169l-130 -169h-194l204 303h241l204 -303h-194z" />
    <glyph glyph-name="idieresis" unicode="&#xef;" horiz-adv-x="472" 
d="M337 0h-202v962h202v-962zM37 1383c18.667 0 36.167 -3.49805 52.5 -10.498s30.5 -16.5 42.5 -28.5s21.333 -26.333 28 -43s10 -34.334 10 -53.001s-3.33301 -36 -10 -52s-16 -29.833 -28 -41.5s-26.167 -20.834 -42.5 -27.501s-33.833 -10 -52.5 -10s-36 3.33301 -52 10
s-30 16 -42 28s-21.333 26 -28 42s-10 33.667 -10 53c0 18.667 3.33301 36 10 52s16 30 28 42s26 21.5 42 28.5s33.333 10.5 52 10.5zM432 1383c18.667 0 36.167 -3.49805 52.5 -10.498s30.5 -16.5 42.5 -28.5s21.333 -26.333 28 -43s10 -34.334 10 -53.001
s-3.33301 -36 -10 -52s-16 -29.833 -28 -41.5s-26.167 -20.834 -42.5 -27.501s-33.833 -10 -52.5 -10s-36 3.33301 -52 10s-30 16 -42 28s-21.333 26 -28 42s-10 33.667 -10 53c0 18.667 3.33301 36 10 52s16 30 28 42s26 21.5 42 28.5s33.333 10.5 52 10.5z" />
    <glyph glyph-name="eth" unicode="&#xf0;" horiz-adv-x="1074" 
d="M687 1219c53.333 -54 99.334 -111.333 138.001 -172s70.667 -122.5 96 -185.5s44.166 -126.333 56.499 -190s18.5 -125.5 18.5 -185.5c0 -73.333 -11.333 -141 -34 -203s-54.334 -115.5 -95.001 -160.5s-89.167 -80.167 -145.5 -105.5s-118.166 -38 -185.499 -38
c-66 0 -127 12 -183 36s-104.333 57.333 -145 100s-72.5 93.5 -95.5 152.5s-34.5 123.5 -34.5 193.5c0 69.333 10.667 133.5 32 192.5s50.5 110 87.5 153s80.667 76.667 131 101s104.833 36.5 163.5 36.5c49.333 0 94.333 -9 135 -27s77 -44 109 -78
c-22 50 -50 98.167 -84 144.5s-75 91.166 -123 134.499l-213 -136l-74 114l172 112c-25.333 17.333 -52 34.333 -80 51s-57.667 33.334 -89 50.001l107 145c84 -39.333 160 -86 228 -140l187 121l75 -114zM539.001 169c36.667 0 70.5 7 101.5 21s57.833 33.833 80.5 59.5
s40.334 56.5 53.001 92.5s19 76 19 120c0 45.333 -6.33301 86.166 -19 122.499s-30.334 67.333 -53.001 93s-49.5 45.5 -80.5 59.5s-64.833 21 -101.5 21s-70.5 -7 -101.5 -21s-57.833 -33.833 -80.5 -59.5s-40.334 -56.667 -53.001 -93s-19 -77.166 -19 -122.499
c0 -44 6.33301 -84 19 -120s30.334 -66.833 53.001 -92.5s49.5 -45.5 80.5 -59.5s64.833 -21 101.5 -21z" />
    <glyph glyph-name="ntilde" unicode="&#xf1;" horiz-adv-x="1076" 
d="M608 983c50.667 0 96.832 -8.33301 138.499 -25s77.5 -40.167 107.5 -70.5s53.333 -67 70 -110s25 -90.833 25 -143.5v-634h-203v573c0 70.667 -17.333 124.5 -52 161.5s-83 55.5 -145 55.5c-29.333 0 -56.666 -4.83301 -81.999 -14.5s-47.5 -24 -66.5 -43
s-34 -42.167 -45 -69.5s-16.5 -58.333 -16.5 -93v-570h-204v962h198v-130c16 28 34.5 51.667 55.5 71s43.5 34.833 67.5 46.5s48.833 20.167 74.5 25.5s51.5 8 77.5 8zM208.998 1254c30.667 41.333 63.832 71.5 99.499 90.5s76.5 28.5 122.5 28.5
c30.667 0 57.167 -3.66699 79.5 -11s42.5 -15.166 60.5 -23.499s34.5 -16.166 49.5 -23.499s30.833 -11 47.5 -11c20 0 39.167 5.5 57.5 16.5s37.833 27.5 58.5 49.5l107 -120c-31.333 -41.333 -64.666 -71.5 -99.999 -90.5s-76.333 -28.5 -123 -28.5
c-30 0 -56.167 3.66699 -78.5 11s-42.333 15.166 -60 23.499s-34.167 16.166 -49.5 23.499s-31.333 11 -48 11c-20 0 -39.167 -5.5 -57.5 -16.5s-37.833 -27.5 -58.5 -49.5z" />
    <glyph glyph-name="ograve" unicode="&#xf2;" horiz-adv-x="1078" 
d="M539 983c67.333 0 129.333 -12.167 186 -36.5s105.334 -58.5 146.001 -102.5s72.334 -96.833 95.001 -158.5s34 -129.834 34 -204.501s-11.333 -142.834 -34 -204.501s-54.334 -114.5 -95.001 -158.5s-89.334 -78.167 -146.001 -102.5s-118.667 -36.5 -186 -36.5
s-129.333 12.167 -186 36.5s-105.334 58.5 -146.001 102.5s-72.334 96.833 -95.001 158.5s-34 129.834 -34 204.501s11.333 142.834 34 204.501s54.334 114.5 95.001 158.5s89.334 78.167 146.001 102.5s118.667 36.5 186 36.5zM539 791
c-37.333 0 -71.5 -7.16699 -102.5 -21.5s-57.833 -35 -80.5 -62s-40.334 -59.5 -53.001 -97.5s-19 -81 -19 -129s6.33301 -91.167 19 -129.5s30.334 -70.833 53.001 -97.5s49.5 -47.167 80.5 -61.5s65.167 -21.5 102.5 -21.5c36.667 0 70.667 7.16699 102 21.5
s58.5 34.833 81.5 61.5s40.833 59.167 53.5 97.5s19 81.5 19 129.5s-6.33301 91 -19 129s-30.5 70.5 -53.5 97.5s-50.167 47.667 -81.5 62s-65.333 21.5 -102 21.5zM249 1405h239l186 -308h-190z" />
    <glyph glyph-name="oacute" unicode="&#xf3;" horiz-adv-x="1078" 
d="M539 983c67.333 0 129.333 -12.167 186 -36.5s105.334 -58.5 146.001 -102.5s72.334 -96.833 95.001 -158.5s34 -129.834 34 -204.501s-11.333 -142.834 -34 -204.501s-54.334 -114.5 -95.001 -158.5s-89.334 -78.167 -146.001 -102.5s-118.667 -36.5 -186 -36.5
s-129.333 12.167 -186 36.5s-105.334 58.5 -146.001 102.5s-72.334 96.833 -95.001 158.5s-34 129.834 -34 204.501s11.333 142.834 34 204.501s54.334 114.5 95.001 158.5s89.334 78.167 146.001 102.5s118.667 36.5 186 36.5zM539 791
c-37.333 0 -71.5 -7.16699 -102.5 -21.5s-57.833 -35 -80.5 -62s-40.334 -59.5 -53.001 -97.5s-19 -81 -19 -129s6.33301 -91.167 19 -129.5s30.334 -70.833 53.001 -97.5s49.5 -47.167 80.5 -61.5s65.167 -21.5 102.5 -21.5c36.667 0 70.667 7.16699 102 21.5
s58.5 34.833 81.5 61.5s40.833 59.167 53.5 97.5s19 81.5 19 129.5s-6.33301 91 -19 129s-30.5 70.5 -53.5 97.5s-50.167 47.667 -81.5 62s-65.333 21.5 -102 21.5zM398 1097l186 308h239l-235 -308h-190z" />
    <glyph glyph-name="ocircumflex" unicode="&#xf4;" horiz-adv-x="1078" 
d="M539 983c67.333 0 129.333 -12.167 186 -36.5s105.334 -58.5 146.001 -102.5s72.334 -96.833 95.001 -158.5s34 -129.834 34 -204.501s-11.333 -142.834 -34 -204.501s-54.334 -114.5 -95.001 -158.5s-89.334 -78.167 -146.001 -102.5s-118.667 -36.5 -186 -36.5
s-129.333 12.167 -186 36.5s-105.334 58.5 -146.001 102.5s-72.334 96.833 -95.001 158.5s-34 129.834 -34 204.501s11.333 142.834 34 204.501s54.334 114.5 95.001 158.5s89.334 78.167 146.001 102.5s118.667 36.5 186 36.5zM539 791
c-37.333 0 -71.5 -7.16699 -102.5 -21.5s-57.833 -35 -80.5 -62s-40.334 -59.5 -53.001 -97.5s-19 -81 -19 -129s6.33301 -91.167 19 -129.5s30.334 -70.833 53.001 -97.5s49.5 -47.167 80.5 -61.5s65.167 -21.5 102.5 -21.5c36.667 0 70.667 7.16699 102 21.5
s58.5 34.833 81.5 61.5s40.833 59.167 53.5 97.5s19 81.5 19 129.5s-6.33301 91 -19 129s-30.5 70.5 -53.5 97.5s-50.167 47.667 -81.5 62s-65.333 21.5 -102 21.5zM670 1095l-131 169l-130 -169h-194l204 303h241l204 -303h-194z" />
    <glyph glyph-name="otilde" unicode="&#xf5;" horiz-adv-x="1078" 
d="M539 983c67.333 0 129.333 -12.167 186 -36.5s105.334 -58.5 146.001 -102.5s72.334 -96.833 95.001 -158.5s34 -129.834 34 -204.501s-11.333 -142.834 -34 -204.501s-54.334 -114.5 -95.001 -158.5s-89.334 -78.167 -146.001 -102.5s-118.667 -36.5 -186 -36.5
s-129.333 12.167 -186 36.5s-105.334 58.5 -146.001 102.5s-72.334 96.833 -95.001 158.5s-34 129.834 -34 204.501s11.333 142.834 34 204.501s54.334 114.5 95.001 158.5s89.334 78.167 146.001 102.5s118.667 36.5 186 36.5zM539 791
c-37.333 0 -71.5 -7.16699 -102.5 -21.5s-57.833 -35 -80.5 -62s-40.334 -59.5 -53.001 -97.5s-19 -81 -19 -129s6.33301 -91.167 19 -129.5s30.334 -70.833 53.001 -97.5s49.5 -47.167 80.5 -61.5s65.167 -21.5 102.5 -21.5c36.667 0 70.667 7.16699 102 21.5
s58.5 34.833 81.5 61.5s40.833 59.167 53.5 97.5s19 81.5 19 129.5s-6.33301 91 -19 129s-30.5 70.5 -53.5 97.5s-50.167 47.667 -81.5 62s-65.333 21.5 -102 21.5zM199 1253c30.667 41.333 63.832 71.5 99.499 90.5s76.5 28.5 122.5 28.5
c30.667 0 57.167 -3.66699 79.5 -11s42.5 -15.166 60.5 -23.499s34.5 -16.166 49.5 -23.499s30.833 -11 47.5 -11c20 0 39.167 5.5 57.5 16.5s37.833 27.5 58.5 49.5l107 -120c-31.333 -41.333 -64.666 -71.5 -99.999 -90.5s-76.333 -28.5 -123 -28.5
c-30 0 -56.167 3.66699 -78.5 11s-42.333 15.166 -60 23.499s-34.167 16.166 -49.5 23.499s-31.333 11 -48 11c-20 0 -39.167 -5.5 -57.5 -16.5s-37.833 -27.5 -58.5 -49.5z" />
    <glyph glyph-name="odieresis" unicode="&#xf6;" horiz-adv-x="1078" 
d="M539 983c67.333 0 129.333 -12.167 186 -36.5s105.334 -58.5 146.001 -102.5s72.334 -96.833 95.001 -158.5s34 -129.834 34 -204.501s-11.333 -142.834 -34 -204.501s-54.334 -114.5 -95.001 -158.5s-89.334 -78.167 -146.001 -102.5s-118.667 -36.5 -186 -36.5
s-129.333 12.167 -186 36.5s-105.334 58.5 -146.001 102.5s-72.334 96.833 -95.001 158.5s-34 129.834 -34 204.501s11.333 142.834 34 204.501s54.334 114.5 95.001 158.5s89.334 78.167 146.001 102.5s118.667 36.5 186 36.5zM539 791
c-37.333 0 -71.5 -7.16699 -102.5 -21.5s-57.833 -35 -80.5 -62s-40.334 -59.5 -53.001 -97.5s-19 -81 -19 -129s6.33301 -91.167 19 -129.5s30.334 -70.833 53.001 -97.5s49.5 -47.167 80.5 -61.5s65.167 -21.5 102.5 -21.5c36.667 0 70.667 7.16699 102 21.5
s58.5 34.833 81.5 61.5s40.833 59.167 53.5 97.5s19 81.5 19 129.5s-6.33301 91 -19 129s-30.5 70.5 -53.5 97.5s-50.167 47.667 -81.5 62s-65.333 21.5 -102 21.5zM340 1382c18.667 0 36.167 -3.49805 52.5 -10.498s30.5 -16.5 42.5 -28.5s21.333 -26.333 28 -43
s10 -34.334 10 -53.001s-3.33301 -36 -10 -52s-16 -29.833 -28 -41.5s-26.167 -20.834 -42.5 -27.501s-33.833 -10 -52.5 -10s-36 3.33301 -52 10s-30 16 -42 28s-21.333 26 -28 42s-10 33.667 -10 53c0 18.667 3.33301 36 10 52s16 30 28 42s26 21.5 42 28.5
s33.333 10.5 52 10.5zM735 1382c18.667 0 36.167 -3.49805 52.5 -10.498s30.5 -16.5 42.5 -28.5s21.333 -26.333 28 -43s10 -34.334 10 -53.001s-3.33301 -36 -10 -52s-16 -29.833 -28 -41.5s-26.167 -20.834 -42.5 -27.501s-33.833 -10 -52.5 -10s-36 3.33301 -52 10
s-30 16 -42 28s-21.333 26 -28 42s-10 33.667 -10 53c0 18.667 3.33301 36 10 52s16 30 28 42s26 21.5 42 28.5s33.333 10.5 52 10.5z" />
    <glyph glyph-name="divide" unicode="&#xf7;" horiz-adv-x="1104" 
d="M552 979c17.333 0 33.666 -3.50293 48.999 -10.5029s28.833 -16.333 40.5 -28s21 -25.334 28 -41.001s10.5 -32.167 10.5 -49.5s-3.5 -33.666 -10.5 -48.999s-16.333 -28.833 -28 -40.5s-25.167 -21 -40.5 -28s-31.666 -10.5 -48.999 -10.5s-33.666 3.5 -48.999 10.5
s-28.833 16.333 -40.5 28s-21 25.334 -28 41.001s-10.5 32.167 -10.5 49.5s3.5 33.833 10.5 49.5s16.333 29.334 28 41.001s25.167 20.834 40.5 27.501s31.666 10 48.999 10zM951 443.997h-800v180h800v-180zM552 344.997c17.333 0 33.666 -3.5 48.999 -10.5
s28.833 -16.333 40.5 -28s21 -25.167 28 -40.5s10.5 -31.666 10.5 -48.999s-3.5 -33.833 -10.5 -49.5s-16.333 -29.334 -28 -41.001s-25.167 -21 -40.5 -28s-31.666 -10.5 -48.999 -10.5s-33.666 3.5 -48.999 10.5s-28.833 16.5 -40.5 28.5s-21 25.833 -28 41.5
s-10.5 32.167 -10.5 49.5s3.5 33.666 10.5 48.999s16.333 28.833 28 40.5s25.167 20.834 40.5 27.501s31.666 10 48.999 10z" />
    <glyph glyph-name="oslash" unicode="&#xf8;" horiz-adv-x="1078" 
d="M902 806c31.333 -42.667 55.498 -91.334 72.498 -146.001s25.5 -114.334 25.5 -179.001c0 -74.667 -11.333 -142.834 -34 -204.501s-54.334 -114.5 -95.001 -158.5s-89.334 -78.167 -146.001 -102.5s-118.667 -36.5 -186 -36.5c-47.333 0 -91.666 6 -132.999 18
s-79.666 29 -114.999 51l-78 -94l-123 95l86 107c-31.333 42.667 -55.5 91.334 -72.5 146.001s-25.5 114.334 -25.5 179.001c0 74.667 11.333 142.834 34 204.501s54.334 114.5 95.001 158.5s89.334 78.167 146.001 102.5s118.667 36.5 186 36.5
c47.333 0 91.833 -6 133.5 -18s80.167 -29.333 115.5 -52l76 94l124 -96zM538.998 795c-37.333 0 -71.832 -7.33008 -103.499 -21.9971s-59 -35.5 -82 -62.5s-40.833 -59.833 -53.5 -98.5s-19 -82.334 -19 -131.001c0 -30.667 2.66699 -59.334 8 -86.001
s12.666 -51.334 21.999 -74.001l355 440c-38 22.667 -80.333 34 -127 34zM538.999 166.003c37.333 0 71.832 7.33105 103.499 21.998s59 35.5 82 62.5s40.833 60 53.5 99s19 82.833 19 131.5c0 30.667 -2.66699 59.334 -8 86.001s-12.666 51.334 -21.999 74.001l-355 -441
c38 -22.667 80.333 -34 127 -34z" />
    <glyph glyph-name="ugrave" unicode="&#xf9;" horiz-adv-x="1063" 
d="M936 382c0 -70 -10.832 -130.333 -32.499 -181s-51 -92.5 -88 -125.5s-80 -57.333 -129 -73s-100.833 -23.5 -155.5 -23.5s-106.334 7.83301 -155.001 23.5s-91.5 40 -128.5 73s-66.333 74.833 -88 125.5s-32.5 111 -32.5 181v580h202v-565c0 -40 5 -74.333 15 -103
s24 -52 42 -70s39.333 -31.333 64 -40s51.667 -13 81 -13s56.333 4.33301 81 13s46 22 64 40s32.167 41.333 42.5 70s15.5 63 15.5 103v565h202v-580zM240.001 1405h239l186 -308h-190z" />
    <glyph glyph-name="uacute" unicode="&#xfa;" horiz-adv-x="1063" 
d="M936 382c0 -70 -10.832 -130.333 -32.499 -181s-51 -92.5 -88 -125.5s-80 -57.333 -129 -73s-100.833 -23.5 -155.5 -23.5s-106.334 7.83301 -155.001 23.5s-91.5 40 -128.5 73s-66.333 74.833 -88 125.5s-32.5 111 -32.5 181v580h202v-565c0 -40 5 -74.333 15 -103
s24 -52 42 -70s39.333 -31.333 64 -40s51.667 -13 81 -13s56.333 4.33301 81 13s46 22 64 40s32.167 41.333 42.5 70s15.5 63 15.5 103v565h202v-580zM389.001 1097l186 308h239l-235 -308h-190z" />
    <glyph glyph-name="ucircumflex" unicode="&#xfb;" horiz-adv-x="1063" 
d="M936 382c0 -70 -10.832 -130.333 -32.499 -181s-51 -92.5 -88 -125.5s-80 -57.333 -129 -73s-100.833 -23.5 -155.5 -23.5s-106.334 7.83301 -155.001 23.5s-91.5 40 -128.5 73s-66.333 74.833 -88 125.5s-32.5 111 -32.5 181v580h202v-565c0 -40 5 -74.333 15 -103
s24 -52 42 -70s39.333 -31.333 64 -40s51.667 -13 81 -13s56.333 4.33301 81 13s46 22 64 40s32.167 41.333 42.5 70s15.5 63 15.5 103v565h202v-580zM661.001 1095l-131 169l-130 -169h-194l204 303h241l204 -303h-194z" />
    <glyph glyph-name="udieresis" unicode="&#xfc;" horiz-adv-x="1063" 
d="M936 382c0 -70 -10.832 -130.333 -32.499 -181s-51 -92.5 -88 -125.5s-80 -57.333 -129 -73s-100.833 -23.5 -155.5 -23.5s-106.334 7.83301 -155.001 23.5s-91.5 40 -128.5 73s-66.333 74.833 -88 125.5s-32.5 111 -32.5 181v580h202v-565c0 -40 5 -74.333 15 -103
s24 -52 42 -70s39.333 -31.333 64 -40s51.667 -13 81 -13s56.333 4.33301 81 13s46 22 64 40s32.167 41.333 42.5 70s15.5 63 15.5 103v565h202v-580zM331.001 1382c18.667 0 36.167 -3.49805 52.5 -10.498s30.5 -16.5 42.5 -28.5s21.333 -26.333 28 -43
s10 -34.334 10 -53.001s-3.33301 -36 -10 -52s-16 -29.833 -28 -41.5s-26.167 -20.834 -42.5 -27.501s-33.833 -10 -52.5 -10s-36 3.33301 -52 10s-30 16 -42 28s-21.333 26 -28 42s-10 33.667 -10 53c0 18.667 3.33301 36 10 52s16 30 28 42s26 21.5 42 28.5
s33.333 10.5 52 10.5zM726.001 1382c18.667 0 36.167 -3.49805 52.5 -10.498s30.5 -16.5 42.5 -28.5s21.333 -26.333 28 -43s10 -34.334 10 -53.001s-3.33301 -36 -10 -52s-16 -29.833 -28 -41.5s-26.167 -20.834 -42.5 -27.501s-33.833 -10 -52.5 -10s-36 3.33301 -52 10
s-30 16 -42 28s-21.333 26 -28 42s-10 33.667 -10 53c0 18.667 3.33301 36 10 52s16 30 28 42s26 21.5 42 28.5s33.333 10.5 52 10.5z" />
    <glyph glyph-name="yacute" unicode="&#xfd;" horiz-adv-x="990" 
d="M980 962l-660 -1346h-218l291 571l-380 775h222l266 -563l261 563h218zM356 1098l186 308h239l-235 -308h-190z" />
    <glyph glyph-name="thorn" unicode="&#xfe;" horiz-adv-x="1107" 
d="M611 983c60 0 115.5 -12.165 166.5 -36.498s95.167 -58.5 132.5 -102.5s66.5 -96.833 87.5 -158.5s31.5 -129.834 31.5 -204.501s-10.5 -142.834 -31.5 -204.501s-50.167 -114.5 -87.5 -158.5s-81.5 -78.167 -132.5 -102.5s-106.5 -36.5 -166.5 -36.5
c-62.667 0 -116.167 13.5 -160.5 40.5s-81.5 62.833 -111.5 107.5v-511h-204v1824h204v-605c30 44.667 67.167 80.5 111.5 107.5s97.833 40.5 160.5 40.5zM574 172.002c38 0 72.167 7.50195 102.5 22.502s56.333 36 78 63s38.167 59.5 49.5 97.5s17 80 17 126
s-5.66699 88 -17 126s-27.833 70.5 -49.5 97.5s-47.667 48 -78 63s-64.5 22.5 -102.5 22.5c-37.333 0 -71.166 -7.33301 -101.499 -22s-56.333 -35.334 -78 -62.001s-38.5 -59.167 -50.5 -97.5s-18 -80.833 -18 -127.5c0 -47.333 6 -90 18 -128s28.833 -70.333 50.5 -97
s47.667 -47.334 78 -62.001s64.166 -22 101.499 -22z" />
    <glyph glyph-name="ydieresis" unicode="&#xff;" horiz-adv-x="990" 
d="M980 962l-660 -1346h-218l291 571l-380 775h222l266 -563l261 563h218zM298 1383c18.667 0 36.167 -3.49805 52.5 -10.498s30.5 -16.5 42.5 -28.5s21.333 -26.333 28 -43s10 -34.334 10 -53.001s-3.33301 -36 -10 -52s-16 -29.833 -28 -41.5
s-26.167 -20.834 -42.5 -27.501s-33.833 -10 -52.5 -10s-36 3.33301 -52 10s-30 16 -42 28s-21.333 26 -28 42s-10 33.667 -10 53c0 18.667 3.33301 36 10 52s16 30 28 42s26 21.5 42 28.5s33.333 10.5 52 10.5zM693 1383c18.667 0 36.167 -3.49805 52.5 -10.498
s30.5 -16.5 42.5 -28.5s21.333 -26.333 28 -43s10 -34.334 10 -53.001s-3.33301 -36 -10 -52s-16 -29.833 -28 -41.5s-26.167 -20.834 -42.5 -27.501s-33.833 -10 -52.5 -10s-36 3.33301 -52 10s-30 16 -42 28s-21.333 26 -28 42s-10 33.667 -10 53
c0 18.667 3.33301 36 10 52s16 30 28 42s26 21.5 42 28.5s33.333 10.5 52 10.5z" />
    <glyph glyph-name="Amacron" unicode="&#x100;" horiz-adv-x="1293" 
d="M922 349h-556l-118 -349h-225l493 1401h262l492 -1401h-230zM854 551l-210 623l-210 -623h420zM358 1743h576v-170h-576v170z" />
    <glyph glyph-name="amacron" unicode="&#x101;" horiz-adv-x="1107" 
d="M972 962v-962.004h-200v135c-30 -47.333 -67.5 -85.166 -112.5 -113.499s-99.833 -42.5 -164.5 -42.5c-60 0 -115.5 12.167 -166.5 36.5s-95 58.5 -132 102.5s-66 96.833 -87 158.5s-31.5 129.834 -31.5 204.501s10.5 142.834 31.5 204.501s50 114.5 87 158.5
s81 78.167 132 102.5s106.5 36.5 166.5 36.5c64.667 0 119.5 -14.167 164.5 -42.5s82.5 -66.166 112.5 -113.499v135h200zM533 171.996c36.667 0 70.334 7.33105 101.001 21.998s56.667 35.334 78 62.001s38 59 50 97s18 80.667 18 128c0 46.667 -6 89.167 -18 127.5
s-28.667 70.833 -50 97.5s-47.333 47.334 -78 62.001s-64.334 22 -101.001 22c-38 0 -72.167 -7.5 -102.5 -22.5s-56.333 -36 -78 -63s-38.167 -59.5 -49.5 -97.5s-17 -80 -17 -126s5.66699 -88 17 -126s27.833 -70.5 49.5 -97.5s47.667 -48 78 -63s64.5 -22.5 102.5 -22.5z
M266 1332.99h576v-170h-576v170z" />
    <glyph glyph-name="Abreve" unicode="&#x102;" horiz-adv-x="1293" 
d="M922 349h-556l-118 -349h-225l493 1401h262l492 -1401h-230zM854 551l-210 623l-210 -623h420zM468 1837c14.667 -58.667 36.833 -101.5 66.5 -128.5s66.5 -40.5 110.5 -40.5c43.333 0 79.833 13.5 109.5 40.5s51.834 69.833 66.501 128.5l156 -38
c-22 -98.667 -61.167 -173.5 -117.5 -224.5s-127.833 -76.5 -214.5 -76.5s-158.334 25.5 -215.001 76.5s-96 125.833 -118 224.5z" />
    <glyph glyph-name="abreve" unicode="&#x103;" horiz-adv-x="1107" 
d="M972 962v-962.004h-200v135c-30 -47.333 -67.5 -85.166 -112.5 -113.499s-99.833 -42.5 -164.5 -42.5c-60 0 -115.5 12.167 -166.5 36.5s-95 58.5 -132 102.5s-66 96.833 -87 158.5s-31.5 129.834 -31.5 204.501s10.5 142.834 31.5 204.501s50 114.5 87 158.5
s81 78.167 132 102.5s106.5 36.5 166.5 36.5c64.667 0 119.5 -14.167 164.5 -42.5s82.5 -66.166 112.5 -113.499v135h200zM533 171.996c36.667 0 70.334 7.33105 101.001 21.998s56.667 35.334 78 62.001s38 59 50 97s18 80.667 18 128c0 46.667 -6 89.167 -18 127.5
s-28.667 70.833 -50 97.5s-47.333 47.334 -78 62.001s-64.334 22 -101.001 22c-38 0 -72.167 -7.5 -102.5 -22.5s-56.333 -36 -78 -63s-38.167 -59.5 -49.5 -97.5s-17 -80 -17 -126s5.66699 -88 17 -126s27.833 -70.5 49.5 -97.5s47.667 -48 78 -63s64.5 -22.5 102.5 -22.5z
M377 1425.99c14.667 -58.667 36.833 -101.5 66.5 -128.5s66.5 -40.5 110.5 -40.5c43.333 0 79.833 13.5 109.5 40.5s51.834 69.833 66.501 128.5l156 -38c-22 -98.667 -61.167 -173.5 -117.5 -224.5s-127.833 -76.5 -214.5 -76.5s-158.334 25.5 -215.001 76.5
s-96 125.833 -118 224.5z" />
    <glyph glyph-name="Aogonek" unicode="&#x104;" horiz-adv-x="1293" 
d="M922 349h-556l-118 -349h-225l493 1401h262l492 -1401h-230zM854 551l-210 623l-210 -623h420zM1269 -316c-56.667 -56.667 -124.668 -84.999 -204.001 -84.999c-31.333 0 -60.5 4.16699 -87.5 12.5s-50.333 20.166 -70 35.499s-35 34.166 -46 56.499
s-16.5 47.166 -16.5 74.499c0 30.667 7.16699 59.5 21.5 86.5s34.833 52 61.5 75s58.834 44.5 96.501 64.5s79.5 38.667 125.5 56l70 -60c-70 -29.333 -119.5 -59.166 -148.5 -89.499s-43.5 -58.166 -43.5 -83.499c0 -18.667 5.66699 -33.334 17 -44.001s26.333 -16 45 -16
c15.333 0 29.333 3.33301 42 10s25 16.334 37 29.001z" />
    <glyph glyph-name="aogonek" unicode="&#x105;" horiz-adv-x="1107" 
d="M972 962v-962.004h-200v135c-30 -47.333 -67.5 -85.166 -112.5 -113.499s-99.833 -42.5 -164.5 -42.5c-60 0 -115.5 12.167 -166.5 36.5s-95 58.5 -132 102.5s-66 96.833 -87 158.5s-31.5 129.834 -31.5 204.501s10.5 142.834 31.5 204.501s50 114.5 87 158.5
s81 78.167 132 102.5s106.5 36.5 166.5 36.5c64.667 0 119.5 -14.167 164.5 -42.5s82.5 -66.166 112.5 -113.499v135h200zM533 171.996c36.667 0 70.334 7.33105 101.001 21.998s56.667 35.334 78 62.001s38 59 50 97s18 80.667 18 128c0 46.667 -6 89.167 -18 127.5
s-28.667 70.833 -50 97.5s-47.333 47.334 -78 62.001s-64.334 22 -101.001 22c-38 0 -72.167 -7.5 -102.5 -22.5s-56.333 -36 -78 -63s-38.167 -59.5 -49.5 -97.5s-17 -80 -17 -126s5.66699 -88 17 -126s27.833 -70.5 49.5 -97.5s47.667 -48 78 -63s64.5 -22.5 102.5 -22.5z
M1019 -316.006c-56.667 -56.667 -124.668 -84.999 -204.001 -84.999c-31.333 0 -60.5 4.16699 -87.5 12.5s-50.333 20.166 -70 35.499s-35 34.166 -46 56.499s-16.5 47.166 -16.5 74.499c0 30.667 7.16699 59.5 21.5 86.5s34.833 52 61.5 75s58.834 44.5 96.501 64.5
s79.5 38.667 125.5 56l70 -60c-70 -29.333 -119.5 -59.166 -148.5 -89.499s-43.5 -58.166 -43.5 -83.499c0 -18.667 5.66699 -33.334 17 -44.001s26.333 -16 45 -16c15.333 0 29.333 3.33301 42 10s25 16.334 37 29.001z" />
    <glyph glyph-name="Cacute" unicode="&#x106;" horiz-adv-x="1327" 
d="M736 1422c56.667 0 111.001 -6.83496 163.001 -20.502s100.167 -33.167 144.5 -58.5s84.166 -56.5 119.499 -93.5s65 -78.833 89 -125.5l-185 -105c-35.333 60.667 -81.333 107.834 -138 141.501s-121 50.5 -193 50.5c-60 0 -115.333 -11.667 -166 -35
s-94.5 -57 -131.5 -101s-65.833 -97.667 -86.5 -161s-31 -134.666 -31 -213.999c0 -80 10.333 -151.667 31 -215s49.5 -117 86.5 -161s81 -77.5 132 -100.5s106.5 -34.5 166.5 -34.5c70.667 0 134.334 16.5 191.001 49.5s103.334 80.167 140.001 141.5l179 -112
c-25.333 -45.333 -55.5 -85.833 -90.5 -121.5s-74.333 -66 -118 -91s-90.834 -44.167 -141.501 -57.5s-104.334 -20 -161.001 -20c-95.333 0 -182.166 17.167 -260.499 51.5s-145.833 83 -202.5 146s-100.5 139 -131.5 228s-46.5 187.833 -46.5 296.5s15.5 207.5 46.5 296.5
s74.833 165 131.5 228s124.167 111.667 202.5 146s165.166 51.5 260.499 51.5zM581.001 1509l186 308h239l-235 -308h-190z" />
    <glyph glyph-name="cacute" unicode="&#x107;" horiz-adv-x="911" 
d="M531 983c67.333 0 129.501 -13.1689 186.501 -39.502s104.5 -64.5 142.5 -114.5l-133 -129c-28 28.667 -57.833 51 -89.5 67s-67.5 24 -107.5 24c-35.333 0 -68 -7 -98 -21s-56 -34.333 -78 -61s-39.167 -59.167 -51.5 -97.5s-18.5 -81.833 -18.5 -130.5
s6.16699 -92.167 18.5 -130.5s29.5 -70.833 51.5 -97.5s48 -47 78 -61s62.333 -21 97 -21c40 0 77 8.5 111 25.5s64 39.167 90 66.5l130 -130c-38.667 -50 -86.334 -88.167 -143.001 -114.5s-118.667 -39.5 -186 -39.5c-68 0 -130 12.167 -186 36.5
s-103.667 58.5 -143 102.5s-69.833 96.833 -91.5 158.5s-32.5 129.834 -32.5 204.501s10.833 142.834 32.5 204.501s52.167 114.5 91.5 158.5s87 78.167 143 102.5s118 36.5 186 36.5zM381.001 1098l186 308h239l-235 -308h-190z" />
    <glyph glyph-name="Ccircumflex" unicode="&#x108;" horiz-adv-x="1327" 
d="M736 1422c56.667 0 111.001 -6.83496 163.001 -20.502s100.167 -33.167 144.5 -58.5s84.166 -56.5 119.499 -93.5s65 -78.833 89 -125.5l-185 -105c-35.333 60.667 -81.333 107.834 -138 141.501s-121 50.5 -193 50.5c-60 0 -115.333 -11.667 -166 -35
s-94.5 -57 -131.5 -101s-65.833 -97.667 -86.5 -161s-31 -134.666 -31 -213.999c0 -80 10.333 -151.667 31 -215s49.5 -117 86.5 -161s81 -77.5 132 -100.5s106.5 -34.5 166.5 -34.5c70.667 0 134.334 16.5 191.001 49.5s103.334 80.167 140.001 141.5l179 -112
c-25.333 -45.333 -55.5 -85.833 -90.5 -121.5s-74.333 -66 -118 -91s-90.834 -44.167 -141.501 -57.5s-104.334 -20 -161.001 -20c-95.333 0 -182.166 17.167 -260.499 51.5s-145.833 83 -202.5 146s-100.5 139 -131.5 228s-46.5 187.833 -46.5 296.5s15.5 207.5 46.5 296.5
s74.833 165 131.5 228s124.167 111.667 202.5 146s165.166 51.5 260.499 51.5zM862.001 1508l-131 169l-130 -169h-194l204 303h241l204 -303h-194z" />
    <glyph glyph-name="ccircumflex" unicode="&#x109;" horiz-adv-x="911" 
d="M531 983c67.333 0 129.501 -13.1689 186.501 -39.502s104.5 -64.5 142.5 -114.5l-133 -129c-28 28.667 -57.833 51 -89.5 67s-67.5 24 -107.5 24c-35.333 0 -68 -7 -98 -21s-56 -34.333 -78 -61s-39.167 -59.167 -51.5 -97.5s-18.5 -81.833 -18.5 -130.5
s6.16699 -92.167 18.5 -130.5s29.5 -70.833 51.5 -97.5s48 -47 78 -61s62.333 -21 97 -21c40 0 77 8.5 111 25.5s64 39.167 90 66.5l130 -130c-38.667 -50 -86.334 -88.167 -143.001 -114.5s-118.667 -39.5 -186 -39.5c-68 0 -130 12.167 -186 36.5
s-103.667 58.5 -143 102.5s-69.833 96.833 -91.5 158.5s-32.5 129.834 -32.5 204.501s10.833 142.834 32.5 204.501s52.167 114.5 91.5 158.5s87 78.167 143 102.5s118 36.5 186 36.5zM653.001 1097l-131 169l-130 -169h-194l204 303h241l204 -303h-194z" />
    <glyph glyph-name="Cdotaccent" unicode="&#x10a;" horiz-adv-x="1327" 
d="M736 1422c56.667 0 111.001 -6.83496 163.001 -20.502s100.167 -33.167 144.5 -58.5s84.166 -56.5 119.499 -93.5s65 -78.833 89 -125.5l-185 -105c-35.333 60.667 -81.333 107.834 -138 141.501s-121 50.5 -193 50.5c-60 0 -115.333 -11.667 -166 -35
s-94.5 -57 -131.5 -101s-65.833 -97.667 -86.5 -161s-31 -134.666 -31 -213.999c0 -80 10.333 -151.667 31 -215s49.5 -117 86.5 -161s81 -77.5 132 -100.5s106.5 -34.5 166.5 -34.5c70.667 0 134.334 16.5 191.001 49.5s103.334 80.167 140.001 141.5l179 -112
c-25.333 -45.333 -55.5 -85.833 -90.5 -121.5s-74.333 -66 -118 -91s-90.834 -44.167 -141.501 -57.5s-104.334 -20 -161.001 -20c-95.333 0 -182.166 17.167 -260.499 51.5s-145.833 83 -202.5 146s-100.5 139 -131.5 228s-46.5 187.833 -46.5 296.5s15.5 207.5 46.5 296.5
s74.833 165 131.5 228s124.167 111.667 202.5 146s165.166 51.5 260.499 51.5zM730.001 1799c19.333 0 37.5 -3.66895 54.5 -11.002s31.667 -17.166 44 -29.499s22 -27 29 -44s10.5 -35.167 10.5 -54.5s-3.5 -37.333 -10.5 -54s-16.667 -31.167 -29 -43.5s-27 -22 -44 -29
s-35.167 -10.5 -54.5 -10.5c-20 0 -38.333 3.5 -55 10.5s-31 16.667 -43 29s-21.5 27 -28.5 44s-10.5 35.167 -10.5 54.5s3.5 37.333 10.5 54s16.5 31.334 28.5 44.001s26.333 22.5 43 29.5s35 10.5 55 10.5z" />
    <glyph glyph-name="cdotaccent" unicode="&#x10b;" horiz-adv-x="911" 
d="M531 983c67.333 0 129.501 -13.1689 186.501 -39.502s104.5 -64.5 142.5 -114.5l-133 -129c-28 28.667 -57.833 51 -89.5 67s-67.5 24 -107.5 24c-35.333 0 -68 -7 -98 -21s-56 -34.333 -78 -61s-39.167 -59.167 -51.5 -97.5s-18.5 -81.833 -18.5 -130.5
s6.16699 -92.167 18.5 -130.5s29.5 -70.833 51.5 -97.5s48 -47 78 -61s62.333 -21 97 -21c40 0 77 8.5 111 25.5s64 39.167 90 66.5l130 -130c-38.667 -50 -86.334 -88.167 -143.001 -114.5s-118.667 -39.5 -186 -39.5c-68 0 -130 12.167 -186 36.5
s-103.667 58.5 -143 102.5s-69.833 96.833 -91.5 158.5s-32.5 129.834 -32.5 204.501s10.833 142.834 32.5 204.501s52.167 114.5 91.5 158.5s87 78.167 143 102.5s118 36.5 186 36.5zM521.001 1424c18.667 0 36.167 -3.49805 52.5 -10.498s30.5 -16.5 42.5 -28.5
s21.5 -26.333 28.5 -43s10.5 -34.334 10.5 -53.001c0 -19.333 -3.5 -37 -10.5 -53s-16.5 -30 -28.5 -42s-26.167 -21.333 -42.5 -28s-33.833 -10 -52.5 -10c-19.333 0 -37 3.33301 -53 10s-30 16 -42 28s-21.333 26.167 -28 42.5s-10 34.166 -10 53.499
c0 18.667 3.33301 36.167 10 52.5s16 30.5 28 42.5s26 21.5 42 28.5s33.667 10.5 53 10.5z" />
    <glyph glyph-name="Ccaron" unicode="&#x10c;" horiz-adv-x="1327" 
d="M736 1422c56.667 0 111.001 -6.83496 163.001 -20.502s100.167 -33.167 144.5 -58.5s84.166 -56.5 119.499 -93.5s65 -78.833 89 -125.5l-185 -105c-35.333 60.667 -81.333 107.834 -138 141.501s-121 50.5 -193 50.5c-60 0 -115.333 -11.667 -166 -35
s-94.5 -57 -131.5 -101s-65.833 -97.667 -86.5 -161s-31 -134.666 -31 -213.999c0 -80 10.333 -151.667 31 -215s49.5 -117 86.5 -161s81 -77.5 132 -100.5s106.5 -34.5 166.5 -34.5c70.667 0 134.334 16.5 191.001 49.5s103.334 80.167 140.001 141.5l179 -112
c-25.333 -45.333 -55.5 -85.833 -90.5 -121.5s-74.333 -66 -118 -91s-90.834 -44.167 -141.501 -57.5s-104.334 -20 -161.001 -20c-95.333 0 -182.166 17.167 -260.499 51.5s-145.833 83 -202.5 146s-100.5 139 -131.5 228s-46.5 187.833 -46.5 296.5s15.5 207.5 46.5 296.5
s74.833 165 131.5 228s124.167 111.667 202.5 146s165.166 51.5 260.499 51.5zM599.001 1809l131 -169l130 169h194l-204 -303h-241l-204 303h194z" />
    <glyph glyph-name="ccaron" unicode="&#x10d;" horiz-adv-x="911" 
d="M531 983c67.333 0 129.501 -13.1689 186.501 -39.502s104.5 -64.5 142.5 -114.5l-133 -129c-28 28.667 -57.833 51 -89.5 67s-67.5 24 -107.5 24c-35.333 0 -68 -7 -98 -21s-56 -34.333 -78 -61s-39.167 -59.167 -51.5 -97.5s-18.5 -81.833 -18.5 -130.5
s6.16699 -92.167 18.5 -130.5s29.5 -70.833 51.5 -97.5s48 -47 78 -61s62.333 -21 97 -21c40 0 77 8.5 111 25.5s64 39.167 90 66.5l130 -130c-38.667 -50 -86.334 -88.167 -143.001 -114.5s-118.667 -39.5 -186 -39.5c-68 0 -130 12.167 -186 36.5
s-103.667 58.5 -143 102.5s-69.833 96.833 -91.5 158.5s-32.5 129.834 -32.5 204.501s10.833 142.834 32.5 204.501s52.167 114.5 91.5 158.5s87 78.167 143 102.5s118 36.5 186 36.5zM391.001 1398l131 -169l130 169h194l-204 -303h-241l-204 303h194z" />
    <glyph glyph-name="Dcaron" unicode="&#x10e;" horiz-adv-x="1399" 
d="M643 1400c102 0 193.833 -16.333 275.5 -49s151 -79.5 208 -140.5s100.833 -134.667 131.5 -221s46 -182.833 46 -289.5c0 -107.333 -15.333 -204 -46 -290s-74.5 -159.5 -131.5 -220.5s-126.333 -107.833 -208 -140.5s-173.5 -49 -275.5 -49h-488v1400h488zM641 204
c73.333 0 137.333 11.834 192 35.501s100 57.167 136 100.5s63 95.5 81 156.5s27 128.833 27 203.5c0 75.333 -9 143.666 -27 204.999s-45 113.5 -81 156.5s-81.333 76.167 -136 99.5s-118.667 35 -192 35h-269v-992h269zM512 1809l131 -169l130 169h194l-204 -303h-241
l-204 303h194z" />
    <glyph glyph-name="dcaron" unicode="&#x10f;" horiz-adv-x="1204" 
d="M972 1440v-1440h-200v135c-30 -47.333 -67.5 -85.166 -112.5 -113.499s-99.833 -42.5 -164.5 -42.5c-60 0 -115.5 12.167 -166.5 36.5s-95 58.5 -132 102.5s-66 96.833 -87 158.5s-31.5 129.834 -31.5 204.501s10.5 142.834 31.5 204.501s50 114.5 87 158.5
s81 78.167 132 102.5s106.5 36.5 166.5 36.5c63.333 0 117.333 -13.667 162 -41s82 -64 112 -110v608h203zM533 171.997c36.667 0 70.334 7.33105 101.001 21.998s56.667 35.334 78 62.001s38 59 50 97s18 80.667 18 128c0 46.667 -6 89.167 -18 127.5
s-28.667 70.833 -50 97.5s-47.333 47.334 -78 62.001s-64.334 22 -101.001 22c-38 0 -72.167 -7.5 -102.5 -22.5s-56.333 -36 -78 -63s-38.167 -59.5 -49.5 -97.5s-17 -80 -17 -126s5.66699 -88 17 -126s27.833 -70.5 49.5 -97.5s47.667 -48 78 -63s64.5 -22.5 102.5 -22.5z
M1070 1029l3 411h196l-41 -411h-158z" />
    <glyph glyph-name="Dcroat" unicode="&#x110;" horiz-adv-x="1517" 
d="M761 1400c102 0 193.833 -16.333 275.5 -49s151 -79.5 208 -140.5s100.833 -134.667 131.5 -221s46 -182.833 46 -289.5c0 -107.333 -15.333 -204 -46 -290s-74.5 -159.5 -131.5 -220.5s-126.333 -107.833 -208 -140.5s-173.5 -49 -275.5 -49h-488v610h-180v191h180v599
h488zM759 204c73.333 0 137.333 11.834 192 35.501s100 57.167 136 100.5s63 95.5 81 156.5s27 128.833 27 203.5c0 75.333 -9 143.666 -27 204.999s-45 113.5 -81 156.5s-81.333 76.167 -136 99.5s-118.667 35 -192 35h-269v-395h326v-191h-326v-406h269z" />
    <glyph glyph-name="dcroat" unicode="&#x111;" horiz-adv-x="1106" 
d="M972 1440v-1440h-200v135c-30 -47.333 -67.5 -85.166 -112.5 -113.499s-99.833 -42.5 -164.5 -42.5c-60 0 -115.5 12.167 -166.5 36.5s-95 58.5 -132 102.5s-66 96.833 -87 158.5s-31.5 129.834 -31.5 204.501s10.5 142.834 31.5 204.501s50 114.5 87 158.5
s81 78.167 132 102.5s106.5 36.5 166.5 36.5c63.333 0 117.333 -13.667 162 -41s82 -64 112 -110v608h203zM533 171.997c36.667 0 70.334 7.33105 101.001 21.998s56.667 35.334 78 62.001s38 59 50 97s18 80.667 18 128c0 46.667 -6 89.167 -18 127.5
s-28.667 70.833 -50 97.5s-47.333 47.334 -78 62.001s-64.334 22 -101.001 22c-38 0 -72.167 -7.5 -102.5 -22.5s-56.333 -36 -78 -63s-38.167 -59.5 -49.5 -97.5s-17 -80 -17 -126s5.66699 -88 17 -126s27.833 -70.5 49.5 -97.5s47.667 -48 78 -63s64.5 -22.5 102.5 -22.5z
M1085 1104h-657v173h657v-173z" />
    <glyph glyph-name="Emacron" unicode="&#x112;" horiz-adv-x="1179" 
d="M1055 201v-201h-900v1400h894v-201h-677v-393h650v-201h-650v-404h683zM312 1743h576v-170h-576v170z" />
    <glyph glyph-name="emacron" unicode="&#x113;" horiz-adv-x="1009" 
d="M931 483c0 -12.667 -0.329102 -25.165 -0.996094 -37.498s-1.66699 -24.166 -3 -35.499h-641c5.33301 -43.333 15.666 -80.833 30.999 -112.5s34.333 -57.834 57 -78.501s48.334 -35.834 77.001 -45.501s59.667 -14.5 93 -14.5c46 0 90.167 8.5 132.5 25.5
s80.5 40.5 114.5 70.5l103 -142c-52.667 -48.667 -109.5 -83.167 -170.5 -103.5s-125.5 -30.5 -193.5 -30.5c-67.333 0 -128.833 11.667 -184.5 35s-103.334 56.666 -143.001 99.999s-70.334 95.833 -92.001 157.5s-32.5 131.167 -32.5 208.5c0 76.667 10.5 146 31.5 208
s50.833 114.833 89.5 158.5s84.667 77.334 138 101.001s112.666 35.5 177.999 35.5c62 0 118.5 -11.667 169.5 -35s94.667 -56.833 131 -100.5s64.666 -96.334 84.999 -158.001s30.5 -130.5 30.5 -206.5zM728.004 561.002c-9.33301 76.667 -32.667 135.832 -70 177.499
s-86 62.5 -146 62.5c-64.667 0 -116 -21.167 -154 -63.5s-61.667 -101.166 -71 -176.499h441zM227.003 1333h576v-170h-576v170z" />
    <glyph glyph-name="Ebreve" unicode="&#x114;" horiz-adv-x="1179" 
d="M1055 201v-201h-900v1400h894v-201h-677v-393h650v-201h-650v-404h683zM422 1837c14.667 -58.667 36.833 -101.5 66.5 -128.5s66.5 -40.5 110.5 -40.5c43.333 0 79.833 13.5 109.5 40.5s51.834 69.833 66.501 128.5l156 -38c-22 -98.667 -61.167 -173.5 -117.5 -224.5
s-127.833 -76.5 -214.5 -76.5s-158.334 25.5 -215.001 76.5s-96 125.833 -118 224.5z" />
    <glyph glyph-name="ebreve" unicode="&#x115;" horiz-adv-x="1009" 
d="M931 483c0 -12.667 -0.329102 -25.165 -0.996094 -37.498s-1.66699 -24.166 -3 -35.499h-641c5.33301 -43.333 15.666 -80.833 30.999 -112.5s34.333 -57.834 57 -78.501s48.334 -35.834 77.001 -45.501s59.667 -14.5 93 -14.5c46 0 90.167 8.5 132.5 25.5
s80.5 40.5 114.5 70.5l103 -142c-52.667 -48.667 -109.5 -83.167 -170.5 -103.5s-125.5 -30.5 -193.5 -30.5c-67.333 0 -128.833 11.667 -184.5 35s-103.334 56.666 -143.001 99.999s-70.334 95.833 -92.001 157.5s-32.5 131.167 -32.5 208.5c0 76.667 10.5 146 31.5 208
s50.833 114.833 89.5 158.5s84.667 77.334 138 101.001s112.666 35.5 177.999 35.5c62 0 118.5 -11.667 169.5 -35s94.667 -56.833 131 -100.5s64.666 -96.334 84.999 -158.001s30.5 -130.5 30.5 -206.5zM728.004 561.002c-9.33301 76.667 -32.667 135.832 -70 177.499
s-86 62.5 -146 62.5c-64.667 0 -116 -21.167 -154 -63.5s-61.667 -101.166 -71 -176.499h441zM338.003 1426c14.667 -58.667 36.833 -101.5 66.5 -128.5s66.5 -40.5 110.5 -40.5c43.333 0 79.833 13.5 109.5 40.5s51.834 69.833 66.501 128.5l156 -38
c-22 -98.667 -61.167 -173.5 -117.5 -224.5s-127.833 -76.5 -214.5 -76.5s-158.334 25.5 -215.001 76.5s-96 125.833 -118 224.5z" />
    <glyph glyph-name="Edotaccent" unicode="&#x116;" horiz-adv-x="1179" 
d="M1055 201v-201h-900v1400h894v-201h-677v-393h650v-201h-650v-404h683zM600 1799c19.333 0 37.5 -3.66895 54.5 -11.002s31.667 -17.166 44 -29.499s22 -27 29 -44s10.5 -35.167 10.5 -54.5s-3.5 -37.333 -10.5 -54s-16.667 -31.167 -29 -43.5s-27 -22 -44 -29
s-35.167 -10.5 -54.5 -10.5c-20 0 -38.333 3.5 -55 10.5s-31 16.667 -43 29s-21.5 27 -28.5 44s-10.5 35.167 -10.5 54.5s3.5 37.333 10.5 54s16.5 31.334 28.5 44.001s26.333 22.5 43 29.5s35 10.5 55 10.5z" />
    <glyph glyph-name="edotaccent" unicode="&#x117;" horiz-adv-x="1009" 
d="M931 483c0 -12.667 -0.329102 -25.165 -0.996094 -37.498s-1.66699 -24.166 -3 -35.499h-641c5.33301 -43.333 15.666 -80.833 30.999 -112.5s34.333 -57.834 57 -78.501s48.334 -35.834 77.001 -45.501s59.667 -14.5 93 -14.5c46 0 90.167 8.5 132.5 25.5
s80.5 40.5 114.5 70.5l103 -142c-52.667 -48.667 -109.5 -83.167 -170.5 -103.5s-125.5 -30.5 -193.5 -30.5c-67.333 0 -128.833 11.667 -184.5 35s-103.334 56.666 -143.001 99.999s-70.334 95.833 -92.001 157.5s-32.5 131.167 -32.5 208.5c0 76.667 10.5 146 31.5 208
s50.833 114.833 89.5 158.5s84.667 77.334 138 101.001s112.666 35.5 177.999 35.5c62 0 118.5 -11.667 169.5 -35s94.667 -56.833 131 -100.5s64.666 -96.334 84.999 -158.001s30.5 -130.5 30.5 -206.5zM728.004 561.002c-9.33301 76.667 -32.667 135.832 -70 177.499
s-86 62.5 -146 62.5c-64.667 0 -116 -21.167 -154 -63.5s-61.667 -101.166 -71 -176.499h441zM514.003 1424c18.667 0 36.167 -3.49805 52.5 -10.498s30.5 -16.5 42.5 -28.5s21.5 -26.333 28.5 -43s10.5 -34.334 10.5 -53.001c0 -19.333 -3.5 -37 -10.5 -53
s-16.5 -30 -28.5 -42s-26.167 -21.333 -42.5 -28s-33.833 -10 -52.5 -10c-19.333 0 -37 3.33301 -53 10s-30 16 -42 28s-21.333 26.167 -28 42.5s-10 34.166 -10 53.499c0 18.667 3.33301 36.167 10 52.5s16 30.5 28 42.5s26 21.5 42 28.5s33.667 10.5 53 10.5z" />
    <glyph glyph-name="Eogonek" unicode="&#x118;" horiz-adv-x="1179" 
d="M1055 201v-201h-900v1400h894v-201h-677v-393h650v-201h-650v-404h683zM955 11c-64 -20 -109.835 -45.335 -137.502 -76.002s-41.5 -61 -41.5 -91c0 -22.667 8 -41.167 24 -55.5s38 -21.5 66 -21.5c40.667 0 77.334 15.333 110.001 46l102 -120
c-30.667 -30.667 -65.5 -54 -104.5 -70s-81.5 -24 -127.5 -24c-38 0 -72.667 5 -104 15s-58.166 23.833 -80.499 41.5s-39.833 38.834 -52.5 63.501s-19 51.667 -19 81c0 64.667 26.5 119.334 79.5 164.001s127.833 79 224.5 103z" />
    <glyph glyph-name="eogonek" unicode="&#x119;" horiz-adv-x="1009" 
d="M931 483c0 -12.667 -0.329102 -25.165 -0.996094 -37.498s-1.66699 -24.166 -3 -35.499h-641c5.33301 -43.333 15.666 -80.833 30.999 -112.5s34.333 -57.834 57 -78.501s48.334 -35.834 77.001 -45.501s59.667 -14.5 93 -14.5c46 0 90.167 8.5 132.5 25.5
s80.5 40.5 114.5 70.5l103 -142c-52.667 -48.667 -109.5 -83.167 -170.5 -103.5s-125.5 -30.5 -193.5 -30.5c-67.333 0 -128.833 11.667 -184.5 35s-103.334 56.666 -143.001 99.999s-70.334 95.833 -92.001 157.5s-32.5 131.167 -32.5 208.5c0 76.667 10.5 146 31.5 208
s50.833 114.833 89.5 158.5s84.667 77.334 138 101.001s112.666 35.5 177.999 35.5c62 0 118.5 -11.667 169.5 -35s94.667 -56.833 131 -100.5s64.666 -96.334 84.999 -158.001s30.5 -130.5 30.5 -206.5zM728.004 561.002c-9.33301 76.667 -32.667 135.832 -70 177.499
s-86 62.5 -146 62.5c-64.667 0 -116 -21.167 -154 -63.5s-61.667 -101.166 -71 -176.499h441zM883.003 -307c-30.667 -30.667 -65.5039 -53.999 -104.504 -69.999s-81.5 -24 -127.5 -24c-38 0 -72.667 5 -104 15s-58.166 23.833 -80.499 41.5s-39.833 38.834 -52.5 63.501
s-19 51.667 -19 81c0 33.333 6.83301 63.666 20.5 90.999s33.334 52.166 59.001 74.499s56.834 43 93.501 62s78 36.833 124 53.5l64 -56c-63.333 -32 -108.333 -62.5 -135 -91.5s-40 -58.833 -40 -89.5c0 -22.667 8 -41.167 24 -55.5s38 -21.5 66 -21.5
c40.667 0 77.334 15.333 110.001 46z" />
    <glyph glyph-name="Ecaron" unicode="&#x11a;" horiz-adv-x="1179" 
d="M1055 201v-201h-900v1400h894v-201h-677v-393h650v-201h-650v-404h683zM469 1809l131 -169l130 169h194l-204 -303h-241l-204 303h194z" />
    <glyph glyph-name="ecaron" unicode="&#x11b;" horiz-adv-x="1009" 
d="M931 483c0 -12.667 -0.329102 -25.165 -0.996094 -37.498s-1.66699 -24.166 -3 -35.499h-641c5.33301 -43.333 15.666 -80.833 30.999 -112.5s34.333 -57.834 57 -78.501s48.334 -35.834 77.001 -45.501s59.667 -14.5 93 -14.5c46 0 90.167 8.5 132.5 25.5
s80.5 40.5 114.5 70.5l103 -142c-52.667 -48.667 -109.5 -83.167 -170.5 -103.5s-125.5 -30.5 -193.5 -30.5c-67.333 0 -128.833 11.667 -184.5 35s-103.334 56.666 -143.001 99.999s-70.334 95.833 -92.001 157.5s-32.5 131.167 -32.5 208.5c0 76.667 10.5 146 31.5 208
s50.833 114.833 89.5 158.5s84.667 77.334 138 101.001s112.666 35.5 177.999 35.5c62 0 118.5 -11.667 169.5 -35s94.667 -56.833 131 -100.5s64.666 -96.334 84.999 -158.001s30.5 -130.5 30.5 -206.5zM728.004 561.002c-9.33301 76.667 -32.667 135.832 -70 177.499
s-86 62.5 -146 62.5c-64.667 0 -116 -21.167 -154 -63.5s-61.667 -101.166 -71 -176.499h441zM384.003 1398l131 -169l130 169h194l-204 -303h-241l-204 303h194z" />
    <glyph glyph-name="Gcircumflex" unicode="&#x11c;" horiz-adv-x="1415" 
d="M739 1422c105.333 0 199.498 -21.334 282.498 -64.001s151.5 -103 205.5 -181l-167 -130c-38 52 -84.167 92.5 -138.5 121.5s-115.833 43.5 -184.5 43.5c-60.667 0 -116.334 -11.5 -167.001 -34.5s-94.5 -56.5 -131.5 -100.5s-65.833 -97.667 -86.5 -161
s-31 -135.333 -31 -216c0 -81.333 10.5 -153.833 31.5 -217.5s50 -117.334 87 -161.001s80.5 -77 130.5 -100s104.333 -34.5 163 -34.5c111.333 0 199.333 32.333 264 97s103.334 159.334 116.001 284.001h-336v196h559c2 -23.333 3 -49.333 3 -78
c0 -105.333 -14.333 -201.5 -43 -288.5s-69.167 -161.5 -121.5 -223.5s-115.666 -110 -189.999 -144s-157.5 -51 -249.5 -51c-86 0 -167.833 15.667 -245.5 47s-145.667 77.5 -204 138.5s-104.666 136.333 -138.999 226s-51.5 192.834 -51.5 309.501
c0 109.333 15.667 208.5 47 297.5s75.5 165 132.5 228s124.833 111.5 203.5 145.5s165.667 51 261 51zM851.998 1508l-131 169l-130 -169h-194l204 303h241l204 -303h-194z" />
    <glyph glyph-name="gcircumflex" unicode="&#x11d;" horiz-adv-x="1096" 
d="M961 962l-0.000976562 -900.999c0 -73.333 -11 -138.333 -33 -195s-53.333 -104.5 -94 -143.5s-89.334 -68.667 -146.001 -89s-120 -30.5 -190 -30.5c-71.333 0 -139.5 9.83301 -204.5 29.5s-119.833 47.834 -164.5 84.501l81 165
c39.333 -28.667 82.5 -51.334 129.5 -68.001s97.5 -25 151.5 -25c40.667 0 77.5 5.66699 110.5 17s61.167 28.166 84.5 50.499s41.5 49.833 54.5 82.5s19.5 70.667 19.5 114v110c-30.667 -47.333 -69.5 -84.333 -116.5 -111s-102.833 -40 -167.5 -40
c-53.333 0 -104.166 11.167 -152.499 33.5s-90.666 54.5 -126.999 96.5s-65.166 93 -86.499 153s-32 127.667 -32 203c0 74.667 10.667 142 32 202s50.166 111 86.499 153s78.666 74.167 126.999 96.5s99.166 33.5 152.499 33.5c64.667 0 120.834 -13.667 168.501 -41
s86.834 -65.333 117.501 -114v134h199zM528.999 204.001c36.667 0 70 7 100 21s55.667 33.833 77 59.5s37.833 56.5 49.5 92.5s17.5 76 17.5 120s-5.83301 84.167 -17.5 120.5s-28.167 67.333 -49.5 93s-47 45.5 -77 59.5s-63.333 21 -100 21
c-37.333 0 -71 -7.16699 -101 -21.5s-55.5 -34.5 -76.5 -60.5s-37.167 -57 -48.5 -93s-17 -75.667 -17 -119s5.66699 -82.833 17 -118.5s27.5 -66.5 48.5 -92.5s46.5 -46.167 76.5 -60.5s63.667 -21.5 101 -21.5zM666.999 1097l-131 169l-130 -169h-194l204 303h241
l204 -303h-194z" />
    <glyph glyph-name="Gbreve" unicode="&#x11e;" horiz-adv-x="1415" 
d="M739 1422c105.333 0 199.498 -21.334 282.498 -64.001s151.5 -103 205.5 -181l-167 -130c-38 52 -84.167 92.5 -138.5 121.5s-115.833 43.5 -184.5 43.5c-60.667 0 -116.334 -11.5 -167.001 -34.5s-94.5 -56.5 -131.5 -100.5s-65.833 -97.667 -86.5 -161
s-31 -135.333 -31 -216c0 -81.333 10.5 -153.833 31.5 -217.5s50 -117.334 87 -161.001s80.5 -77 130.5 -100s104.333 -34.5 163 -34.5c111.333 0 199.333 32.333 264 97s103.334 159.334 116.001 284.001h-336v196h559c2 -23.333 3 -49.333 3 -78
c0 -105.333 -14.333 -201.5 -43 -288.5s-69.167 -161.5 -121.5 -223.5s-115.666 -110 -189.999 -144s-157.5 -51 -249.5 -51c-86 0 -167.833 15.667 -245.5 47s-145.667 77.5 -204 138.5s-104.666 136.333 -138.999 226s-51.5 192.834 -51.5 309.501
c0 109.333 15.667 208.5 47 297.5s75.5 165 132.5 228s124.833 111.5 203.5 145.5s165.667 51 261 51zM541.998 1837c14.667 -58.667 36.833 -101.5 66.5 -128.5s66.5 -40.5 110.5 -40.5c43.333 0 79.833 13.5 109.5 40.5s51.834 69.833 66.501 128.5l156 -38
c-22 -98.667 -61.167 -173.5 -117.5 -224.5s-127.833 -76.5 -214.5 -76.5s-158.334 25.5 -215.001 76.5s-96 125.833 -118 224.5z" />
    <glyph glyph-name="gbreve" unicode="&#x11f;" horiz-adv-x="1096" 
d="M961 962l-0.000976562 -900.999c0 -73.333 -11 -138.333 -33 -195s-53.333 -104.5 -94 -143.5s-89.334 -68.667 -146.001 -89s-120 -30.5 -190 -30.5c-71.333 0 -139.5 9.83301 -204.5 29.5s-119.833 47.834 -164.5 84.501l81 165
c39.333 -28.667 82.5 -51.334 129.5 -68.001s97.5 -25 151.5 -25c40.667 0 77.5 5.66699 110.5 17s61.167 28.166 84.5 50.499s41.5 49.833 54.5 82.5s19.5 70.667 19.5 114v110c-30.667 -47.333 -69.5 -84.333 -116.5 -111s-102.833 -40 -167.5 -40
c-53.333 0 -104.166 11.167 -152.499 33.5s-90.666 54.5 -126.999 96.5s-65.166 93 -86.499 153s-32 127.667 -32 203c0 74.667 10.667 142 32 202s50.166 111 86.499 153s78.666 74.167 126.999 96.5s99.166 33.5 152.499 33.5c64.667 0 120.834 -13.667 168.501 -41
s86.834 -65.333 117.501 -114v134h199zM528.999 204.001c36.667 0 70 7 100 21s55.667 33.833 77 59.5s37.833 56.5 49.5 92.5s17.5 76 17.5 120s-5.83301 84.167 -17.5 120.5s-28.167 67.333 -49.5 93s-47 45.5 -77 59.5s-63.333 21 -100 21
c-37.333 0 -71 -7.16699 -101 -21.5s-55.5 -34.5 -76.5 -60.5s-37.167 -57 -48.5 -93s-17 -75.667 -17 -119s5.66699 -82.833 17 -118.5s27.5 -66.5 48.5 -92.5s46.5 -46.167 76.5 -60.5s63.667 -21.5 101 -21.5zM358.999 1426c14.667 -58.667 36.833 -101.5 66.5 -128.5
s66.5 -40.5 110.5 -40.5c43.333 0 79.833 13.5 109.5 40.5s51.834 69.833 66.501 128.5l156 -38c-22 -98.667 -61.167 -173.5 -117.5 -224.5s-127.833 -76.5 -214.5 -76.5s-158.334 25.5 -215.001 76.5s-96 125.833 -118 224.5z" />
    <glyph glyph-name="Gdotaccent" unicode="&#x120;" horiz-adv-x="1415" 
d="M739 1422c105.333 0 199.498 -21.334 282.498 -64.001s151.5 -103 205.5 -181l-167 -130c-38 52 -84.167 92.5 -138.5 121.5s-115.833 43.5 -184.5 43.5c-60.667 0 -116.334 -11.5 -167.001 -34.5s-94.5 -56.5 -131.5 -100.5s-65.833 -97.667 -86.5 -161
s-31 -135.333 -31 -216c0 -81.333 10.5 -153.833 31.5 -217.5s50 -117.334 87 -161.001s80.5 -77 130.5 -100s104.333 -34.5 163 -34.5c111.333 0 199.333 32.333 264 97s103.334 159.334 116.001 284.001h-336v196h559c2 -23.333 3 -49.333 3 -78
c0 -105.333 -14.333 -201.5 -43 -288.5s-69.167 -161.5 -121.5 -223.5s-115.666 -110 -189.999 -144s-157.5 -51 -249.5 -51c-86 0 -167.833 15.667 -245.5 47s-145.667 77.5 -204 138.5s-104.666 136.333 -138.999 226s-51.5 192.834 -51.5 309.501
c0 109.333 15.667 208.5 47 297.5s75.5 165 132.5 228s124.833 111.5 203.5 145.5s165.667 51 261 51zM719.998 1799c19.333 0 37.5 -3.66895 54.5 -11.002s31.667 -17.166 44 -29.499s22 -27 29 -44s10.5 -35.167 10.5 -54.5s-3.5 -37.333 -10.5 -54
s-16.667 -31.167 -29 -43.5s-27 -22 -44 -29s-35.167 -10.5 -54.5 -10.5c-20 0 -38.333 3.5 -55 10.5s-31 16.667 -43 29s-21.5 27 -28.5 44s-10.5 35.167 -10.5 54.5s3.5 37.333 10.5 54s16.5 31.334 28.5 44.001s26.333 22.5 43 29.5s35 10.5 55 10.5z" />
    <glyph glyph-name="gdotaccent" unicode="&#x121;" horiz-adv-x="1096" 
d="M961 962l-0.000976562 -900.999c0 -73.333 -11 -138.333 -33 -195s-53.333 -104.5 -94 -143.5s-89.334 -68.667 -146.001 -89s-120 -30.5 -190 -30.5c-71.333 0 -139.5 9.83301 -204.5 29.5s-119.833 47.834 -164.5 84.501l81 165
c39.333 -28.667 82.5 -51.334 129.5 -68.001s97.5 -25 151.5 -25c40.667 0 77.5 5.66699 110.5 17s61.167 28.166 84.5 50.499s41.5 49.833 54.5 82.5s19.5 70.667 19.5 114v110c-30.667 -47.333 -69.5 -84.333 -116.5 -111s-102.833 -40 -167.5 -40
c-53.333 0 -104.166 11.167 -152.499 33.5s-90.666 54.5 -126.999 96.5s-65.166 93 -86.499 153s-32 127.667 -32 203c0 74.667 10.667 142 32 202s50.166 111 86.499 153s78.666 74.167 126.999 96.5s99.166 33.5 152.499 33.5c64.667 0 120.834 -13.667 168.501 -41
s86.834 -65.333 117.501 -114v134h199zM528.999 204.001c36.667 0 70 7 100 21s55.667 33.833 77 59.5s37.833 56.5 49.5 92.5s17.5 76 17.5 120s-5.83301 84.167 -17.5 120.5s-28.167 67.333 -49.5 93s-47 45.5 -77 59.5s-63.333 21 -100 21
c-37.333 0 -71 -7.16699 -101 -21.5s-55.5 -34.5 -76.5 -60.5s-37.167 -57 -48.5 -93s-17 -75.667 -17 -119s5.66699 -82.833 17 -118.5s27.5 -66.5 48.5 -92.5s46.5 -46.167 76.5 -60.5s63.667 -21.5 101 -21.5zM534.999 1424c18.667 0 36.167 -3.49805 52.5 -10.498
s30.5 -16.5 42.5 -28.5s21.5 -26.333 28.5 -43s10.5 -34.334 10.5 -53.001c0 -19.333 -3.5 -37 -10.5 -53s-16.5 -30 -28.5 -42s-26.167 -21.333 -42.5 -28s-33.833 -10 -52.5 -10c-19.333 0 -37 3.33301 -53 10s-30 16 -42 28s-21.333 26.167 -28 42.5
s-10 34.166 -10 53.499c0 18.667 3.33301 36.167 10 52.5s16 30.5 28 42.5s26 21.5 42 28.5s33.667 10.5 53 10.5z" />
    <glyph glyph-name="uni0122" unicode="&#x122;" horiz-adv-x="1415" 
d="M739 1422c105.333 0 199.498 -21.334 282.498 -64.001s151.5 -103 205.5 -181l-167 -130c-38 52 -84.167 92.5 -138.5 121.5s-115.833 43.5 -184.5 43.5c-60.667 0 -116.334 -11.5 -167.001 -34.5s-94.5 -56.5 -131.5 -100.5s-65.833 -97.667 -86.5 -161
s-31 -135.333 -31 -216c0 -81.333 10.5 -153.833 31.5 -217.5s50 -117.334 87 -161.001s80.5 -77 130.5 -100s104.333 -34.5 163 -34.5c111.333 0 199.333 32.333 264 97s103.334 159.334 116.001 284.001h-336v196h559c2 -23.333 3 -49.333 3 -78
c0 -105.333 -14.333 -201.5 -43 -288.5s-69.167 -161.5 -121.5 -223.5s-115.666 -110 -189.999 -144s-157.5 -51 -249.5 -51c-86 0 -167.833 15.667 -245.5 47s-145.667 77.5 -204 138.5s-104.666 136.333 -138.999 226s-51.5 192.834 -51.5 309.501
c0 109.333 15.667 208.5 47 297.5s75.5 165 132.5 228s124.833 111.5 203.5 145.5s165.667 51 261 51zM835.998 -86.001l-75 -353h-166l38 353h203z" />
    <glyph glyph-name="uni0123" unicode="&#x123;" horiz-adv-x="1096" 
d="M961 962l-0.000976562 -900.999c0 -73.333 -11 -138.333 -33 -195s-53.333 -104.5 -94 -143.5s-89.334 -68.667 -146.001 -89s-120 -30.5 -190 -30.5c-71.333 0 -139.5 9.83301 -204.5 29.5s-119.833 47.834 -164.5 84.501l81 165
c39.333 -28.667 82.5 -51.334 129.5 -68.001s97.5 -25 151.5 -25c40.667 0 77.5 5.66699 110.5 17s61.167 28.166 84.5 50.499s41.5 49.833 54.5 82.5s19.5 70.667 19.5 114v110c-30.667 -47.333 -69.5 -84.333 -116.5 -111s-102.833 -40 -167.5 -40
c-53.333 0 -104.166 11.167 -152.499 33.5s-90.666 54.5 -126.999 96.5s-65.166 93 -86.499 153s-32 127.667 -32 203c0 74.667 10.667 142 32 202s50.166 111 86.499 153s78.666 74.167 126.999 96.5s99.166 33.5 152.499 33.5c64.667 0 120.834 -13.667 168.501 -41
s86.834 -65.333 117.501 -114v134h199zM528.999 204.001c36.667 0 70 7 100 21s55.667 33.833 77 59.5s37.833 56.5 49.5 92.5s17.5 76 17.5 120s-5.83301 84.167 -17.5 120.5s-28.167 67.333 -49.5 93s-47 45.5 -77 59.5s-63.333 21 -100 21
c-37.333 0 -71 -7.16699 -101 -21.5s-55.5 -34.5 -76.5 -60.5s-37.167 -57 -48.5 -93s-17 -75.667 -17 -119s5.66699 -82.833 17 -118.5s27.5 -66.5 48.5 -92.5s46.5 -46.167 76.5 -60.5s63.667 -21.5 101 -21.5zM428.999 1099l74 362h167l-38 -362h-203z" />
    <glyph glyph-name="Hcircumflex" unicode="&#x124;" horiz-adv-x="1391" 
d="M1236 1400v-1400h-217v604h-647v-604h-217v1400h217v-593h647v593h217zM827 1508l-131 169l-130 -169h-194l204 303h241l204 -303h-194z" />
    <glyph glyph-name="hcircumflex" unicode="&#x125;" horiz-adv-x="1077" 
d="M608 983c50.667 0 97 -8.33301 139 -25s78 -40.167 108 -70.5s53.333 -67 70 -110s25 -90.833 25 -143.5v-634h-204v573c0 70.667 -17.333 124.5 -52 161.5s-82.667 55.5 -144 55.5c-29.333 0 -56.833 -4.83301 -82.5 -14.5s-48 -24 -67 -43s-34 -42.167 -45 -69.5
s-16.5 -58.333 -16.5 -93v-570h-204v1440h204v-598c16 26 34.333 48 55 66s42.667 32.5 66 43.5s47.5 19 72.5 24s50.167 7.5 75.5 7.5zM666 1535l-131 169l-130 -169h-194l204 303h241l204 -303h-194z" />
    <glyph glyph-name="Hbar" unicode="&#x126;" horiz-adv-x="1453" 
d="M1266 1400v-1400h-217v604h-647v-604h-217v1400h217v-593h647v593h217zM1406 1002h-1359v173h1359v-173z" />
    <glyph glyph-name="hbar" unicode="&#x127;" horiz-adv-x="1077" 
d="M608 983c50.667 0 97 -8.33301 139 -25s78 -40.167 108 -70.5s53.333 -67 70 -110s25 -90.833 25 -143.5v-634h-204v573c0 70.667 -17.333 124.5 -52 161.5s-82.667 55.5 -144 55.5c-29.333 0 -56.833 -4.83301 -82.5 -14.5s-48 -24 -67 -43s-34 -42.167 -45 -69.5
s-16.5 -58.333 -16.5 -93v-570h-204v1440h204v-598c16 26 34.333 48 55 66s42.667 32.5 66 43.5s47.5 19 72.5 24s50.167 7.5 75.5 7.5zM660 1102h-657v173h657v-173z" />
    <glyph glyph-name="Itilde" unicode="&#x128;" horiz-adv-x="527" 
d="M372 0h-217v1400h217v-1400zM-81 1665c30.667 41.333 63.832 71.5 99.499 90.5s76.5 28.5 122.5 28.5c30.667 0 57.167 -3.66699 79.5 -11s42.5 -15.166 60.5 -23.499s34.5 -16.166 49.5 -23.499s30.833 -11 47.5 -11c20 0 39.167 5.5 57.5 16.5s37.833 27.5 58.5 49.5
l107 -120c-31.333 -41.333 -64.666 -71.5 -99.999 -90.5s-76.333 -28.5 -123 -28.5c-30 0 -56.167 3.66699 -78.5 11s-42.333 15.166 -60 23.499s-34.167 16.166 -49.5 23.499s-31.333 11 -48 11c-20 0 -39.167 -5.5 -57.5 -16.5s-37.833 -27.5 -58.5 -49.5z" />
    <glyph glyph-name="itilde" unicode="&#x129;" horiz-adv-x="472" 
d="M337 0h-202v962h202v-962zM-104 1254c30.667 41.333 63.832 71.5 99.499 90.5s76.5 28.5 122.5 28.5c30.667 0 57.167 -3.66699 79.5 -11s42.5 -15.166 60.5 -23.499s34.5 -16.166 49.5 -23.499s30.833 -11 47.5 -11c20 0 39.167 5.5 57.5 16.5s37.833 27.5 58.5 49.5
l107 -120c-31.333 -41.333 -64.666 -71.5 -99.999 -90.5s-76.333 -28.5 -123 -28.5c-30 0 -56.167 3.66699 -78.5 11s-42.333 15.166 -60 23.499s-34.167 16.166 -49.5 23.499s-31.333 11 -48 11c-20 0 -39.167 -5.5 -57.5 -16.5s-37.833 -27.5 -58.5 -49.5z" />
    <glyph glyph-name="Imacron" unicode="&#x12a;" horiz-adv-x="527" 
d="M372 0h-217v1400h217v-1400zM-25 1743h576v-170h-576v170z" />
    <glyph glyph-name="imacron" unicode="&#x12b;" horiz-adv-x="472" 
d="M337 0h-202v962h202v-962zM-52 1333h576v-170h-576v170z" />
    <glyph glyph-name="Ibreve" unicode="&#x12c;" horiz-adv-x="527" 
d="M372 0h-217v1400h217v-1400zM85 1837c14.667 -58.667 36.833 -101.5 66.5 -128.5s66.5 -40.5 110.5 -40.5c43.333 0 79.833 13.5 109.5 40.5s51.834 69.833 66.501 128.5l156 -38c-22 -98.667 -61.167 -173.5 -117.5 -224.5s-127.833 -76.5 -214.5 -76.5
s-158.334 25.5 -215.001 76.5s-96 125.833 -118 224.5z" />
    <glyph glyph-name="ibreve" unicode="&#x12d;" horiz-adv-x="472" 
d="M337 0h-202v962h202v-962zM59 1426c14.667 -58.667 36.833 -101.5 66.5 -128.5s66.5 -40.5 110.5 -40.5c43.333 0 79.833 13.5 109.5 40.5s51.834 69.833 66.501 128.5l156 -38c-22 -98.667 -61.167 -173.5 -117.5 -224.5s-127.833 -76.5 -214.5 -76.5
s-158.334 25.5 -215.001 76.5s-96 125.833 -118 224.5z" />
    <glyph glyph-name="Iogonek" unicode="&#x12e;" horiz-adv-x="527" 
d="M372 0h-217v1400h217v-1400zM480 -315c-56 -57.333 -124 -86.002 -204 -86.002c-31.333 0 -60.5 4.33301 -87.5 13s-50.333 21 -70 37s-35 35.5 -46 58.5s-16.5 48.833 -16.5 77.5c0 59.333 21.667 111.833 65 157.5s103.666 86.834 180.999 123.501l69 -66
c-50 -30 -85 -60.167 -105 -90.5s-30 -57.166 -30 -80.499c0 -19.333 5.83301 -34.5 17.5 -45.5s27.167 -16.5 46.5 -16.5c28.667 0 55.334 13.333 80.001 40z" />
    <glyph glyph-name="iogonek" unicode="&#x12f;" horiz-adv-x="472" 
d="M445 -315c-56 -57.333 -124 -86.002 -204 -86.002c-31.333 0 -60.5 4.33301 -87.5 13s-50.333 21 -70 37s-35 35.5 -46 58.5s-16.5 48.833 -16.5 77.5c0 59.333 21.667 111.833 65 157.5s103.666 86.834 180.999 123.501l69 -66c-50 -30 -85 -60.167 -105 -90.5
s-30 -57.166 -30 -80.499c0 -19.333 5.83301 -34.5 17.5 -45.5s27.167 -16.5 46.5 -16.5c28.667 0 55.334 13.333 80.001 40zM337 -0.00195312h-202v962h202v-962zM235 1424c18.667 0 36.167 -3.49805 52.5 -10.498s30.5 -16.5 42.5 -28.5s21.5 -26.333 28.5 -43
s10.5 -34.334 10.5 -53.001c0 -19.333 -3.5 -37 -10.5 -53s-16.5 -30 -28.5 -42s-26.167 -21.333 -42.5 -28s-33.833 -10 -52.5 -10c-19.333 0 -37 3.33301 -53 10s-30 16 -42 28s-21.333 26.167 -28 42.5s-10 34.166 -10 53.499c0 18.667 3.33301 36.167 10 52.5
s16 30.5 28 42.5s26 21.5 42 28.5s33.667 10.5 53 10.5z" />
    <glyph glyph-name="Idotaccent" unicode="&#x130;" horiz-adv-x="527" 
d="M372 0h-217v1400h217v-1400zM263 1799c19.333 0 37.5 -3.66895 54.5 -11.002s31.667 -17.166 44 -29.499s22 -27 29 -44s10.5 -35.167 10.5 -54.5s-3.5 -37.333 -10.5 -54s-16.667 -31.167 -29 -43.5s-27 -22 -44 -29s-35.167 -10.5 -54.5 -10.5
c-20 0 -38.333 3.5 -55 10.5s-31 16.667 -43 29s-21.5 27 -28.5 44s-10.5 35.167 -10.5 54.5s3.5 37.333 10.5 54s16.5 31.334 28.5 44.001s26.333 22.5 43 29.5s35 10.5 55 10.5z" />
    <glyph glyph-name="dotlessi" unicode="&#x131;" horiz-adv-x="472" 
d="M337 0h-202v962h202v-962z" />
    <glyph glyph-name="IJ" unicode="&#x132;" horiz-adv-x="1534" 
d="M372 0h-217v1400h217v-1400zM1386 461c0 -78 -11.168 -146.999 -33.501 -206.999s-53.5 -110.333 -93.5 -151s-87.333 -71.5 -142 -92.5s-114 -31.5 -178 -31.5c-48.667 0 -93 5 -133 15s-76 23.333 -108 40s-60 35.334 -84 56.001s-44.667 42 -62 64l128 155
c26.667 -34 60.334 -62.5 101.001 -85.5s89.667 -34.5 147 -34.5c36.667 0 69.667 6 99 18s54.5 30.167 75.5 54.5s37.167 54.666 48.5 90.999s17 79.166 17 128.499v919h218v-939z" />
    <glyph glyph-name="ij" unicode="&#x133;" horiz-adv-x="946" 
d="M812 -119c0 -45.333 -6.00098 -85.3311 -18.001 -119.998s-29 -63.834 -51 -87.501s-48.167 -41.5 -78.5 -53.5s-63.833 -18 -100.5 -18c-26 0 -51.667 2.66699 -77 8s-47 12.333 -65 21l40 178c10 -4.66699 20.833 -8.33398 32.5 -11.001s23.834 -4 36.501 -4
c23.333 0 42.333 7.66699 57 23s22 41 22 77v1068h202v-1081zM708.999 1424c18.667 0 36.167 -3.49805 52.5 -10.498s30.5 -16.5 42.5 -28.5s21.5 -26.333 28.5 -43s10.5 -34.334 10.5 -53.001c0 -19.333 -3.5 -37 -10.5 -53s-16.5 -30 -28.5 -42s-26.167 -21.333 -42.5 -28
s-33.833 -10 -52.5 -10c-19.333 0 -37 3.33301 -53 10s-30 16 -42 28s-21.333 26.167 -28 42.5s-10 34.166 -10 53.499c0 18.667 3.33301 36.167 10 52.5s16 30.5 28 42.5s26 21.5 42 28.5s33.667 10.5 53 10.5zM336.999 0.00390625h-202v962h202v-962zM234.999 1424
c18.667 0 36.167 -3.49805 52.5 -10.498s30.5 -16.5 42.5 -28.5s21.5 -26.333 28.5 -43s10.5 -34.334 10.5 -53.001c0 -19.333 -3.5 -37 -10.5 -53s-16.5 -30 -28.5 -42s-26.167 -21.333 -42.5 -28s-33.833 -10 -52.5 -10c-19.333 0 -37 3.33301 -53 10s-30 16 -42 28
s-21.333 26.167 -28 42.5s-10 34.166 -10 53.499c0 18.667 3.33301 36.167 10 52.5s16 30.5 28 42.5s26 21.5 42 28.5s33.667 10.5 53 10.5z" />
    <glyph glyph-name="Jcircumflex" unicode="&#x134;" horiz-adv-x="1007" 
d="M859 461c0 -78 -11.168 -146.999 -33.501 -206.999s-53.5 -110.333 -93.5 -151s-87.333 -71.5 -142 -92.5s-114 -31.5 -178 -31.5c-48.667 0 -93 5 -133 15s-76 23.333 -108 40s-60 35.334 -84 56.001s-44.667 42 -62 64l128 155c26.667 -34 60.334 -62.5 101.001 -85.5
s89.667 -34.5 147 -34.5c36.667 0 69.667 6 99 18s54.5 30.167 75.5 54.5s37.167 54.666 48.5 90.999s17 79.166 17 128.499v919h218v-939zM880.999 1508l-131 169l-130 -169h-194l204 303h241l204 -303h-194z" />
    <glyph glyph-name="jcircumflex" unicode="&#x135;" horiz-adv-x="475" 
d="M340 -119c0 -45.333 -6.00098 -85.3311 -18.001 -119.998s-29 -63.834 -51 -87.501s-48.167 -41.5 -78.5 -53.5s-63.833 -18 -100.5 -18c-26 0 -51.667 2.66699 -77 8s-47 12.333 -65 21l40 178c10 -4.66699 20.833 -8.33398 32.5 -11.001s23.834 -4 36.501 -4
c23.333 0 42.333 7.66699 57 23s22 41 22 77v1068h202v-1081zM368.999 1097l-131 169l-130 -169h-194l204 303h241l204 -303h-194z" />
    <glyph glyph-name="uni0136" unicode="&#x136;" horiz-adv-x="1272" 
d="M494 603h-122v-603h-217v1400h217v-594h126l459 594h267l-549 -685l585 -715h-278zM749 -86l-75 -353h-166l38 353h203z" />
    <glyph glyph-name="uni0137" unicode="&#x137;" horiz-adv-x="982" 
d="M432 408h-95v-408h-202v1440h202v-843h97l276 365h245l-357 -455l362 -507h-246zM622 -84l-75 -353h-166l38 353h203z" />
    <glyph glyph-name="kgreenlandic" unicode="&#x138;" horiz-adv-x="980" 
d="M433 408h-97v-408h-201v962h201v-365h99l272 365h245l-353 -455l359 -507h-246z" />
    <glyph glyph-name="Lacute" unicode="&#x139;" horiz-adv-x="1077" 
d="M1046 203v-203h-891v1400h217v-1197h674zM114 1509l186 308h239l-235 -308h-190z" />
    <glyph glyph-name="lacute" unicode="&#x13a;" horiz-adv-x="472" 
d="M337 0h-202v1440h202v-1440zM71 1536l186 308h239l-235 -308h-190z" />
    <glyph glyph-name="uni013B" unicode="&#x13b;" horiz-adv-x="1077" 
d="M1046 203v-203h-891v1400h217v-1197h674zM712 -86l-75 -353h-166l38 353h203z" />
    <glyph glyph-name="uni013C" unicode="&#x13c;" horiz-adv-x="472" 
d="M337 0h-202v1440h202v-1440zM346 -84l-75 -353h-166l38 353h203z" />
    <glyph glyph-name="Lcaron" unicode="&#x13d;" horiz-adv-x="1077" 
d="M1046 203v-203h-891v1400h217v-1197h674zM554 990l3 411h196l-41 -411h-158z" />
    <glyph glyph-name="lcaron" unicode="&#x13e;" horiz-adv-x="562" 
d="M337 0h-202v1440h202v-1440zM429 1029l3 411h196l-41 -411h-158z" />
    <glyph glyph-name="Ldot" unicode="&#x13f;" horiz-adv-x="1077" 
d="M1046 203v-203h-891v1400h217v-1197h674zM791 845c19.333 0 37.5 -3.66895 54.5 -11.002s31.667 -17.166 44 -29.499s22 -27 29 -44s10.5 -35.167 10.5 -54.5s-3.5 -37.333 -10.5 -54s-16.667 -31.167 -29 -43.5s-27 -22 -44 -29s-35.167 -10.5 -54.5 -10.5
c-20 0 -38.333 3.5 -55 10.5s-31 16.667 -43 29s-21.5 27 -28.5 44s-10.5 35.167 -10.5 54.5s3.5 37.333 10.5 54s16.5 31.334 28.5 44.001s26.333 22.5 43 29.5s35 10.5 55 10.5z" />
    <glyph glyph-name="ldot" unicode="&#x140;" horiz-adv-x="638" 
d="M337 0h-202v1440h202v-1440zM556.157 862.796c18.5195 0 35.8818 -3.47266 52.0869 -10.417c16.2041 -6.94531 30.2588 -16.3701 42.1641 -28.2754s21.3301 -26.126 28.2744 -42.6621c6.94531 -16.5352 10.418 -34.0625 10.418 -52.582
c0 -19.1816 -3.47266 -36.709 -10.418 -52.583c-6.94434 -15.874 -16.3691 -29.7637 -28.2744 -41.6689s-25.96 -21.165 -42.1641 -27.7793c-16.2051 -6.61426 -33.5674 -9.9209 -52.0869 -9.9209c-19.1807 0 -36.708 3.30664 -52.582 9.9209
s-29.7637 15.874 -41.6689 27.7793s-21.165 25.9609 -27.7793 42.166c-6.61426 16.2041 -9.92188 33.8965 -9.92188 53.0771c0 18.5205 3.30762 35.8828 9.92188 52.0869c6.61426 16.2051 15.874 30.2607 27.7793 42.166s25.7949 21.3301 41.6689 28.2754
c15.874 6.94434 33.4014 10.417 52.582 10.417z" />
    <glyph glyph-name="Lslash" unicode="&#x141;" horiz-adv-x="1184" 
d="M1153 203v-203h-891v479l-169 -94v218l169 94v703h217v-581l426 238v-219l-426 -238v-397h674z" />
    <glyph glyph-name="lslash" unicode="&#x142;" horiz-adv-x="631" 
d="M417 912l173 113v-204l-173 -114v-707h-202v575l-174 -114v205l174 114v660h202v-528z" />
    <glyph glyph-name="Nacute" unicode="&#x143;" horiz-adv-x="1406" 
d="M1251 -1h-204l-676 996v-995h-216v1401h204l676 -999v998h216v-1401zM554 1509l186 308h239l-235 -308h-190z" />
    <glyph glyph-name="nacute" unicode="&#x144;" horiz-adv-x="1076" 
d="M608 983c50.667 0 96.832 -8.33301 138.499 -25s77.5 -40.167 107.5 -70.5s53.333 -67 70 -110s25 -90.833 25 -143.5v-634h-203v573c0 70.667 -17.333 124.5 -52 161.5s-83 55.5 -145 55.5c-29.333 0 -56.666 -4.83301 -81.999 -14.5s-47.5 -24 -66.5 -43
s-34 -42.167 -45 -69.5s-16.5 -58.333 -16.5 -93v-570h-204v962h198v-130c16 28 34.5 51.667 55.5 71s43.5 34.833 67.5 46.5s48.833 20.167 74.5 25.5s51.5 8 77.5 8zM407.998 1098l186 308h239l-235 -308h-190z" />
    <glyph glyph-name="uni0145" unicode="&#x145;" horiz-adv-x="1406" 
d="M1251 -1h-204l-676 996v-995h-216v1401h204l676 -999v998h216v-1401zM813 -86l-75 -353h-166l38 353h203z" />
    <glyph glyph-name="uni0146" unicode="&#x146;" horiz-adv-x="1076" 
d="M608 983c50.667 0 96.832 -8.33301 138.499 -25s77.5 -40.167 107.5 -70.5s53.333 -67 70 -110s25 -90.833 25 -143.5v-634h-203v573c0 70.667 -17.333 124.5 -52 161.5s-83 55.5 -145 55.5c-29.333 0 -56.666 -4.83301 -81.999 -14.5s-47.5 -24 -66.5 -43
s-34 -42.167 -45 -69.5s-16.5 -58.333 -16.5 -93v-570h-204v962h198v-130c16 28 34.5 51.667 55.5 71s43.5 34.833 67.5 46.5s48.833 20.167 74.5 25.5s51.5 8 77.5 8zM651.998 -84l-75 -353h-166l38 353h203z" />
    <glyph glyph-name="Ncaron" unicode="&#x147;" horiz-adv-x="1406" 
d="M1251 -1h-204l-676 996v-995h-216v1401h204l676 -999v998h216v-1401zM572 1809l131 -169l130 169h194l-204 -303h-241l-204 303h194z" />
    <glyph glyph-name="ncaron" unicode="&#x148;" horiz-adv-x="1076" 
d="M608 983c50.667 0 96.832 -8.33301 138.499 -25s77.5 -40.167 107.5 -70.5s53.333 -67 70 -110s25 -90.833 25 -143.5v-634h-203v573c0 70.667 -17.333 124.5 -52 161.5s-83 55.5 -145 55.5c-29.333 0 -56.666 -4.83301 -81.999 -14.5s-47.5 -24 -66.5 -43
s-34 -42.167 -45 -69.5s-16.5 -58.333 -16.5 -93v-570h-204v962h198v-130c16 28 34.5 51.667 55.5 71s43.5 34.833 67.5 46.5s48.833 20.167 74.5 25.5s51.5 8 77.5 8zM417.998 1398l131 -169l130 169h194l-204 -303h-241l-204 303h194z" />
    <glyph glyph-name="napostrophe" unicode="&#x149;" horiz-adv-x="1349" 
d="M377 1439l-113 -533h-170l57 533h226zM881 983c50.667 0 96.832 -8.33301 138.499 -25s77.5 -40.167 107.5 -70.5s53.333 -67 70 -110s25 -90.833 25 -143.5v-634h-203v573c0 70.667 -17.333 124.5 -52 161.5s-83 55.5 -145 55.5
c-29.333 0 -56.666 -4.83301 -81.999 -14.5s-47.5 -24 -66.5 -43s-34 -42.167 -45 -69.5s-16.5 -58.333 -16.5 -93v-570h-204v962h198v-130c16 28 34.5 51.667 55.5 71s43.5 34.833 67.5 46.5s48.833 20.167 74.5 25.5s51.5 8 77.5 8z" />
    <glyph glyph-name="Eng" unicode="&#x14a;" horiz-adv-x="1406" 
d="M1250 -20c0 -56 -7.16602 -107.17 -21.499 -153.503s-35.666 -86.166 -63.999 -119.499s-64 -59.166 -107 -77.499s-92.833 -27.5 -149.5 -27.5c-54.667 0 -103.834 6.83301 -147.501 20.5s-81.834 31.167 -114.501 52.5l86 182
c21.333 -13.333 44.833 -24.166 70.5 -32.499s52.167 -12.5 79.5 -12.5c52.667 0 91.167 15.833 115.5 47.5s36.5 76.5 36.5 134.5v24l-663 977v-995h-216v1401h204l676 -998v997h216z" />
    <glyph glyph-name="eng" unicode="&#x14b;" horiz-adv-x="1076" 
d="M608 983c50.667 0 96.8311 -8.33105 138.498 -24.998s77.5 -40.167 107.5 -70.5s53.333 -67 70 -110s25 -90.833 25 -143.5v-691c0 -45.333 -6.16699 -85.333 -18.5 -120s-29.5 -63.834 -51.5 -87.501s-48.167 -41.5 -78.5 -53.5s-63.833 -18 -100.5 -18
c-26 0 -51.667 2.66699 -77 8s-47 12.333 -65 21l40 178c10 -4.66699 20.833 -8.33398 32.5 -11.001s23.834 -4 36.501 -4c23.333 0 42.333 7.83301 57 23.5s22 41.167 22 76.5v617c0 70.667 -17.333 124.5 -52 161.5s-83 55.5 -145 55.5
c-29.333 0 -56.666 -4.83301 -81.999 -14.5s-47.5 -24 -66.5 -43s-34 -42.167 -45 -69.5s-16.5 -58.333 -16.5 -93v-570h-204v962h198v-130c16 28 34.5 51.667 55.5 71s43.5 34.833 67.5 46.5s48.833 20.167 74.5 25.5s51.5 8 77.5 8z" />
    <glyph glyph-name="Omacron" unicode="&#x14c;" horiz-adv-x="1477" 
d="M739 1422c96 0 183.333 -17.333 262 -52s146.334 -83.5 203.001 -146.5s100.5 -138.833 131.5 -227.5s46.5 -187.334 46.5 -296.001s-15.5 -207.334 -46.5 -296.001s-74.833 -164.5 -131.5 -227.5s-124.334 -111.833 -203.001 -146.5s-166 -52 -262 -52
s-183.5 17.333 -262.5 52s-146.833 83.5 -203.5 146.5s-100.5 138.833 -131.5 227.5s-46.5 187.334 -46.5 296.001s15.5 207.334 46.5 296.001s74.833 164.5 131.5 227.5s124.5 111.833 203.5 146.5s166.5 52 262.5 52zM739 1211c-61.333 0 -117.5 -11.667 -168.5 -35
s-95 -57 -132 -101s-65.833 -97.667 -86.5 -161s-31 -134.666 -31 -213.999s10.333 -150.666 31 -213.999s49.5 -117 86.5 -161s81 -77.667 132 -101s107.167 -35 168.5 -35c60.667 0 116.5 11.667 167.5 35s95 57 132 101s65.833 97.667 86.5 161s31 134.666 31 213.999
s-10.333 150.666 -31 213.999s-49.5 117 -86.5 161s-81 77.667 -132 101s-106.833 35 -167.5 35zM450 1743h576v-170h-576v170z" />
    <glyph glyph-name="omacron" unicode="&#x14d;" horiz-adv-x="1078" 
d="M539 983c67.333 0 129.333 -12.167 186 -36.5s105.334 -58.5 146.001 -102.5s72.334 -96.833 95.001 -158.5s34 -129.834 34 -204.501s-11.333 -142.834 -34 -204.501s-54.334 -114.5 -95.001 -158.5s-89.334 -78.167 -146.001 -102.5s-118.667 -36.5 -186 -36.5
s-129.333 12.167 -186 36.5s-105.334 58.5 -146.001 102.5s-72.334 96.833 -95.001 158.5s-34 129.834 -34 204.501s11.333 142.834 34 204.501s54.334 114.5 95.001 158.5s89.334 78.167 146.001 102.5s118.667 36.5 186 36.5zM539 791
c-37.333 0 -71.5 -7.16699 -102.5 -21.5s-57.833 -35 -80.5 -62s-40.334 -59.5 -53.001 -97.5s-19 -81 -19 -129s6.33301 -91.167 19 -129.5s30.334 -70.833 53.001 -97.5s49.5 -47.167 80.5 -61.5s65.167 -21.5 102.5 -21.5c36.667 0 70.667 7.16699 102 21.5
s58.5 34.833 81.5 61.5s40.833 59.167 53.5 97.5s19 81.5 19 129.5s-6.33301 91 -19 129s-30.5 70.5 -53.5 97.5s-50.167 47.667 -81.5 62s-65.333 21.5 -102 21.5zM251 1332h576v-170h-576v170z" />
    <glyph glyph-name="Obreve" unicode="&#x14e;" horiz-adv-x="1477" 
d="M739 1422c96 0 183.333 -17.333 262 -52s146.334 -83.5 203.001 -146.5s100.5 -138.833 131.5 -227.5s46.5 -187.334 46.5 -296.001s-15.5 -207.334 -46.5 -296.001s-74.833 -164.5 -131.5 -227.5s-124.334 -111.833 -203.001 -146.5s-166 -52 -262 -52
s-183.5 17.333 -262.5 52s-146.833 83.5 -203.5 146.5s-100.5 138.833 -131.5 227.5s-46.5 187.334 -46.5 296.001s15.5 207.334 46.5 296.001s74.833 164.5 131.5 227.5s124.5 111.833 203.5 146.5s166.5 52 262.5 52zM739 1211c-61.333 0 -117.5 -11.667 -168.5 -35
s-95 -57 -132 -101s-65.833 -97.667 -86.5 -161s-31 -134.666 -31 -213.999s10.333 -150.666 31 -213.999s49.5 -117 86.5 -161s81 -77.667 132 -101s107.167 -35 168.5 -35c60.667 0 116.5 11.667 167.5 35s95 57 132 101s65.833 97.667 86.5 161s31 134.666 31 213.999
s-10.333 150.666 -31 213.999s-49.5 117 -86.5 161s-81 77.667 -132 101s-106.833 35 -167.5 35zM560 1837c14.667 -58.667 36.833 -101.5 66.5 -128.5s66.5 -40.5 110.5 -40.5c43.333 0 79.833 13.5 109.5 40.5s51.834 69.833 66.501 128.5l156 -38
c-22 -98.667 -61.167 -173.5 -117.5 -224.5s-127.833 -76.5 -214.5 -76.5s-158.334 25.5 -215.001 76.5s-96 125.833 -118 224.5z" />
    <glyph glyph-name="obreve" unicode="&#x14f;" horiz-adv-x="1078" 
d="M539 983c67.333 0 129.333 -12.167 186 -36.5s105.334 -58.5 146.001 -102.5s72.334 -96.833 95.001 -158.5s34 -129.834 34 -204.501s-11.333 -142.834 -34 -204.501s-54.334 -114.5 -95.001 -158.5s-89.334 -78.167 -146.001 -102.5s-118.667 -36.5 -186 -36.5
s-129.333 12.167 -186 36.5s-105.334 58.5 -146.001 102.5s-72.334 96.833 -95.001 158.5s-34 129.834 -34 204.501s11.333 142.834 34 204.501s54.334 114.5 95.001 158.5s89.334 78.167 146.001 102.5s118.667 36.5 186 36.5zM539 791
c-37.333 0 -71.5 -7.16699 -102.5 -21.5s-57.833 -35 -80.5 -62s-40.334 -59.5 -53.001 -97.5s-19 -81 -19 -129s6.33301 -91.167 19 -129.5s30.334 -70.833 53.001 -97.5s49.5 -47.167 80.5 -61.5s65.167 -21.5 102.5 -21.5c36.667 0 70.667 7.16699 102 21.5
s58.5 34.833 81.5 61.5s40.833 59.167 53.5 97.5s19 81.5 19 129.5s-6.33301 91 -19 129s-30.5 70.5 -53.5 97.5s-50.167 47.667 -81.5 62s-65.333 21.5 -102 21.5zM362 1425c14.667 -58.667 36.833 -101.5 66.5 -128.5s66.5 -40.5 110.5 -40.5
c43.333 0 79.833 13.5 109.5 40.5s51.834 69.833 66.501 128.5l156 -38c-22 -98.667 -61.167 -173.5 -117.5 -224.5s-127.833 -76.5 -214.5 -76.5s-158.334 25.5 -215.001 76.5s-96 125.833 -118 224.5z" />
    <glyph glyph-name="Ohungarumlaut" unicode="&#x150;" horiz-adv-x="1477" 
d="M739 1422c96 0 183.333 -17.333 262 -52s146.334 -83.5 203.001 -146.5s100.5 -138.833 131.5 -227.5s46.5 -187.334 46.5 -296.001s-15.5 -207.334 -46.5 -296.001s-74.833 -164.5 -131.5 -227.5s-124.334 -111.833 -203.001 -146.5s-166 -52 -262 -52
s-183.5 17.333 -262.5 52s-146.833 83.5 -203.5 146.5s-100.5 138.833 -131.5 227.5s-46.5 187.334 -46.5 296.001s15.5 207.334 46.5 296.001s74.833 164.5 131.5 227.5s124.5 111.833 203.5 146.5s166.5 52 262.5 52zM739 1211c-61.333 0 -117.5 -11.667 -168.5 -35
s-95 -57 -132 -101s-65.833 -97.667 -86.5 -161s-31 -134.666 -31 -213.999s10.333 -150.666 31 -213.999s49.5 -117 86.5 -161s81 -77.667 132 -101s107.167 -35 168.5 -35c60.667 0 116.5 11.667 167.5 35s95 57 132 101s65.833 97.667 86.5 161s31 134.666 31 213.999
s-10.333 150.666 -31 213.999s-49.5 117 -86.5 161s-81 77.667 -132 101s-106.833 35 -167.5 35zM454 1509l179 308h212l-198 -308h-193zM786 1509l198 308h217l-220 -308h-195z" />
    <glyph glyph-name="ohungarumlaut" unicode="&#x151;" horiz-adv-x="1078" 
d="M539 983c67.333 0 129.333 -12.167 186 -36.5s105.334 -58.5 146.001 -102.5s72.334 -96.833 95.001 -158.5s34 -129.834 34 -204.501s-11.333 -142.834 -34 -204.501s-54.334 -114.5 -95.001 -158.5s-89.334 -78.167 -146.001 -102.5s-118.667 -36.5 -186 -36.5
s-129.333 12.167 -186 36.5s-105.334 58.5 -146.001 102.5s-72.334 96.833 -95.001 158.5s-34 129.834 -34 204.501s11.333 142.834 34 204.501s54.334 114.5 95.001 158.5s89.334 78.167 146.001 102.5s118.667 36.5 186 36.5zM539 791
c-37.333 0 -71.5 -7.16699 -102.5 -21.5s-57.833 -35 -80.5 -62s-40.334 -59.5 -53.001 -97.5s-19 -81 -19 -129s6.33301 -91.167 19 -129.5s30.334 -70.833 53.001 -97.5s49.5 -47.167 80.5 -61.5s65.167 -21.5 102.5 -21.5c36.667 0 70.667 7.16699 102 21.5
s58.5 34.833 81.5 61.5s40.833 59.167 53.5 97.5s19 81.5 19 129.5s-6.33301 91 -19 129s-30.5 70.5 -53.5 97.5s-50.167 47.667 -81.5 62s-65.333 21.5 -102 21.5zM266 1098l179 308h212l-198 -308h-193zM598 1098l198 308h217l-220 -308h-195z" />
    <glyph glyph-name="OE" unicode="&#x152;" horiz-adv-x="1978" 
d="M1854 201v-201h-1092c-103.333 -0 -196.166 16.333 -278.499 49s-152.166 79.334 -209.499 140.001s-101.5 134.167 -132.5 220.5s-46.5 183.166 -46.5 290.499c0 106.667 15.5 203.167 46.5 289.5s75.167 160 132.5 221s127.166 107.833 209.499 140.5
s175.166 49 278.499 49h1086v-201h-677v-393h650v-201h-650v-404h683zM321 700c0 -75.333 9.16699 -143.667 27.5 -205s45.833 -113.5 82.5 -156.5s82.667 -76.167 138 -99.5s120 -35 194 -35h191v992h-191c-74 0 -138.667 -11.833 -194 -35.5s-101.333 -57.167 -138 -100.5
s-64.167 -95.5 -82.5 -156.5s-27.5 -128.833 -27.5 -203.5z" />
    <glyph glyph-name="oe" unicode="&#x153;" horiz-adv-x="1724" 
d="M1646 483c0 -26.667 -1 -51.0029 -3 -73.0029h-641c5.33301 -43.333 15.666 -80.833 30.999 -112.5s34.333 -57.834 57 -78.501s48.334 -35.834 77.001 -45.501s59.667 -14.5 93 -14.5c46 0 90.167 8.5 132.5 25.5s80.5 40.5 114.5 70.5l102 -142
c-52.667 -48.667 -109.5 -83.167 -170.5 -103.5s-125.833 -30.5 -194.5 -30.5c-78.667 0 -147.834 16.333 -207.501 49s-108.5 79.334 -146.5 140.001c-38.667 -59.333 -88 -105.666 -148 -138.999s-127.667 -50 -203 -50c-67.333 0 -129.333 12.167 -186 36.5
s-105.334 58.5 -146.001 102.5s-72.334 96.833 -95.001 158.5s-34 129.834 -34 204.501s11.333 142.834 34 204.501s54.334 114.5 95.001 158.5s89.334 78.167 146.001 102.5s118.667 36.5 186 36.5c75.333 0 143 -16.667 203 -50s109.333 -79.666 148 -138.999
c37.333 60.667 85 107.334 143 140.001s124 49 198 49c62 0 118.333 -11.667 169 -35s94.334 -56.833 131.001 -100.5s65 -96.334 85 -158.001s30 -130.5 30 -206.5zM1443 560.997c-8.66699 76.667 -31.667 135.832 -69 177.499s-86 62.5 -146 62.5
c-64.667 0 -116 -21.167 -154 -63.5s-61.667 -101.166 -71 -176.499h440zM539 170.995c36.667 0 70.667 7.16699 102 21.5s58.5 34.833 81.5 61.5s40.833 59.167 53.5 97.5s19 81.5 19 129.5s-6.33301 91 -19 129s-30.5 70.5 -53.5 97.5s-50.167 47.667 -81.5 62
s-65.333 21.5 -102 21.5c-37.333 0 -71.5 -7.16699 -102.5 -21.5s-57.833 -35 -80.5 -62s-40.334 -59.5 -53.001 -97.5s-19 -81 -19 -129s6.33301 -91.167 19 -129.5s30.334 -70.833 53.001 -97.5s49.5 -47.167 80.5 -61.5s65.167 -21.5 102.5 -21.5z" />
    <glyph glyph-name="Racute" unicode="&#x154;" horiz-adv-x="1219" 
d="M477 581h-104.999v-581h-217v1400h501c75.333 0 142.5 -9.16699 201.5 -27.5s108.667 -45 149 -80s71 -78 92 -129s31.5 -109.5 31.5 -175.5c0 -58 -9.5 -110.667 -28.5 -158s-46.333 -88.5 -82 -123.5s-78.834 -63 -129.501 -84s-107.667 -34.167 -171 -39.5l416 -583
h-260zM372.001 774l282.001 0.000976562c82 0 144.5 17.667 187.5 53s64.5 89 64.5 161c0 71.333 -21.833 124.166 -65.5 158.499s-105.834 51.5 -186.501 51.5h-282v-424zM443.002 1509l186 308h239l-235 -308h-190z" />
    <glyph glyph-name="racute" unicode="&#x155;" horiz-adv-x="756" 
d="M583 983c25.333 0 49.0029 -1.83105 71.0029 -5.49805s42.667 -9.83398 62 -18.501l-35 -208c-20 9.33301 -42.5 16.666 -67.5 21.999s-49.167 8 -72.5 8c-30.667 0 -58.334 -5.33301 -83.001 -16s-45.834 -26.334 -63.501 -47.001s-31.334 -45.667 -41.001 -75
s-14.5 -62.333 -14.5 -99v-544h-204v962h198v-123c27.333 48.667 62 84.834 104 108.501s90.667 35.5 146 35.5zM283.003 1098l186 308h239l-235 -308h-190z" />
    <glyph glyph-name="uni0156" unicode="&#x156;" horiz-adv-x="1219" 
d="M477 581h-104.999v-581h-217v1400h501c75.333 0 142.5 -9.16699 201.5 -27.5s108.667 -45 149 -80s71 -78 92 -129s31.5 -109.5 31.5 -175.5c0 -58 -9.5 -110.667 -28.5 -158s-46.333 -88.5 -82 -123.5s-78.834 -63 -129.501 -84s-107.667 -34.167 -171 -39.5l416 -583
h-260zM372.001 774l282.001 0.000976562c82 0 144.5 17.667 187.5 53s64.5 89 64.5 161c0 71.333 -21.833 124.166 -65.5 158.499s-105.834 51.5 -186.501 51.5h-282v-424zM716.002 -85.999l-75 -353h-166l38 353h203z" />
    <glyph glyph-name="uni0157" unicode="&#x157;" horiz-adv-x="756" 
d="M583 983c25.333 0 49.0029 -1.83105 71.0029 -5.49805s42.667 -9.83398 62 -18.501l-35 -208c-20 9.33301 -42.5 16.666 -67.5 21.999s-49.167 8 -72.5 8c-30.667 0 -58.334 -5.33301 -83.001 -16s-45.834 -26.334 -63.501 -47.001s-31.334 -45.667 -41.001 -75
s-14.5 -62.333 -14.5 -99v-544h-204v962h198v-123c27.333 48.667 62 84.834 104 108.501s90.667 35.5 146 35.5zM348.003 -83.998l-75 -353h-166l38 353h203z" />
    <glyph glyph-name="Rcaron" unicode="&#x158;" horiz-adv-x="1219" 
d="M477 581h-104.999v-581h-217v1400h501c75.333 0 142.5 -9.16699 201.5 -27.5s108.667 -45 149 -80s71 -78 92 -129s31.5 -109.5 31.5 -175.5c0 -58 -9.5 -110.667 -28.5 -158s-46.333 -88.5 -82 -123.5s-78.834 -63 -129.501 -84s-107.667 -34.167 -171 -39.5l416 -583
h-260zM372.001 774l282.001 0.000976562c82 0 144.5 17.667 187.5 53s64.5 89 64.5 161c0 71.333 -21.833 124.166 -65.5 158.499s-105.834 51.5 -186.501 51.5h-282v-424zM461.002 1809l131 -169l130 169h194l-204 -303h-241l-204 303h194z" />
    <glyph glyph-name="rcaron" unicode="&#x159;" horiz-adv-x="756" 
d="M583 983c25.333 0 49.0029 -1.83105 71.0029 -5.49805s42.667 -9.83398 62 -18.501l-35 -208c-20 9.33301 -42.5 16.666 -67.5 21.999s-49.167 8 -72.5 8c-30.667 0 -58.334 -5.33301 -83.001 -16s-45.834 -26.334 -63.501 -47.001s-31.334 -45.667 -41.001 -75
s-14.5 -62.333 -14.5 -99v-544h-204v962h198v-123c27.333 48.667 62 84.834 104 108.501s90.667 35.5 146 35.5zM293.003 1398l131 -169l130 169h194l-204 -303h-241l-204 303h194z" />
    <glyph glyph-name="Sacute" unicode="&#x15a;" horiz-adv-x="1209" 
d="M976 1096c-47.333 36 -99.498 64.4951 -156.498 85.4951s-118.833 31.5 -185.5 31.5c-40 0 -76.833 -4.66699 -110.5 -14s-62.667 -22.666 -87 -39.999s-43.166 -38.333 -56.499 -63s-20 -52.667 -20 -84c0 -53.333 21.667 -95 65 -125s107.666 -53.667 192.999 -71
l104 -22c56 -12 108.167 -28.167 156.5 -48.5s90 -46.166 125 -77.499s62.5 -68.666 82.5 -111.999s30 -93.666 30 -150.999c0 -68.667 -13.333 -129.5 -40 -182.5s-63.334 -97.5 -110.001 -133.5s-101.167 -63.333 -163.5 -82s-129.166 -28 -200.499 -28
c-48.667 0 -96.834 4.5 -144.501 13.5s-93.5 21.667 -137.5 38s-85.167 36.333 -123.5 60s-72.833 50.5 -103.5 80.5l133 160c20.667 -20 44.667 -38.833 72 -56.5s57.166 -33 89.499 -46s66.5 -23.333 102.5 -31s72.667 -11.5 110 -11.5c40.667 0 78.667 4.5 114 13.5
s66 22.167 92 39.5s46.333 38.5 61 63.5s22 53.5 22 85.5c0 54 -22 96.333 -66 127s-109.667 55 -197 73l-113 23c-56.667 12 -108.334 28.833 -155.001 50.5s-86.5 48.667 -119.5 81s-58.667 70 -77 113s-27.5 92.167 -27.5 147.5c0 64.667 12.833 122.834 38.5 174.501
s60.834 95.5 105.501 131.5s97.5 63.5 158.5 82.5s126.833 28.5 197.5 28.5c95.333 0 181 -14 257 -42s145.667 -67 209 -117zM497.002 1509l186 308h239l-235 -308h-190z" />
    <glyph glyph-name="sacute" unicode="&#x15b;" horiz-adv-x="903" 
d="M732 729c-14.667 9.33301 -31.668 18.5029 -51.001 27.5029s-40.333 17 -63 24s-46.5 12.667 -71.5 17s-50.167 6.5 -75.5 6.5c-52 0 -92.667 -10.167 -122 -30.5s-44 -47.833 -44 -82.5c0 -33.333 13.667 -58.166 41 -74.499s66.333 -29.166 117 -38.499l86 -15
c93.333 -16.667 164.5 -47.834 213.5 -93.501s73.5 -106.834 73.5 -183.501c0 -46 -9.16699 -87.833 -27.5 -125.5s-44.833 -69.834 -79.5 -96.501s-76.5 -47.334 -125.5 -62.001s-103.833 -22 -164.5 -22c-30 0 -61.167 2 -93.5 6s-64.5 10.5 -96.5 19.5
s-63.5 20.667 -94.5 35s-60.167 32.166 -87.5 53.499l91 154c16 -12.667 33.5 -24.5 52.5 -35.5s39.833 -20.667 62.5 -29s47.5 -14.833 74.5 -19.5s56.5 -7 88.5 -7c61.333 0 109 10.167 143 30.5s51 49.166 51 86.499c0 28.667 -12.333 52.667 -37 72
s-65.334 34 -122.001 44l-87 15c-98 16.667 -170 49.667 -216 99s-69 110 -69 182c0 46 8.66699 87.167 26 123.5s42 67.333 74 93s70.5 45.334 115.5 59.001s95.167 20.5 150.5 20.5c68.667 0 132.334 -8.5 191.001 -25.5s111.334 -40.5 158.001 -70.5zM330.999 1098
l186 308h239l-235 -308h-190z" />
    <glyph glyph-name="Scircumflex" unicode="&#x15c;" horiz-adv-x="1209" 
d="M976 1096c-47.333 36 -99.498 64.4951 -156.498 85.4951s-118.833 31.5 -185.5 31.5c-40 0 -76.833 -4.66699 -110.5 -14s-62.667 -22.666 -87 -39.999s-43.166 -38.333 -56.499 -63s-20 -52.667 -20 -84c0 -53.333 21.667 -95 65 -125s107.666 -53.667 192.999 -71
l104 -22c56 -12 108.167 -28.167 156.5 -48.5s90 -46.166 125 -77.499s62.5 -68.666 82.5 -111.999s30 -93.666 30 -150.999c0 -68.667 -13.333 -129.5 -40 -182.5s-63.334 -97.5 -110.001 -133.5s-101.167 -63.333 -163.5 -82s-129.166 -28 -200.499 -28
c-48.667 0 -96.834 4.5 -144.501 13.5s-93.5 21.667 -137.5 38s-85.167 36.333 -123.5 60s-72.833 50.5 -103.5 80.5l133 160c20.667 -20 44.667 -38.833 72 -56.5s57.166 -33 89.499 -46s66.5 -23.333 102.5 -31s72.667 -11.5 110 -11.5c40.667 0 78.667 4.5 114 13.5
s66 22.167 92 39.5s46.333 38.5 61 63.5s22 53.5 22 85.5c0 54 -22 96.333 -66 127s-109.667 55 -197 73l-113 23c-56.667 12 -108.334 28.833 -155.001 50.5s-86.5 48.667 -119.5 81s-58.667 70 -77 113s-27.5 92.167 -27.5 147.5c0 64.667 12.833 122.834 38.5 174.501
s60.834 95.5 105.501 131.5s97.5 63.5 158.5 82.5s126.833 28.5 197.5 28.5c95.333 0 181 -14 257 -42s145.667 -67 209 -117zM778.002 1508l-131 169l-130 -169h-194l204 303h241l204 -303h-194z" />
    <glyph glyph-name="scircumflex" unicode="&#x15d;" horiz-adv-x="903" 
d="M732 729c-14.667 9.33301 -31.668 18.5029 -51.001 27.5029s-40.333 17 -63 24s-46.5 12.667 -71.5 17s-50.167 6.5 -75.5 6.5c-52 0 -92.667 -10.167 -122 -30.5s-44 -47.833 -44 -82.5c0 -33.333 13.667 -58.166 41 -74.499s66.333 -29.166 117 -38.499l86 -15
c93.333 -16.667 164.5 -47.834 213.5 -93.501s73.5 -106.834 73.5 -183.501c0 -46 -9.16699 -87.833 -27.5 -125.5s-44.833 -69.834 -79.5 -96.501s-76.5 -47.334 -125.5 -62.001s-103.833 -22 -164.5 -22c-30 0 -61.167 2 -93.5 6s-64.5 10.5 -96.5 19.5
s-63.5 20.667 -94.5 35s-60.167 32.166 -87.5 53.499l91 154c16 -12.667 33.5 -24.5 52.5 -35.5s39.833 -20.667 62.5 -29s47.5 -14.833 74.5 -19.5s56.5 -7 88.5 -7c61.333 0 109 10.167 143 30.5s51 49.166 51 86.499c0 28.667 -12.333 52.667 -37 72
s-65.334 34 -122.001 44l-87 15c-98 16.667 -170 49.667 -216 99s-69 110 -69 182c0 46 8.66699 87.167 26 123.5s42 67.333 74 93s70.5 45.334 115.5 59.001s95.167 20.5 150.5 20.5c68.667 0 132.334 -8.5 191.001 -25.5s111.334 -40.5 158.001 -70.5zM602.999 1097
l-131 169l-130 -169h-194l204 303h241l204 -303h-194z" />
    <glyph glyph-name="Scedilla" unicode="&#x15e;" horiz-adv-x="1209" 
d="M976 1096c-47.333 36 -99.498 64.4951 -156.498 85.4951s-118.833 31.5 -185.5 31.5c-40 0 -76.833 -4.66699 -110.5 -14s-62.667 -22.666 -87 -39.999s-43.166 -38.333 -56.499 -63s-20 -52.667 -20 -84c0 -53.333 21.667 -95 65 -125s107.666 -53.667 192.999 -71
l104 -22c56 -12 108.167 -28.167 156.5 -48.5s90 -46.166 125 -77.499s62.5 -68.666 82.5 -111.999s30 -93.666 30 -150.999c0 -68.667 -13.333 -129.5 -40 -182.5s-63.334 -97.5 -110.001 -133.5s-101.167 -63.333 -163.5 -82s-129.166 -28 -200.499 -28
c-48.667 0 -96.834 4.5 -144.501 13.5s-93.5 21.667 -137.5 38s-85.167 36.333 -123.5 60s-72.833 50.5 -103.5 80.5l133 160c20.667 -20 44.667 -38.833 72 -56.5s57.166 -33 89.499 -46s66.5 -23.333 102.5 -31s72.667 -11.5 110 -11.5c40.667 0 78.667 4.5 114 13.5
s66 22.167 92 39.5s46.333 38.5 61 63.5s22 53.5 22 85.5c0 54 -22 96.333 -66 127s-109.667 55 -197 73l-113 23c-56.667 12 -108.334 28.833 -155.001 50.5s-86.5 48.667 -119.5 81s-58.667 70 -77 113s-27.5 92.167 -27.5 147.5c0 64.667 12.833 122.834 38.5 174.501
s60.834 95.5 105.501 131.5s97.5 63.5 158.5 82.5s126.833 28.5 197.5 28.5c95.333 0 181 -14 257 -42s145.667 -67 209 -117zM630.002 -322.005h-208l100 328h200z" />
    <glyph glyph-name="scedilla" unicode="&#x15f;" horiz-adv-x="903" 
d="M732 729c-14.667 9.33301 -31.668 18.5029 -51.001 27.5029s-40.333 17 -63 24s-46.5 12.667 -71.5 17s-50.167 6.5 -75.5 6.5c-52 0 -92.667 -10.167 -122 -30.5s-44 -47.833 -44 -82.5c0 -33.333 13.667 -58.166 41 -74.499s66.333 -29.166 117 -38.499l86 -15
c93.333 -16.667 164.5 -47.834 213.5 -93.501s73.5 -106.834 73.5 -183.501c0 -46 -9.16699 -87.833 -27.5 -125.5s-44.833 -69.834 -79.5 -96.501s-76.5 -47.334 -125.5 -62.001s-103.833 -22 -164.5 -22c-30 0 -61.167 2 -93.5 6s-64.5 10.5 -96.5 19.5
s-63.5 20.667 -94.5 35s-60.167 32.166 -87.5 53.499l91 154c16 -12.667 33.5 -24.5 52.5 -35.5s39.833 -20.667 62.5 -29s47.5 -14.833 74.5 -19.5s56.5 -7 88.5 -7c61.333 0 109 10.167 143 30.5s51 49.166 51 86.499c0 28.667 -12.333 52.667 -37 72
s-65.334 34 -122.001 44l-87 15c-98 16.667 -170 49.667 -216 99s-69 110 -69 182c0 46 8.66699 87.167 26 123.5s42 67.333 74 93s70.5 45.334 115.5 59.001s95.167 20.5 150.5 20.5c68.667 0 132.334 -8.5 191.001 -25.5s111.334 -40.5 158.001 -70.5zM469.999 -321.997
h-193l101 339l185 -11z" />
    <glyph glyph-name="Scaron" unicode="&#x160;" horiz-adv-x="1209" 
d="M976 1096c-47.333 36 -99.498 64.4951 -156.498 85.4951s-118.833 31.5 -185.5 31.5c-40 0 -76.833 -4.66699 -110.5 -14s-62.667 -22.666 -87 -39.999s-43.166 -38.333 -56.499 -63s-20 -52.667 -20 -84c0 -53.333 21.667 -95 65 -125s107.666 -53.667 192.999 -71
l104 -22c56 -12 108.167 -28.167 156.5 -48.5s90 -46.166 125 -77.499s62.5 -68.666 82.5 -111.999s30 -93.666 30 -150.999c0 -68.667 -13.333 -129.5 -40 -182.5s-63.334 -97.5 -110.001 -133.5s-101.167 -63.333 -163.5 -82s-129.166 -28 -200.499 -28
c-48.667 0 -96.834 4.5 -144.501 13.5s-93.5 21.667 -137.5 38s-85.167 36.333 -123.5 60s-72.833 50.5 -103.5 80.5l133 160c20.667 -20 44.667 -38.833 72 -56.5s57.166 -33 89.499 -46s66.5 -23.333 102.5 -31s72.667 -11.5 110 -11.5c40.667 0 78.667 4.5 114 13.5
s66 22.167 92 39.5s46.333 38.5 61 63.5s22 53.5 22 85.5c0 54 -22 96.333 -66 127s-109.667 55 -197 73l-113 23c-56.667 12 -108.334 28.833 -155.001 50.5s-86.5 48.667 -119.5 81s-58.667 70 -77 113s-27.5 92.167 -27.5 147.5c0 64.667 12.833 122.834 38.5 174.501
s60.834 95.5 105.501 131.5s97.5 63.5 158.5 82.5s126.833 28.5 197.5 28.5c95.333 0 181 -14 257 -42s145.667 -67 209 -117zM515.002 1809l131 -169l130 169h194l-204 -303h-241l-204 303h194z" />
    <glyph glyph-name="scaron" unicode="&#x161;" horiz-adv-x="903" 
d="M732 729c-14.667 9.33301 -31.668 18.5029 -51.001 27.5029s-40.333 17 -63 24s-46.5 12.667 -71.5 17s-50.167 6.5 -75.5 6.5c-52 0 -92.667 -10.167 -122 -30.5s-44 -47.833 -44 -82.5c0 -33.333 13.667 -58.166 41 -74.499s66.333 -29.166 117 -38.499l86 -15
c93.333 -16.667 164.5 -47.834 213.5 -93.501s73.5 -106.834 73.5 -183.501c0 -46 -9.16699 -87.833 -27.5 -125.5s-44.833 -69.834 -79.5 -96.501s-76.5 -47.334 -125.5 -62.001s-103.833 -22 -164.5 -22c-30 0 -61.167 2 -93.5 6s-64.5 10.5 -96.5 19.5
s-63.5 20.667 -94.5 35s-60.167 32.166 -87.5 53.499l91 154c16 -12.667 33.5 -24.5 52.5 -35.5s39.833 -20.667 62.5 -29s47.5 -14.833 74.5 -19.5s56.5 -7 88.5 -7c61.333 0 109 10.167 143 30.5s51 49.166 51 86.499c0 28.667 -12.333 52.667 -37 72
s-65.334 34 -122.001 44l-87 15c-98 16.667 -170 49.667 -216 99s-69 110 -69 182c0 46 8.66699 87.167 26 123.5s42 67.333 74 93s70.5 45.334 115.5 59.001s95.167 20.5 150.5 20.5c68.667 0 132.334 -8.5 191.001 -25.5s111.334 -40.5 158.001 -70.5zM340.999 1398
l131 -169l130 169h194l-204 -303h-241l-204 303h194z" />
    <glyph glyph-name="uni0162" unicode="&#x162;" horiz-adv-x="1087" 
d="M1056 1197h-404v-1197h-217v1197h-404v203h1025v-203zM553 -322h-208l100 328h200z" />
    <glyph glyph-name="uni0163" unicode="&#x163;" horiz-adv-x="819" 
d="M797 63c-34 -24 -73.001 -44.002 -117.001 -60.002s-94 -24 -150 -24c-49.333 0 -93.666 7 -132.999 21s-72.5 35.167 -99.5 63.5s-47.667 64 -62 107s-21.5 93.5 -21.5 151.5v455h-173v185h173v278h202v-278h329v-185h-329v-443c0 -29.333 3.66699 -54.166 11 -74.499
s17.333 -37.166 30 -50.499s27.667 -23 45 -29s36.333 -9 57 -9c30 0 59.333 5.33301 88 16s54.667 24 78 40zM503.999 -322.002h-193l101 339l185 -11z" />
    <glyph glyph-name="Tcaron" unicode="&#x164;" horiz-adv-x="1087" 
d="M1056 1197h-404v-1197h-217v1197h-404v203h1025v-203zM413 1809l131 -169l130 169h194l-204 -303h-241l-204 303h194z" />
    <glyph glyph-name="tcaron" unicode="&#x165;" horiz-adv-x="819" 
d="M797 63c-34 -24 -73.001 -44.002 -117.001 -60.002s-94 -24 -150 -24c-49.333 0 -93.666 7 -132.999 21s-72.5 35.167 -99.5 63.5s-47.667 64 -62 107s-21.5 93.5 -21.5 151.5v455h-173v185h173v278h202v-278h329v-185h-329v-443c0 -29.333 3.66699 -54.166 11 -74.499
s17.333 -37.166 30 -50.499s27.667 -23 45 -29s36.333 -9 57 -9c30 0 59.333 5.33301 88 16s54.667 24 78 40zM508.999 1047l3 411h196l-41 -411h-158z" />
    <glyph glyph-name="Tbar" unicode="&#x166;" horiz-adv-x="1087" 
d="M1056 1197h-404v-1197h-217v1197h-404v203h1025v-203zM910 610h-723v191h723v-191z" />
    <glyph glyph-name="tbar" unicode="&#x167;" horiz-adv-x="819" 
d="M797 63c-34 -24 -73.001 -44.002 -117.001 -60.002s-94 -24 -150 -24c-49.333 0 -93.666 7 -132.999 21s-72.5 35.167 -99.5 63.5s-47.667 64 -62 107s-21.5 93.5 -21.5 151.5v105h-161v175h161v175h-173v185h173v278h202v-278h329v-185h-329v-175h247v-175h-247v-93
c0 -29.333 3.66699 -54.166 11 -74.499s17.333 -37.166 30 -50.499s27.667 -23 45 -29s36.333 -9 57 -9c30 0 59.333 5.33301 88 16s54.667 24 78 40z" />
    <glyph glyph-name="Utilde" unicode="&#x168;" horiz-adv-x="1347" 
d="M1207 506c0 -86 -13.1709 -161.667 -39.5039 -227s-63.166 -120.333 -110.499 -165s-103.5 -78.334 -168.5 -101.001s-136.5 -34 -214.5 -34s-149.667 11.333 -215 34s-121.666 56.334 -168.999 101.001s-84.166 99.667 -110.499 165s-39.5 141 -39.5 227v894h217v-880
c0 -57.333 7.83301 -106.833 23.5 -148.5s37.5 -76 65.5 -103s61.333 -47 100 -60s81.334 -19.5 128.001 -19.5c46 0 88.333 6.5 127 19.5s72 33 100 60s49.833 61.333 65.5 103s23.5 91.167 23.5 148.5v880h217v-894zM328.996 1665c30.667 41.333 63.832 71.5 99.499 90.5
s76.5 28.5 122.5 28.5c30.667 0 57.167 -3.66699 79.5 -11s42.5 -15.166 60.5 -23.499s34.5 -16.166 49.5 -23.499s30.833 -11 47.5 -11c20 0 39.167 5.5 57.5 16.5s37.833 27.5 58.5 49.5l107 -120c-31.333 -41.333 -64.666 -71.5 -99.999 -90.5s-76.333 -28.5 -123 -28.5
c-30 0 -56.167 3.66699 -78.5 11s-42.333 15.166 -60 23.499s-34.167 16.166 -49.5 23.499s-31.333 11 -48 11c-20 0 -39.167 -5.5 -57.5 -16.5s-37.833 -27.5 -58.5 -49.5z" />
    <glyph glyph-name="utilde" unicode="&#x169;" horiz-adv-x="1063" 
d="M936 382c0 -70 -10.832 -130.333 -32.499 -181s-51 -92.5 -88 -125.5s-80 -57.333 -129 -73s-100.833 -23.5 -155.5 -23.5s-106.334 7.83301 -155.001 23.5s-91.5 40 -128.5 73s-66.333 74.833 -88 125.5s-32.5 111 -32.5 181v580h202v-565c0 -40 5 -74.333 15 -103
s24 -52 42 -70s39.333 -31.333 64 -40s51.667 -13 81 -13s56.333 4.33301 81 13s46 22 64 40s32.167 41.333 42.5 70s15.5 63 15.5 103v565h202v-580zM190.001 1253c30.667 41.333 63.832 71.5 99.499 90.5s76.5 28.5 122.5 28.5c30.667 0 57.167 -3.66699 79.5 -11
s42.5 -15.166 60.5 -23.499s34.5 -16.166 49.5 -23.499s30.833 -11 47.5 -11c20 0 39.167 5.5 57.5 16.5s37.833 27.5 58.5 49.5l107 -120c-31.333 -41.333 -64.666 -71.5 -99.999 -90.5s-76.333 -28.5 -123 -28.5c-30 0 -56.167 3.66699 -78.5 11
s-42.333 15.166 -60 23.499s-34.167 16.166 -49.5 23.499s-31.333 11 -48 11c-20 0 -39.167 -5.5 -57.5 -16.5s-37.833 -27.5 -58.5 -49.5z" />
    <glyph glyph-name="Umacron" unicode="&#x16a;" horiz-adv-x="1347" 
d="M1207 506c0 -86 -13.1709 -161.667 -39.5039 -227s-63.166 -120.333 -110.499 -165s-103.5 -78.334 -168.5 -101.001s-136.5 -34 -214.5 -34s-149.667 11.333 -215 34s-121.666 56.334 -168.999 101.001s-84.166 99.667 -110.499 165s-39.5 141 -39.5 227v894h217v-880
c0 -57.333 7.83301 -106.833 23.5 -148.5s37.5 -76 65.5 -103s61.333 -47 100 -60s81.334 -19.5 128.001 -19.5c46 0 88.333 6.5 127 19.5s72 33 100 60s49.833 61.333 65.5 103s23.5 91.167 23.5 148.5v880h217v-894zM384.996 1743h576v-170h-576v170z" />
    <glyph glyph-name="umacron" unicode="&#x16b;" horiz-adv-x="1063" 
d="M936 382c0 -70 -10.832 -130.333 -32.499 -181s-51 -92.5 -88 -125.5s-80 -57.333 -129 -73s-100.833 -23.5 -155.5 -23.5s-106.334 7.83301 -155.001 23.5s-91.5 40 -128.5 73s-66.333 74.833 -88 125.5s-32.5 111 -32.5 181v580h202v-565c0 -40 5 -74.333 15 -103
s24 -52 42 -70s39.333 -31.333 64 -40s51.667 -13 81 -13s56.333 4.33301 81 13s46 22 64 40s32.167 41.333 42.5 70s15.5 63 15.5 103v565h202v-580zM242.001 1332h576v-170h-576v170z" />
    <glyph glyph-name="Ubreve" unicode="&#x16c;" horiz-adv-x="1347" 
d="M1207 506c0 -86 -13.1709 -161.667 -39.5039 -227s-63.166 -120.333 -110.499 -165s-103.5 -78.334 -168.5 -101.001s-136.5 -34 -214.5 -34s-149.667 11.333 -215 34s-121.666 56.334 -168.999 101.001s-84.166 99.667 -110.499 165s-39.5 141 -39.5 227v894h217v-880
c0 -57.333 7.83301 -106.833 23.5 -148.5s37.5 -76 65.5 -103s61.333 -47 100 -60s81.334 -19.5 128.001 -19.5c46 0 88.333 6.5 127 19.5s72 33 100 60s49.833 61.333 65.5 103s23.5 91.167 23.5 148.5v880h217v-894zM494.996 1837
c14.667 -58.667 36.833 -101.5 66.5 -128.5s66.5 -40.5 110.5 -40.5c43.333 0 79.833 13.5 109.5 40.5s51.834 69.833 66.501 128.5l156 -38c-22 -98.667 -61.167 -173.5 -117.5 -224.5s-127.833 -76.5 -214.5 -76.5s-158.334 25.5 -215.001 76.5s-96 125.833 -118 224.5z
" />
    <glyph glyph-name="ubreve" unicode="&#x16d;" horiz-adv-x="1063" 
d="M936 382c0 -70 -10.832 -130.333 -32.499 -181s-51 -92.5 -88 -125.5s-80 -57.333 -129 -73s-100.833 -23.5 -155.5 -23.5s-106.334 7.83301 -155.001 23.5s-91.5 40 -128.5 73s-66.333 74.833 -88 125.5s-32.5 111 -32.5 181v580h202v-565c0 -40 5 -74.333 15 -103
s24 -52 42 -70s39.333 -31.333 64 -40s51.667 -13 81 -13s56.333 4.33301 81 13s46 22 64 40s32.167 41.333 42.5 70s15.5 63 15.5 103v565h202v-580zM353.001 1425c14.667 -58.667 36.833 -101.5 66.5 -128.5s66.5 -40.5 110.5 -40.5c43.333 0 79.833 13.5 109.5 40.5
s51.834 69.833 66.501 128.5l156 -38c-22 -98.667 -61.167 -173.5 -117.5 -224.5s-127.833 -76.5 -214.5 -76.5s-158.334 25.5 -215.001 76.5s-96 125.833 -118 224.5z" />
    <glyph glyph-name="Uring" unicode="&#x16e;" horiz-adv-x="1347" 
d="M1207 506c0 -86 -13.1709 -161.667 -39.5039 -227s-63.166 -120.333 -110.499 -165s-103.5 -78.334 -168.5 -101.001s-136.5 -34 -214.5 -34s-149.667 11.333 -215 34s-121.666 56.334 -168.999 101.001s-84.166 99.667 -110.499 165s-39.5 141 -39.5 227v894h217v-880
c0 -57.333 7.83301 -106.833 23.5 -148.5s37.5 -76 65.5 -103s61.333 -47 100 -60s81.334 -19.5 128.001 -19.5c46 0 88.333 6.5 127 19.5s72 33 100 60s49.833 61.333 65.5 103s23.5 91.167 23.5 148.5v880h217v-894zM671.996 1492c-32 0 -62 6 -90 18
s-52.5 28.167 -73.5 48.5s-37.5 44.5 -49.5 72.5s-18 58 -18 90c0 31.333 6 60.833 18 88.5s28.5 51.667 49.5 72s45.5 36.5 73.5 48.5s58 18 90 18s62 -6 90 -18s52.5 -28.167 73.5 -48.5s37.667 -44.333 50 -72s18.5 -57.167 18.5 -88.5c0 -32 -6.16699 -62 -18.5 -90
s-29 -52.167 -50 -72.5s-45.5 -36.5 -73.5 -48.5s-58 -18 -90 -18zM671.996 1612c14.667 0 28.5 2.83301 41.5 8.5s24.333 13.334 34 23.001s17.334 21.167 23.001 34.5s8.5 27.666 8.5 42.999c0 14.667 -2.83301 28.667 -8.5 42s-13.334 24.666 -23.001 33.999
s-21 16.833 -34 22.5s-26.833 8.5 -41.5 8.5c-14 0 -27.5 -2.83301 -40.5 -8.5s-24.167 -13.167 -33.5 -22.5s-16.833 -20.666 -22.5 -33.999s-8.5 -27.333 -8.5 -42c0 -15.333 2.83301 -29.666 8.5 -42.999s13.167 -24.833 22.5 -34.5s20.5 -17.334 33.5 -23.001
s26.5 -8.5 40.5 -8.5z" />
    <glyph glyph-name="uring" unicode="&#x16f;" horiz-adv-x="1063" 
d="M936 382c0 -70 -10.832 -130.333 -32.499 -181s-51 -92.5 -88 -125.5s-80 -57.333 -129 -73s-100.833 -23.5 -155.5 -23.5s-106.334 7.83301 -155.001 23.5s-91.5 40 -128.5 73s-66.333 74.833 -88 125.5s-32.5 111 -32.5 181v580h202v-565c0 -40 5 -74.333 15 -103
s24 -52 42 -70s39.333 -31.333 64 -40s51.667 -13 81 -13s56.333 4.33301 81 13s46 22 64 40s32.167 41.333 42.5 70s15.5 63 15.5 103v565h202v-580zM529.001 1081c-32 0 -62 6 -90 18s-52.5 28.167 -73.5 48.5s-37.5 44.5 -49.5 72.5s-18 58 -18 90
c0 31.333 6 60.833 18 88.5s28.5 51.667 49.5 72s45.5 36.5 73.5 48.5s58 18 90 18s62 -6 90 -18s52.5 -28.167 73.5 -48.5s37.667 -44.333 50 -72s18.5 -57.167 18.5 -88.5c0 -32 -6.16699 -62 -18.5 -90s-29 -52.167 -50 -72.5s-45.5 -36.5 -73.5 -48.5s-58 -18 -90 -18z
M529.001 1201c14.667 0 28.5 2.83301 41.5 8.5s24.333 13.334 34 23.001s17.334 21.167 23.001 34.5s8.5 27.666 8.5 42.999c0 14.667 -2.83301 28.667 -8.5 42s-13.334 24.666 -23.001 33.999s-21 16.833 -34 22.5s-26.833 8.5 -41.5 8.5c-14 0 -27.5 -2.83301 -40.5 -8.5
s-24.167 -13.167 -33.5 -22.5s-16.833 -20.666 -22.5 -33.999s-8.5 -27.333 -8.5 -42c0 -15.333 2.83301 -29.666 8.5 -42.999s13.167 -24.833 22.5 -34.5s20.5 -17.334 33.5 -23.001s26.5 -8.5 40.5 -8.5z" />
    <glyph glyph-name="Uhungarumlaut" unicode="&#x170;" horiz-adv-x="1347" 
d="M1207 506c0 -86 -13.1709 -161.667 -39.5039 -227s-63.166 -120.333 -110.499 -165s-103.5 -78.334 -168.5 -101.001s-136.5 -34 -214.5 -34s-149.667 11.333 -215 34s-121.666 56.334 -168.999 101.001s-84.166 99.667 -110.499 165s-39.5 141 -39.5 227v894h217v-880
c0 -57.333 7.83301 -106.833 23.5 -148.5s37.5 -76 65.5 -103s61.333 -47 100 -60s81.334 -19.5 128.001 -19.5c46 0 88.333 6.5 127 19.5s72 33 100 60s49.833 61.333 65.5 103s23.5 91.167 23.5 148.5v880h217v-894zM388.996 1509l179 308h212l-198 -308h-193z
M720.996 1509l198 308h217l-220 -308h-195z" />
    <glyph glyph-name="uhungarumlaut" unicode="&#x171;" horiz-adv-x="1063" 
d="M936 382c0 -70 -10.832 -130.333 -32.499 -181s-51 -92.5 -88 -125.5s-80 -57.333 -129 -73s-100.833 -23.5 -155.5 -23.5s-106.334 7.83301 -155.001 23.5s-91.5 40 -128.5 73s-66.333 74.833 -88 125.5s-32.5 111 -32.5 181v580h202v-565c0 -40 5 -74.333 15 -103
s24 -52 42 -70s39.333 -31.333 64 -40s51.667 -13 81 -13s56.333 4.33301 81 13s46 22 64 40s32.167 41.333 42.5 70s15.5 63 15.5 103v565h202v-580zM257.001 1098l179 308h212l-198 -308h-193zM589.001 1098l198 308h217l-220 -308h-195z" />
    <glyph glyph-name="Uogonek" unicode="&#x172;" horiz-adv-x="1347" 
d="M1207 506c0 -86 -13.1709 -161.667 -39.5039 -227s-63.166 -120.333 -110.499 -165s-103.5 -78.334 -168.5 -101.001s-136.5 -34 -214.5 -34s-149.667 11.333 -215 34s-121.666 56.334 -168.999 101.001s-84.166 99.667 -110.499 165s-39.5 141 -39.5 227v894h217v-880
c0 -57.333 7.83301 -106.833 23.5 -148.5s37.5 -76 65.5 -103s61.333 -47 100 -60s81.334 -19.5 128.001 -19.5c46 0 88.333 6.5 127 19.5s72 33 100 60s49.833 61.333 65.5 103s23.5 91.167 23.5 148.5v880h217v-894zM1079 -307
c-30.667 -30.667 -65.502 -54.001 -104.502 -70.001s-81.5 -24 -127.5 -24c-38 0 -72.667 5 -104 15s-58.166 23.833 -80.499 41.5s-39.833 38.834 -52.5 63.501s-19 51.667 -19 81c0 34 7 64.833 21 92.5s34.167 53.167 60.5 76.5s58.333 44.5 96 63.5
s79.834 37.167 126.501 54.5l58 -45c-64 -35.333 -109.333 -68.833 -136 -100.5s-40 -63.834 -40 -96.501c0 -23.333 8.16699 -42.166 24.5 -56.499s38.5 -21.5 66.5 -21.5c40 0 76.333 15.333 109 46z" />
    <glyph glyph-name="uogonek" unicode="&#x173;" horiz-adv-x="1063" 
d="M936 382c0 -70 -10.832 -130.333 -32.499 -181s-51 -92.5 -88 -125.5s-80 -57.333 -129 -73s-100.833 -23.5 -155.5 -23.5s-106.334 7.83301 -155.001 23.5s-91.5 40 -128.5 73s-66.333 74.833 -88 125.5s-32.5 111 -32.5 181v580h202v-565c0 -40 5 -74.333 15 -103
s24 -52 42 -70s39.333 -31.333 64 -40s51.667 -13 81 -13s56.333 4.33301 81 13s46 22 64 40s32.167 41.333 42.5 70s15.5 63 15.5 103v565h202v-580zM894.001 -307c-30.667 -30.667 -65.502 -54.001 -104.502 -70.001s-81.5 -24 -127.5 -24c-38 0 -72.667 5 -104 15
s-58.166 23.833 -80.499 41.5s-39.833 38.834 -52.5 63.501s-19 51.667 -19 81c0 34 7 64.833 21 92.5s34.167 53.167 60.5 76.5s58.333 44.5 96 63.5s79.834 37.167 126.501 54.5l58 -45c-64 -35.333 -109.333 -68.833 -136 -100.5s-40 -63.834 -40 -96.501
c0 -23.333 8.16699 -42.166 24.5 -56.499s38.5 -21.5 66.5 -21.5c40 0 76.333 15.333 109 46z" />
    <glyph glyph-name="Wcircumflex" unicode="&#x174;" horiz-adv-x="1968" 
d="M1931 1400l-387 -1401h-264l-296 1076l-297 -1076h-264l-386 1401h227l296 -1134l307 1135h237l307 -1136l297 1135h223zM1112 1508l-131 169l-130 -169h-194l204 303h241l204 -303h-194z" />
    <glyph glyph-name="wcircumflex" unicode="&#x175;" horiz-adv-x="1543" 
d="M1515 962l-299 -962h-231l-215 712l-215 -712h-228l-299 962h212l209 -727l219 727h207l221 -729l210 729h209zM900 1095l-131 169l-130 -169h-194l204 303h241l204 -303h-194z" />
    <glyph glyph-name="Ycircumflex" unicode="&#x176;" horiz-adv-x="1200" 
d="M711 553v-553h-217v556l-487 844h252l345 -608l344 608h245zM734 1508l-131 169l-130 -169h-194l204 303h241l204 -303h-194z" />
    <glyph glyph-name="ycircumflex" unicode="&#x177;" horiz-adv-x="990" 
d="M980 962l-660 -1346h-218l291 571l-380 775h222l266 -563l261 563h218zM628 1097l-131 169l-130 -169h-194l204 303h241l204 -303h-194z" />
    <glyph glyph-name="Ydieresis" unicode="&#x178;" horiz-adv-x="1200" 
d="M711 553v-553h-217v556l-487 844h252l345 -608l344 608h245zM402 1793c18.667 0 36.167 -3.49805 52.5 -10.498s30.5 -16.5 42.5 -28.5s21.333 -26.333 28 -43s10 -34.334 10 -53.001s-3.33301 -36 -10 -52s-16 -29.833 -28 -41.5s-26.167 -20.834 -42.5 -27.501
s-33.833 -10 -52.5 -10s-36 3.33301 -52 10s-30 16 -42 28s-21.333 26 -28 42s-10 33.667 -10 53c0 18.667 3.33301 36 10 52s16 30 28 42s26 21.5 42 28.5s33.333 10.5 52 10.5zM797 1793c18.667 0 36.167 -3.49805 52.5 -10.498s30.5 -16.5 42.5 -28.5
s21.333 -26.333 28 -43s10 -34.334 10 -53.001s-3.33301 -36 -10 -52s-16 -29.833 -28 -41.5s-26.167 -20.834 -42.5 -27.501s-33.833 -10 -52.5 -10s-36 3.33301 -52 10s-30 16 -42 28s-21.333 26 -28 42s-10 33.667 -10 53c0 18.667 3.33301 36 10 52s16 30 28 42
s26 21.5 42 28.5s33.333 10.5 52 10.5z" />
    <glyph glyph-name="Zacute" unicode="&#x179;" horiz-adv-x="1155" 
d="M1061 1231l-694 -1029h695v-202h-969v169l695 1029h-690v202h963v-169zM429 1509l186 308h239l-235 -308h-190z" />
    <glyph glyph-name="zacute" unicode="&#x17a;" horiz-adv-x="940" 
d="M838 808l-482 -623h490v-185h-752v152l490 626h-474v184h728v-154zM333 1098l186 308h239l-235 -308h-190z" />
    </font>
</defs>
</svg>
